Ruwudu-ExtraBold.ufo
<glyph name="t" format="2">
  <advance width="366"/>
  <unicode hex="0074"/>
  <anchor x="197" y="0" name="bottom"/>
  <outline>
    <contour>
      <point x="220" y="552" type="curve"/>
      <point x="173" y="552" type="line"/>
      <point x="142" y="505"/>
      <point x="122" y="476"/>
      <point x="93" y="437" type="curve"/>
      <point x="66" y="430"/>
      <point x="47" y="425"/>
      <point x="15" y="420" type="curve"/>
      <point x="18" y="404"/>
      <point x="94" y="381"/>
      <point x="94" y="365" type="curve" smooth="yes"/>
      <point x="94" y="361"/>
      <point x="94" y="327"/>
      <point x="93" y="277" type="curve" smooth="yes"/>
      <point x="91" y="197"/>
      <point x="88" y="135"/>
      <point x="88" y="96" type="curve" smooth="yes"/>
      <point x="88" y="34"/>
      <point x="135" y="-10"/>
      <point x="182" y="-10" type="curve" smooth="yes"/>
      <point x="264" y="-10"/>
      <point x="321" y="37"/>
      <point x="372" y="80" type="curve"/>
      <point x="352" y="120" type="line"/>
      <point x="311" y="95"/>
      <point x="288" y="89"/>
      <point x="266" y="89" type="curve" smooth="yes"/>
      <point x="234" y="89"/>
      <point x="220" y="106"/>
      <point x="218" y="156" type="curve" smooth="yes"/>
      <point x="217" y="176"/>
      <point x="216" y="234"/>
      <point x="216" y="304" type="curve" smooth="yes"/>
      <point x="215" y="388"/>
      <point x="216" y="487"/>
    </contour>
    <contour>
      <point x="348" y="421" type="line"/>
      <point x="15" y="420" type="line"/>
      <point x="1" y="368" type="line"/>
      <point x="120" y="363"/>
      <point x="239" y="357"/>
      <point x="358" y="348" type="curve"/>
    </contour>
  </outline>
</glyph>
<glyph name="ogonek" format="2">
  <advance width="254"/>
  <unicode hex="02DB"/>
  <outline>
    <contour>
      <point x="167" y="32" type="curve"/>
      <point x="149" y="40" type="line"/>
      <point x="130" y="40" type="line"/>
      <point x="64" y="2"/>
      <point x="32" y="-61"/>
      <point x="32" y="-112" type="curve" smooth="yes"/>
      <point x="32" y="-157"/>
      <point x="57" y="-193"/>
      <point x="104" y="-193" type="curve" smooth="yes"/>
      <point x="148" y="-193"/>
      <point x="201" y="-162"/>
      <point x="239" y="-106" type="curve"/>
      <point x="222" y="-79" type="line"/>
      <point x="194" y="-98"/>
      <point x="177" y="-106"/>
      <point x="155" y="-106" type="curve" smooth="yes"/>
      <point x="132" y="-106"/>
      <point x="122" y="-90"/>
      <point x="122" y="-68" type="curve" smooth="yes"/>
      <point x="122" y="-39"/>
      <point x="139" y="1"/>
    </contour>
  </outline>
</glyph>
<glyph name="number-ar" format="2">
  <advance width="929"/>
  <unicode hex="0600"/>
  <anchor x="86" y="180" name="digit"/>
  <outline>
    <contour>
      <point x="50" y="0" type="curve"/>
      <point x="109" y="0"/>
      <point x="832" y="0"/>
      <point x="899" y="0" type="curve"/>
      <point x="899" y="81"/>
      <point x="869" y="140"/>
      <point x="853" y="140" type="curve" smooth="yes"/>
      <point x="49" y="140" type="line" smooth="yes"/>
      <point x="38" y="140"/>
      <point x="30" y="134"/>
      <point x="30" y="104" type="curve" smooth="yes"/>
      <point x="30" y="80"/>
      <point x="39" y="31"/>
    </contour>
    <contour>
      <point x="622" y="249" type="curve" smooth="yes"/>
      <point x="676" y="249"/>
      <point x="778" y="246"/>
      <point x="854" y="234" type="curve"/>
      <point x="854" y="307"/>
      <point x="813" y="380"/>
      <point x="792" y="382" type="curve" smooth="yes"/>
      <point x="736" y="388"/>
      <point x="640" y="390"/>
      <point x="582" y="387" type="curve" smooth="yes"/>
      <point x="529" y="384"/>
      <point x="475" y="359"/>
      <point x="475" y="308" type="curve" smooth="yes"/>
      <point x="475" y="272"/>
      <point x="483" y="228"/>
      <point x="499" y="171" type="curve" smooth="yes"/>
      <point x="507" y="143"/>
      <point x="507" y="140"/>
      <point x="465" y="140" type="curve"/>
      <point x="550" y="103" type="line"/>
      <point x="617" y="140" type="line"/>
      <point x="593" y="140"/>
      <point x="582" y="154"/>
      <point x="576" y="193" type="curve" smooth="yes"/>
      <point x="569" y="239"/>
      <point x="573" y="249"/>
    </contour>
  </outline>
</glyph>
<glyph name="threedots-ar" format="2">
  <advance width="423"/>
  <unicode hex="061E"/>
  <outline>
    <contour>
      <point x="169" y="285" type="curve" smooth="yes"/>
      <point x="155" y="280"/>
      <point x="150" y="257"/>
      <point x="150" y="226" type="curve" smooth="yes"/>
      <point x="150" y="200"/>
      <point x="152" y="172"/>
      <point x="158" y="153" type="curve"/>
      <point x="170" y="153"/>
      <point x="184" y="152"/>
      <point x="197" y="152" type="curve" smooth="yes"/>
      <point x="230" y="152"/>
      <point x="264" y="155"/>
      <point x="272" y="160" type="curve" smooth="yes"/>
      <point x="282" y="167"/>
      <point x="288" y="189"/>
      <point x="288" y="219" type="curve" smooth="yes"/>
      <point x="288" y="243"/>
      <point x="286" y="272"/>
      <point x="279" y="291" type="curve"/>
      <point x="269" y="292"/>
      <point x="254" y="292"/>
      <point x="241" y="292" type="curve" smooth="yes"/>
      <point x="212" y="292"/>
      <point x="178" y="291"/>
    </contour>
    <contour>
      <point x="79" y="122" type="curve" smooth="yes"/>
      <point x="65" y="117"/>
      <point x="60" y="94"/>
      <point x="60" y="62" type="curve" smooth="yes"/>
      <point x="60" y="36"/>
      <point x="63" y="9"/>
      <point x="68" y="-10" type="curve"/>
      <point x="80" y="-10"/>
      <point x="94" y="-11"/>
      <point x="107" y="-11" type="curve" smooth="yes"/>
      <point x="140" y="-11"/>
      <point x="174" y="-8"/>
      <point x="182" y="-3" type="curve" smooth="yes"/>
      <point x="192" y="4"/>
      <point x="199" y="26"/>
      <point x="199" y="55" type="curve" smooth="yes"/>
      <point x="199" y="80"/>
      <point x="196" y="109"/>
      <point x="189" y="128" type="curve"/>
      <point x="180" y="129"/>
      <point x="165" y="129"/>
      <point x="151" y="129" type="curve" smooth="yes"/>
      <point x="122" y="129"/>
      <point x="88" y="128"/>
    </contour>
    <contour>
      <point x="243" y="129" type="curve" smooth="yes"/>
      <point x="230" y="123"/>
      <point x="224" y="100"/>
      <point x="224" y="69" type="curve" smooth="yes"/>
      <point x="224" y="43"/>
      <point x="227" y="16"/>
      <point x="233" y="-3" type="curve"/>
      <point x="245" y="-3"/>
      <point x="258" y="-4"/>
      <point x="272" y="-4" type="curve" smooth="yes"/>
      <point x="305" y="-4"/>
      <point x="339" y="-2"/>
      <point x="347" y="4" type="curve" smooth="yes"/>
      <point x="356" y="11"/>
      <point x="363" y="32"/>
      <point x="363" y="62" type="curve" smooth="yes"/>
      <point x="363" y="87"/>
      <point x="360" y="115"/>
      <point x="354" y="134" type="curve"/>
      <point x="344" y="136"/>
      <point x="329" y="136"/>
      <point x="316" y="136" type="curve" smooth="yes"/>
      <point x="287" y="136"/>
      <point x="253" y="134"/>
    </contour>
  </outline>
</glyph>
<glyph name="hamza-ar" format="2">
  <advance width="229"/>
  <unicode hex="0621"/>
  <anchor x="88" y="-33" name="bottom"/>
  <anchor x="89" y="241" name="top"/>
  <outline>
    <contour>
      <point x="-20" y="1" type="curve"/>
      <point x="224" y="1" type="line"/>
      <point x="224" y="15"/>
      <point x="223" y="63"/>
      <point x="210" y="63" type="curve" smooth="yes"/>
      <point x="87" y="63" type="line"/>
      <point x="83" y="63"/>
      <point x="81" y="65"/>
      <point x="81" y="72" type="curve" smooth="yes"/>
      <point x="81" y="80"/>
      <point x="87" y="86"/>
      <point x="95" y="86" type="curve"/>
      <point x="224" y="86" type="line"/>
      <point x="224" y="100"/>
      <point x="223" y="149"/>
      <point x="210" y="149" type="curve" smooth="yes"/>
      <point x="86" y="149" type="line"/>
      <point x="83" y="149"/>
      <point x="82" y="152"/>
      <point x="82" y="157" type="curve" smooth="yes"/>
      <point x="82" y="167"/>
      <point x="88" y="177"/>
      <point x="97" y="177" type="curve"/>
      <point x="224" y="177" type="line"/>
      <point x="224" y="200"/>
      <point x="223" y="239"/>
      <point x="210" y="239" type="curve" smooth="yes"/>
      <point x="-10" y="239" type="line" smooth="yes"/>
      <point x="-38" y="239"/>
      <point x="-45" y="223"/>
      <point x="-45" y="203" type="curve" smooth="yes"/>
      <point x="-45" y="173"/>
      <point x="-38" y="147"/>
      <point x="-38" y="117" type="curve"/>
      <point x="-38" y="88"/>
      <point x="-44" y="60"/>
      <point x="-44" y="40" type="curve" smooth="yes"/>
      <point x="-44" y="13"/>
      <point x="-39" y="1"/>
    </contour>
  </outline>
</glyph>
<glyph name="alefHamzaabove-ar" format="2">
  <advance width="308"/>
  <unicode hex="0623"/>
  <anchor x="129" y="-56" name="bottom"/>
  <anchor x="109" y="620" name="top"/>
  <outline>
    <component base="alef-ar"/>
    <contour>
      <point x="157" y="403" type="line"/>
      <point x="165" y="403"/>
      <point x="171" y="395"/>
      <point x="181" y="384" type="curve"/>
      <point x="182" y="405"/>
      <point x="183" y="403"/>
      <point x="187" y="403" type="curve" smooth="yes"/>
      <point x="293" y="403" type="line"/>
      <point x="293" y="419"/>
      <point x="292" y="446"/>
      <point x="285" y="446" type="curve" smooth="yes"/>
      <point x="188" y="446" type="line" smooth="yes"/>
      <point x="181" y="446"/>
      <point x="185" y="461"/>
      <point x="191" y="461" type="curve" smooth="yes"/>
      <point x="293" y="461" type="line"/>
      <point x="293" y="478"/>
      <point x="292" y="504"/>
      <point x="285" y="504" type="curve" smooth="yes"/>
      <point x="188" y="504" type="line" smooth="yes"/>
      <point x="183" y="504"/>
      <point x="186" y="520"/>
      <point x="192" y="520" type="curve" smooth="yes"/>
      <point x="293" y="520" type="line"/>
      <point x="293" y="536"/>
      <point x="292" y="563"/>
      <point x="285" y="563" type="curve" smooth="yes"/>
      <point x="192" y="563" type="line" smooth="yes"/>
      <point x="186" y="563"/>
      <point x="186" y="570"/>
      <point x="186" y="587" type="curve"/>
      <point x="177" y="587"/>
      <point x="173" y="553"/>
      <point x="163" y="553" type="curve"/>
    </contour>
  </outline>
</glyph>
<glyph name="wawHamzaabove-ar" format="2">
  <advance width="565"/>
  <unicode hex="0624"/>
  <anchor x="376" y="-251" name="bottom"/>
  <anchor x="181" y="410" name="top"/>
  <outline>
    <component base="waw-ar"/>
    <contour>
      <point x="410" y="248" type="line"/>
      <point x="418" y="248"/>
      <point x="459" y="240"/>
      <point x="471" y="209" type="curve"/>
      <point x="468" y="246"/>
      <point x="468" y="248"/>
      <point x="472" y="248" type="curve" smooth="yes"/>
      <point x="586" y="248" type="line"/>
      <point x="586" y="264"/>
      <point x="585" y="291"/>
      <point x="578" y="291" type="curve" smooth="yes"/>
      <point x="465" y="291" type="line" smooth="yes"/>
      <point x="458" y="291"/>
      <point x="462" y="306"/>
      <point x="468" y="306" type="curve" smooth="yes"/>
      <point x="586" y="306" type="line"/>
      <point x="586" y="323"/>
      <point x="585" y="349"/>
      <point x="578" y="349" type="curve" smooth="yes"/>
      <point x="455" y="349" type="line" smooth="yes"/>
      <point x="450" y="349"/>
      <point x="453" y="365"/>
      <point x="459" y="365" type="curve" smooth="yes"/>
      <point x="586" y="365" type="line"/>
      <point x="586" y="381"/>
      <point x="585" y="408"/>
      <point x="578" y="408" type="curve" smooth="yes"/>
      <point x="445" y="408" type="line" smooth="yes"/>
      <point x="439" y="408"/>
      <point x="440" y="411"/>
      <point x="435" y="430" type="curve"/>
      <point x="431" y="430"/>
      <point x="426" y="398"/>
      <point x="416" y="398" type="curve"/>
    </contour>
  </outline>
</glyph>
<glyph name="alefHamzabelow-ar" format="2">
  <advance width="269"/>
  <unicode hex="0625"/>
  <anchor x="109" y="-56" name="bottom"/>
  <anchor x="114" y="610" name="top"/>
  <outline>
    <contour>
      <point x="272" y="160" type="curve" smooth="yes"/>
      <point x="179" y="160" type="line" smooth="yes"/>
      <point x="173" y="160"/>
      <point x="173" y="167"/>
      <point x="173" y="184" type="curve" smooth="yes"/>
      <point x="173" y="246"/>
      <point x="187" y="483"/>
      <point x="186" y="587" type="curve"/>
      <point x="181" y="594"/>
      <point x="177" y="598"/>
      <point x="174" y="598" type="curve" smooth="yes"/>
      <point x="158" y="598"/>
      <point x="94" y="582"/>
      <point x="55" y="554" type="curve"/>
      <point x="103" y="224"/>
      <point x="101" y="0"/>
      <point x="107" y="0" type="curve"/>
      <point x="280" y="0" type="line"/>
      <point x="280" y="16"/>
      <point x="279" y="43"/>
      <point x="272" y="43" type="curve" smooth="yes"/>
      <point x="173" y="43" type="line" smooth="yes"/>
      <point x="166" y="43"/>
      <point x="170" y="58"/>
      <point x="176" y="58" type="curve" smooth="yes"/>
      <point x="280" y="58" type="line"/>
      <point x="280" y="75"/>
      <point x="279" y="101"/>
      <point x="272" y="101" type="curve" smooth="yes"/>
      <point x="174" y="101" type="line" smooth="yes"/>
      <point x="169" y="101"/>
      <point x="172" y="117"/>
      <point x="178" y="117" type="curve" smooth="yes"/>
      <point x="280" y="117" type="line"/>
      <point x="280" y="133"/>
      <point x="279" y="160"/>
    </contour>
  </outline>
</glyph>
<glyph name="alef-ar" format="2">
  <advance width="205"/>
  <unicode hex="0627"/>
  <anchor x="104" y="-66" name="bottom"/>
  <anchor x="94" y="600" name="top"/>
  <outline>
    <contour>
      <point x="156" y="567" type="curve"/>
      <point x="151" y="574"/>
      <point x="147" y="578"/>
      <point x="144" y="578" type="curve" smooth="yes"/>
      <point x="128" y="578"/>
      <point x="64" y="562"/>
      <point x="25" y="534" type="curve"/>
      <point x="40" y="404"/>
      <point x="68" y="208"/>
      <point x="77" y="-39" type="curve"/>
      <point x="94" y="-41"/>
      <point x="135" y="-36"/>
      <point x="144" y="-24" type="curve"/>
      <point x="144" y="-11"/>
      <point x="145" y="87"/>
      <point x="145" y="161" type="curve" smooth="yes"/>
      <point x="144" y="253"/>
      <point x="157" y="463"/>
    </contour>
  </outline>
</glyph>
<glyph name="hah-ar" format="2">
  <advance width="586"/>
  <unicode hex="062D"/>
  <anchor x="316" y="-89" name="bottom"/>
  <anchor x="262" y="426" name="top"/>
  <outline>
    <contour>
      <point x="424" y="393" type="curve" smooth="yes"/>
      <point x="363" y="393"/>
      <point x="233" y="353"/>
      <point x="121" y="353" type="curve" smooth="yes"/>
      <point x="71" y="353"/>
      <point x="47" y="356"/>
      <point x="28" y="359" type="curve"/>
      <point x="25" y="349"/>
      <point x="25" y="330"/>
      <point x="25" y="323" type="curve" smooth="yes"/>
      <point x="25" y="273"/>
      <point x="52" y="207"/>
      <point x="127" y="207" type="curve" smooth="yes"/>
      <point x="195" y="207"/>
      <point x="315" y="250"/>
      <point x="390" y="250" type="curve" smooth="yes"/>
      <point x="413" y="250"/>
      <point x="421" y="202"/>
      <point x="421" y="180" type="curve" smooth="yes"/>
      <point x="421" y="168"/>
      <point x="420" y="166"/>
      <point x="366" y="166" type="curve" smooth="yes"/>
      <point x="185" y="166"/>
      <point x="7" y="79"/>
      <point x="7" y="-121" type="curve" smooth="yes"/>
      <point x="7" y="-278"/>
      <point x="71" y="-381"/>
      <point x="254" y="-481" type="curve"/>
      <point x="258" y="-477"/>
      <point x="262" y="-469"/>
      <point x="262" y="-463" type="curve"/>
      <point x="160" y="-379"/>
      <point x="114" y="-279"/>
      <point x="114" y="-191" type="curve" smooth="yes"/>
      <point x="114" y="-70"/>
      <point x="201" y="27"/>
      <point x="348" y="27" type="curve" smooth="yes"/>
      <point x="412" y="27"/>
      <point x="476" y="18"/>
      <point x="533" y="-2" type="curve"/>
      <point x="539" y="11"/>
      <point x="546" y="52"/>
      <point x="546" y="79" type="curve" smooth="yes"/>
      <point x="546" y="106"/>
      <point x="546" y="117"/>
      <point x="542" y="127" type="curve" smooth="yes"/>
      <point x="538" y="137"/>
      <point x="511" y="143"/>
      <point x="508" y="156" type="curve" smooth="yes"/>
      <point x="469" y="342"/>
      <point x="453" y="393"/>
    </contour>
  </outline>
</glyph>
<glyph name="dal-ar" format="2">
  <advance width="488"/>
  <unicode hex="062F"/>
  <anchor x="335" y="-60" name="bottom"/>
  <anchor x="309" y="370" name="top"/>
  <outline>
    <contour>
      <point x="347" y="170" type="curve" smooth="yes"/>
      <point x="350" y="163"/>
      <point x="351" y="155"/>
      <point x="351" y="150" type="curve" smooth="yes"/>
      <point x="351" y="142"/>
      <point x="349" y="140"/>
      <point x="345" y="140" type="curve" smooth="yes"/>
      <point x="151" y="140"/>
      <point x="95" y="133"/>
      <point x="95" y="-8" type="curve" smooth="yes"/>
      <point x="95" y="-85"/>
      <point x="109" y="-148"/>
      <point x="121" y="-235" type="curve"/>
      <point x="134" y="-235"/>
      <point x="167" y="-233"/>
      <point x="168" y="-214" type="curve" smooth="yes"/>
      <point x="174" y="-38"/>
      <point x="176" y="0"/>
      <point x="204" y="0" type="curve" smooth="yes"/>
      <point x="401" y="0"/>
      <point x="262" y="0"/>
      <point x="360" y="0" type="curve" smooth="yes"/>
      <point x="418" y="0"/>
      <point x="428" y="76"/>
      <point x="428" y="152" type="curve" smooth="yes"/>
      <point x="428" y="194"/>
      <point x="428" y="284"/>
      <point x="420" y="324" type="curve"/>
      <point x="352" y="320"/>
      <point x="256" y="315"/>
      <point x="221" y="315" type="curve" smooth="yes"/>
      <point x="178" y="315"/>
      <point x="162" y="324"/>
      <point x="162" y="386" type="curve" smooth="yes"/>
      <point x="162" y="420"/>
      <point x="165" y="485"/>
      <point x="168" y="544" type="curve"/>
      <point x="131" y="544"/>
      <point x="100" y="538"/>
      <point x="73" y="522" type="curve" smooth="yes"/>
      <point x="65" y="517"/>
      <point x="60" y="513"/>
      <point x="60" y="504" type="curve"/>
      <point x="82" y="260"/>
      <point x="75" y="178"/>
      <point x="339" y="176" type="curve" smooth="yes"/>
      <point x="345" y="176"/>
      <point x="346" y="174"/>
    </contour>
  </outline>
</glyph>
<glyph name="seen-ar" format="2">
  <advance width="1228"/>
  <unicode hex="0633"/>
  <anchor x="968" y="-30" name="bottom"/>
  <anchor x="920" y="369" name="top"/>
  <outline>
    <contour>
      <point x="1151" y="332" type="curve" smooth="yes"/>
      <point x="1149" y="339"/>
      <point x="1145" y="345"/>
      <point x="1133" y="345" type="curve"/>
      <point x="1102" y="328"/>
      <point x="1077" y="311"/>
      <point x="1048" y="288" type="curve"/>
      <point x="1069" y="249"/>
      <point x="1096" y="204"/>
      <point x="1096" y="169" type="curve" smooth="yes"/>
      <point x="1096" y="160"/>
      <point x="1095" y="140"/>
      <point x="1076" y="140" type="curve" smooth="yes"/>
      <point x="1037" y="140" type="line" smooth="yes"/>
      <point x="1008" y="140"/>
      <point x="1006" y="157"/>
      <point x="1003" y="186" type="curve" smooth="yes"/>
      <point x="998" y="237"/>
      <point x="985" y="291"/>
      <point x="973" y="332" type="curve" smooth="yes"/>
      <point x="971" y="339"/>
      <point x="967" y="345"/>
      <point x="955" y="345" type="curve"/>
      <point x="924" y="328"/>
      <point x="899" y="311"/>
      <point x="870" y="288" type="curve"/>
      <point x="881" y="269"/>
      <point x="928" y="204"/>
      <point x="928" y="169" type="curve" smooth="yes"/>
      <point x="928" y="160"/>
      <point x="927" y="140"/>
      <point x="908" y="140" type="curve" smooth="yes"/>
      <point x="853" y="140" type="line" smooth="yes"/>
      <point x="838" y="140"/>
      <point x="833" y="154"/>
      <point x="827" y="183" type="curve" smooth="yes"/>
      <point x="821" y="211"/>
      <point x="809" y="256"/>
      <point x="788" y="329" type="curve" smooth="yes"/>
      <point x="786" y="336"/>
      <point x="782" y="345"/>
      <point x="769" y="345" type="curve"/>
      <point x="738" y="328"/>
      <point x="708" y="308"/>
      <point x="679" y="285" type="curve"/>
      <point x="696" y="266"/>
      <point x="757" y="179"/>
      <point x="757" y="120" type="curve" smooth="yes"/>
      <point x="757" y="99"/>
      <point x="553" y="-92"/>
      <point x="271" y="-92" type="curve" smooth="yes"/>
      <point x="144" y="-92"/>
      <point x="69" y="-38"/>
      <point x="69" y="56" type="curve" smooth="yes"/>
      <point x="69" y="88"/>
      <point x="77" y="124"/>
      <point x="96" y="165" type="curve"/>
      <point x="94" y="174"/>
      <point x="77" y="180"/>
      <point x="68" y="180" type="curve"/>
      <point x="23" y="118"/>
      <point x="0" y="50"/>
      <point x="0" y="-12" type="curve" smooth="yes"/>
      <point x="0" y="-133"/>
      <point x="85" y="-232"/>
      <point x="257" y="-232" type="curve" smooth="yes"/>
      <point x="457" y="-232"/>
      <point x="596" y="-172"/>
      <point x="818" y="-8" type="curve" smooth="yes"/>
      <point x="823" y="-4"/>
      <point x="829" y="0"/>
      <point x="840" y="0" type="curve" smooth="yes"/>
      <point x="1088" y="0" type="line"/>
      <point x="1154" y="0"/>
      <point x="1171" y="84"/>
      <point x="1171" y="186" type="curve" smooth="yes"/>
      <point x="1171" y="237"/>
      <point x="1163" y="291"/>
    </contour>
  </outline>
</glyph>
<glyph name="sad-ar" format="2">
  <advance width="1297"/>
  <unicode hex="0635"/>
  <anchor x="908" y="-30" name="bottom"/>
  <anchor x="920" y="445" name="top"/>
  <outline>
    <contour>
      <point x="1212" y="228" type="curve" smooth="yes"/>
      <point x="1212" y="303"/>
      <point x="1198" y="407"/>
      <point x="1147" y="415" type="curve"/>
      <point x="1061" y="416"/>
      <point x="839" y="393"/>
      <point x="765" y="373" type="curve" smooth="yes"/>
      <point x="658" y="344"/>
      <point x="618" y="279"/>
      <point x="618" y="203" type="curve" smooth="yes"/>
      <point x="618" y="181"/>
      <point x="621" y="119"/>
      <point x="621" y="102" type="curve"/>
      <point x="544" y="-2"/>
      <point x="363" y="-99"/>
      <point x="257" y="-99" type="curve" smooth="yes"/>
      <point x="160" y="-99"/>
      <point x="85" y="-65"/>
      <point x="85" y="51" type="curve" smooth="yes"/>
      <point x="85" y="84"/>
      <point x="93" y="136"/>
      <point x="105" y="163" type="curve"/>
      <point x="103" y="169"/>
      <point x="87" y="180"/>
      <point x="78" y="180" type="curve"/>
      <point x="33" y="118"/>
      <point x="0" y="30"/>
      <point x="0" y="-32" type="curve" smooth="yes"/>
      <point x="0" y="-172"/>
      <point x="90" y="-235"/>
      <point x="215" y="-235" type="curve" smooth="yes"/>
      <point x="388" y="-235"/>
      <point x="546" y="-152"/>
      <point x="697" y="-8" type="curve" smooth="yes"/>
      <point x="702" y="-3"/>
      <point x="708" y="0"/>
      <point x="719" y="0" type="curve" smooth="yes"/>
      <point x="1125" y="0" type="line" smooth="yes"/>
      <point x="1202" y="0"/>
      <point x="1212" y="84"/>
    </contour>
    <contour>
      <point x="718" y="140" type="line" smooth="yes"/>
      <point x="698" y="140"/>
      <point x="696" y="143"/>
      <point x="696" y="175" type="curve" smooth="yes"/>
      <point x="696" y="233"/>
      <point x="727" y="260"/>
      <point x="1089" y="276" type="curve" smooth="yes"/>
      <point x="1124" y="278"/>
      <point x="1139" y="234"/>
      <point x="1139" y="173" type="curve" smooth="yes"/>
      <point x="1139" y="152"/>
      <point x="1136" y="140"/>
      <point x="1112" y="140" type="curve" smooth="yes"/>
    </contour>
  </outline>
</glyph>
<glyph name="tah-ar" format="2">
  <advance width="820"/>
  <unicode hex="0637"/>
  <anchor x="482" y="-30" name="bottom"/>
  <anchor x="462" y="475" name="top"/>
  <outline>
    <contour>
      <point x="284" y="334" type="curve" smooth="yes"/>
      <point x="262" y="321"/>
      <point x="260" y="327"/>
      <point x="258" y="356" type="curve" smooth="yes"/>
      <point x="254" y="414"/>
      <point x="253" y="498"/>
      <point x="243" y="652" type="curve"/>
      <point x="238" y="659"/>
      <point x="234" y="663"/>
      <point x="231" y="663" type="curve" smooth="yes"/>
      <point x="215" y="663"/>
      <point x="142" y="639"/>
      <point x="113" y="616" type="curve"/>
      <point x="155" y="449"/>
      <point x="188" y="242"/>
      <point x="191" y="182" type="curve" smooth="yes"/>
      <point x="193" y="142"/>
      <point x="180" y="140"/>
      <point x="166" y="140" type="curve" smooth="yes"/>
      <point x="60" y="140" type="line"/>
      <point x="60" y="120"/>
      <point x="60" y="40"/>
      <point x="92" y="0" type="curve"/>
      <point x="693" y="0" type="line" smooth="yes"/>
      <point x="746" y="0"/>
      <point x="760" y="134"/>
      <point x="760" y="232" type="curve" smooth="yes"/>
      <point x="760" y="399"/>
      <point x="714" y="446"/>
      <point x="613" y="446" type="curve" smooth="yes"/>
      <point x="527" y="446"/>
      <point x="398" y="399"/>
    </contour>
    <contour>
      <point x="295" y="140" type="line" smooth="yes"/>
      <point x="269" y="140"/>
      <point x="264" y="140"/>
      <point x="264" y="194" type="curve" smooth="yes"/>
      <point x="264" y="223"/>
      <point x="466" y="306"/>
      <point x="583" y="306" type="curve" smooth="yes"/>
      <point x="657" y="306"/>
      <point x="683" y="255"/>
      <point x="683" y="204" type="curve" smooth="yes"/>
      <point x="683" y="159"/>
      <point x="678" y="140"/>
      <point x="634" y="140" type="curve" smooth="yes"/>
    </contour>
  </outline>
</glyph>
<glyph name="ain-ar" format="2">
  <advance width="655"/>
  <unicode hex="0639"/>
  <anchor x="369" y="-111" name="bottom"/>
  <anchor x="438" y="487" name="top"/>
  <outline>
    <contour>
      <point x="290" y="161" type="curve" smooth="yes"/>
      <point x="190" y="139"/>
      <point x="37" y="68"/>
      <point x="37" y="-131" type="curve" smooth="yes"/>
      <point x="37" y="-278"/>
      <point x="126" y="-391"/>
      <point x="276" y="-481" type="curve"/>
      <point x="284" y="-477"/>
      <point x="289" y="-467"/>
      <point x="289" y="-459" type="curve"/>
      <point x="185" y="-379"/>
      <point x="139" y="-274"/>
      <point x="139" y="-176" type="curve" smooth="yes"/>
      <point x="139" y="-65"/>
      <point x="226" y="27"/>
      <point x="373" y="27" type="curve" smooth="yes"/>
      <point x="437" y="27"/>
      <point x="501" y="19"/>
      <point x="558" y="-1" type="curve"/>
      <point x="563" y="19"/>
      <point x="564" y="37"/>
      <point x="564" y="104" type="curve" smooth="yes"/>
      <point x="564" y="114"/>
      <point x="561" y="118"/>
      <point x="553" y="140" type="curve" smooth="yes"/>
      <point x="549" y="152"/>
      <point x="518" y="157"/>
      <point x="423" y="168" type="curve" smooth="yes"/>
      <point x="396" y="171"/>
      <point x="362" y="221"/>
      <point x="362" y="250" type="curve" smooth="yes"/>
      <point x="362" y="282"/>
      <point x="383" y="311"/>
      <point x="447" y="311" type="curve" smooth="yes"/>
      <point x="490" y="311"/>
      <point x="566" y="294"/>
      <point x="612" y="262" type="curve"/>
      <point x="614" y="270"/>
      <point x="615" y="279"/>
      <point x="615" y="303" type="curve" smooth="yes"/>
      <point x="615" y="355"/>
      <point x="591" y="413"/>
      <point x="571" y="423" type="curve" smooth="yes"/>
      <point x="538" y="440"/>
      <point x="474" y="451"/>
      <point x="433" y="451" type="curve" smooth="yes"/>
      <point x="348" y="451"/>
      <point x="258" y="427"/>
      <point x="258" y="302" type="curve" smooth="yes"/>
      <point x="258" y="227"/>
      <point x="307" y="185"/>
      <point x="307" y="175" type="curve" smooth="yes"/>
      <point x="307" y="169"/>
      <point x="303" y="164"/>
    </contour>
  </outline>
</glyph>
<glyph name="kashida-ar" format="2">
  <advance width="119"/>
  <unicode hex="0640"/>
  <anchor x="60" y="-30" name="bottom"/>
  <anchor x="60" y="180" name="top"/>
  <outline>
    <contour>
      <point x="-20" y="0" type="line"/>
      <point x="139" y="0" type="line"/>
      <point x="139" y="140" type="line"/>
      <point x="-20" y="140" type="line"/>
    </contour>
  </outline>
</glyph>
<glyph name="lam-ar" format="2">
  <advance width="533"/>
  <unicode hex="0644"/>
  <anchor x="456" y="-167" name="bottom"/>
  <anchor x="411" y="633" name="top"/>
  <outline>
    <contour>
      <point x="465" y="-32" type="curve" smooth="yes"/>
      <point x="473" y="-21"/>
      <point x="477" y="62"/>
      <point x="477" y="139" type="curve" smooth="yes"/>
      <point x="477" y="251"/>
      <point x="485" y="422"/>
      <point x="480" y="618" type="curve"/>
      <point x="477" y="624"/>
      <point x="473" y="633"/>
      <point x="465" y="633" type="curve" smooth="yes"/>
      <point x="449" y="633"/>
      <point x="378" y="606"/>
      <point x="349" y="582" type="curve"/>
      <point x="377" y="415"/>
      <point x="400" y="215"/>
      <point x="403" y="87" type="curve"/>
      <point x="341" y="-5"/>
      <point x="221" y="-105"/>
      <point x="114" y="-105" type="curve" smooth="yes"/>
      <point x="37" y="-105"/>
      <point x="-24" y="-82"/>
      <point x="-72" y="-11" type="curve"/>
      <point x="-80" y="-7"/>
      <point x="-93" y="-18"/>
      <point x="-97" y="-26" type="curve"/>
      <point x="-57" y="-165"/>
      <point x="22" y="-245"/>
      <point x="126" y="-245" type="curve" smooth="yes"/>
      <point x="221" y="-245"/>
      <point x="365" y="-158"/>
    </contour>
  </outline>
</glyph>
<glyph name="meem-ar" format="2">
  <advance width="520"/>
  <unicode hex="0645"/>
  <anchor x="306" y="-30" name="bottom"/>
  <anchor x="284" y="520" name="top"/>
  <outline>
    <contour>
      <point x="363" y="202" type="curve" smooth="yes"/>
      <point x="363" y="146"/>
      <point x="351" y="140"/>
      <point x="319" y="140" type="curve" smooth="yes"/>
      <point x="222" y="140"/>
      <point x="189" y="140"/>
      <point x="189" y="148" type="curve" smooth="yes"/>
      <point x="189" y="158"/>
      <point x="318" y="294"/>
      <point x="350" y="294" type="curve" smooth="yes"/>
      <point x="360" y="294"/>
      <point x="363" y="244"/>
    </contour>
    <contour>
      <point x="370" y="0"/>
      <point x="369" y="0" type="curve" smooth="yes"/>
      <point x="447" y="0"/>
      <point x="445" y="115"/>
      <point x="445" y="213" type="curve" smooth="yes"/>
      <point x="445" y="275"/>
      <point x="441" y="349"/>
      <point x="418" y="442" type="curve" smooth="yes"/>
      <point x="415" y="452"/>
      <point x="380" y="481"/>
      <point x="366" y="481" type="curve" smooth="yes"/>
      <point x="340" y="481"/>
      <point x="78" y="229"/>
      <point x="76" y="195" type="curve" smooth="yes"/>
      <point x="75" y="171"/>
      <point x="75" y="123"/>
      <point x="75" y="43" type="curve" smooth="yes"/>
      <point x="75" y="-88"/>
      <point x="82" y="-260"/>
      <point x="86" y="-390" type="curve"/>
      <point x="95" y="-390"/>
      <point x="119" y="-389"/>
      <point x="133" y="-379" type="curve"/>
      <point x="148" y="-227"/>
      <point x="164" y="-124"/>
      <point x="171" y="-63" type="curve" smooth="yes"/>
      <point x="177" y="-10"/>
      <point x="187" y="0"/>
      <point x="218" y="0" type="curve" smooth="yes"/>
      <point x="272" y="0"/>
    </contour>
  </outline>
</glyph>
<glyph name="heh-ar" format="2">
  <advance width="537"/>
  <unicode hex="0647"/>
  <anchor x="254" y="-30" name="bottom"/>
  <anchor x="252" y="428" name="top"/>
  <outline>
    <contour>
      <point x="402" y="216" type="curve" smooth="yes"/>
      <point x="402" y="158"/>
      <point x="401" y="140"/>
      <point x="344" y="140" type="curve" smooth="yes"/>
      <point x="260" y="140"/>
      <point x="227" y="139"/>
      <point x="229" y="150" type="curve" smooth="yes"/>
      <point x="238" y="197"/>
      <point x="356" y="296"/>
      <point x="388" y="296" type="curve" smooth="yes"/>
      <point x="391" y="296"/>
      <point x="395" y="291"/>
      <point x="397" y="284" type="curve" smooth="yes"/>
      <point x="401" y="264"/>
      <point x="402" y="225"/>
    </contour>
    <contour>
      <point x="430" y="0" type="curve"/>
      <point x="477" y="0"/>
      <point x="482" y="102"/>
      <point x="482" y="175" type="curve" smooth="yes"/>
      <point x="482" y="211"/>
      <point x="480" y="328"/>
      <point x="478" y="378" type="curve"/>
      <point x="461" y="397"/>
      <point x="393" y="445"/>
      <point x="383" y="445" type="curve" smooth="yes"/>
      <point x="327" y="445"/>
      <point x="55" y="197"/>
      <point x="55" y="143" type="curve" smooth="yes"/>
      <point x="55" y="111"/>
      <point x="66" y="43"/>
      <point x="89" y="0" type="curve"/>
      <point x="180" y="0"/>
      <point x="338" y="0"/>
    </contour>
  </outline>
</glyph>
<glyph name="waw-ar" format="2">
  <advance width="565"/>
  <unicode hex="0648"/>
  <anchor x="376" y="-211" name="bottom"/>
  <anchor x="211" y="370" name="top"/>
  <outline>
    <contour>
      <point x="391" y="164" type="curve" smooth="yes"/>
      <point x="391" y="153"/>
      <point x="390" y="144"/>
      <point x="372" y="141" type="curve" smooth="yes"/>
      <point x="364" y="140"/>
      <point x="343" y="139"/>
      <point x="320" y="139" type="curve" smooth="yes"/>
      <point x="271" y="139"/>
      <point x="244" y="142"/>
      <point x="244" y="155" type="curve" smooth="yes"/>
      <point x="244" y="166"/>
      <point x="340" y="266"/>
      <point x="356" y="266" type="curve" smooth="yes"/>
      <point x="370" y="266"/>
      <point x="391" y="192"/>
    </contour>
    <contour>
      <point x="331" y="3" type="curve" smooth="yes"/>
      <point x="344" y="4"/>
      <point x="348" y="4"/>
      <point x="348" y="2" type="curve" smooth="yes"/>
      <point x="348" y="1"/>
      <point x="346" y="-7"/>
      <point x="328" y="-26" type="curve" smooth="yes"/>
      <point x="246" y="-112"/>
      <point x="56" y="-278"/>
      <point x="-130" y="-423" type="curve"/>
      <point x="-130" y="-433"/>
      <point x="-124" y="-447"/>
      <point x="-117" y="-453" type="curve"/>
      <point x="107" y="-338"/>
      <point x="275" y="-246"/>
      <point x="418" y="-141" type="curve" smooth="yes"/>
      <point x="441" y="-124"/>
      <point x="475" y="-15"/>
      <point x="475" y="137" type="curve" smooth="yes"/>
      <point x="475" y="195"/>
      <point x="461" y="326"/>
      <point x="435" y="430" type="curve" smooth="yes"/>
      <point x="434" y="434"/>
      <point x="430" y="435"/>
      <point x="423" y="435" type="curve" smooth="yes"/>
      <point x="407" y="435"/>
      <point x="335" y="408"/>
      <point x="314" y="399" type="curve"/>
      <point x="262" y="359"/>
      <point x="109" y="197"/>
      <point x="64" y="133" type="curve"/>
      <point x="64" y="71"/>
      <point x="71" y="25"/>
      <point x="88" y="0" type="curve"/>
      <point x="112" y="0"/>
      <point x="165" y="0"/>
      <point x="189" y="0" type="curve" smooth="yes"/>
      <point x="251" y="0"/>
      <point x="269" y="0"/>
    </contour>
  </outline>
</glyph>
<glyph name="alefMaksura-ar" format="2">
  <advance width="766"/>
  <unicode hex="0649"/>
  <anchor x="596" y="-164" name="bottom"/>
  <anchor x="475" y="261" name="top"/>
  <outline>
    <contour>
      <point x="712" y="232" type="curve"/>
      <point x="739" y="255"/>
      <point x="770" y="304"/>
      <point x="770" y="358" type="curve"/>
      <point x="755" y="381"/>
      <point x="730" y="387"/>
      <point x="704" y="387" type="curve" smooth="yes"/>
      <point x="628" y="387"/>
      <point x="442" y="290"/>
      <point x="344" y="238" type="curve"/>
      <point x="344" y="204"/>
      <point x="352" y="128"/>
      <point x="372" y="96" type="curve"/>
      <point x="434" y="83"/>
      <point x="478" y="65"/>
      <point x="524" y="37" type="curve" smooth="yes"/>
      <point x="530" y="33"/>
      <point x="528" y="27"/>
      <point x="524" y="21" type="curve" smooth="yes"/>
      <point x="430" y="-109"/>
      <point x="302" y="-188"/>
      <point x="170" y="-188" type="curve" smooth="yes"/>
      <point x="54" y="-188"/>
      <point x="9" y="-132"/>
      <point x="9" y="-39" type="curve" smooth="yes"/>
      <point x="9" y="-28"/>
      <point x="10" y="-16"/>
      <point x="11" y="-3" type="curve"/>
      <point x="7" y="2"/>
      <point x="1" y="6"/>
      <point x="-8" y="6" type="curve" smooth="yes"/>
      <point x="-11" y="6"/>
      <point x="-14" y="6"/>
      <point x="-17" y="5" type="curve"/>
      <point x="-39" y="-46"/>
      <point x="-49" y="-94"/>
      <point x="-49" y="-137" type="curve" smooth="yes"/>
      <point x="-49" y="-250"/>
      <point x="24" y="-328"/>
      <point x="159" y="-328" type="curve" smooth="yes"/>
      <point x="355" y="-328"/>
      <point x="522" y="-172"/>
      <point x="618" y="-31" type="curve" smooth="yes"/>
      <point x="653" y="20"/>
      <point x="668" y="59"/>
      <point x="668" y="78" type="curve" smooth="yes"/>
      <point x="668" y="86"/>
      <point x="666" y="93"/>
      <point x="662" y="96" type="curve" smooth="yes"/>
      <point x="601" y="154"/>
      <point x="469" y="190"/>
      <point x="469" y="208" type="curve" smooth="yes"/>
      <point x="469" y="215"/>
      <point x="585" y="253"/>
      <point x="653" y="253" type="curve" smooth="yes"/>
      <point x="680" y="253"/>
      <point x="695" y="246"/>
    </contour>
  </outline>
</glyph>
<glyph name="fatha-ar" format="2">
  <unicode hex="064E"/>
  <anchor x="126" y="533" name="_top"/>
  <anchor x="125" y="604" name="top"/>
  <anchor x="-20" y="550" name="top_alef"/>
  <outline>
    <contour>
      <point x="22" y="606" type="line"/>
      <point x="22" y="584"/>
      <point x="24" y="561"/>
      <point x="36" y="561" type="curve" smooth="yes"/>
      <point x="228" y="561" type="line"/>
      <point x="228" y="573"/>
      <point x="225" y="606"/>
      <point x="213" y="606" type="curve" smooth="yes"/>
    </contour>
  </outline>
</glyph>
<glyph name="damma-ar" format="2">
  <unicode hex="064F"/>
  <anchor x="131" y="526" name="_top"/>
  <anchor x="124" y="726" name="top"/>
  <outline>
    <contour>
      <point x="166" y="695" type="curve" smooth="yes"/>
      <point x="171" y="678"/>
      <point x="178" y="642"/>
      <point x="178" y="620" type="curve" smooth="yes"/>
      <point x="178" y="609"/>
      <point x="176" y="601"/>
      <point x="172" y="601" type="curve" smooth="yes"/>
      <point x="26" y="601" type="line"/>
      <point x="26" y="576"/>
      <point x="29" y="556"/>
      <point x="39" y="556" type="curve" smooth="yes"/>
      <point x="190" y="556"/>
      <point x="199" y="556"/>
      <point x="212" y="556" type="curve"/>
      <point x="218" y="578"/>
      <point x="221" y="604"/>
      <point x="221" y="631" type="curve" smooth="yes"/>
      <point x="221" y="658"/>
      <point x="218" y="684"/>
      <point x="211" y="705" type="curve" smooth="yes"/>
      <point x="209" y="710"/>
      <point x="164" y="702"/>
    </contour>
  </outline>
</glyph>
<glyph name="shadda-ar" format="2">
  <unicode hex="0651"/>
  <anchor x="128" y="546" name="_top"/>
  <anchor x="119" y="736" name="top"/>
  <outline>
    <contour>
      <point x="41" y="587" type="curve" smooth="yes"/>
      <point x="42" y="579"/>
      <point x="45" y="576"/>
      <point x="64" y="576" type="curve" smooth="yes"/>
      <point x="208" y="576" type="line"/>
      <point x="211" y="606"/>
      <point x="213" y="626"/>
      <point x="213" y="646" type="curve" smooth="yes"/>
      <point x="213" y="669"/>
      <point x="211" y="692"/>
      <point x="207" y="715" type="curve"/>
      <point x="191" y="715"/>
      <point x="164" y="708"/>
      <point x="164" y="701" type="curve"/>
      <point x="171" y="681"/>
      <point x="177" y="654"/>
      <point x="177" y="636" type="curve" smooth="yes"/>
      <point x="177" y="621"/>
      <point x="177" y="621"/>
      <point x="159" y="621" type="curve" smooth="yes"/>
      <point x="148" y="621"/>
      <point x="144" y="623"/>
      <point x="144" y="629" type="curve" smooth="yes"/>
      <point x="144" y="664"/>
      <point x="142" y="685"/>
      <point x="137" y="715" type="curve"/>
      <point x="121" y="715"/>
      <point x="94" y="708"/>
      <point x="94" y="701" type="curve"/>
      <point x="102" y="682"/>
      <point x="109" y="660"/>
      <point x="109" y="636" type="curve" smooth="yes"/>
      <point x="109" y="622"/>
      <point x="110" y="621"/>
      <point x="89" y="621" type="curve" smooth="yes"/>
      <point x="77" y="621"/>
      <point x="74" y="623"/>
      <point x="72" y="644" type="curve" smooth="yes"/>
      <point x="70" y="664"/>
      <point x="69" y="679"/>
      <point x="63" y="715" type="curve"/>
      <point x="51" y="715"/>
      <point x="20" y="708"/>
      <point x="20" y="701" type="curve"/>
      <point x="33" y="665"/>
      <point x="36" y="642"/>
    </contour>
  </outline>
</glyph>
<glyph name="madda-ar" format="2">
  <unicode hex="0653"/>
  <anchor x="164" y="546" name="_top"/>
  <anchor x="166" y="723" name="top"/>
  <outline>
    <contour>
      <point x="102" y="566" type="curve" smooth="yes"/>
      <point x="120" y="566"/>
      <point x="140" y="570"/>
      <point x="157" y="579" type="curve"/>
      <point x="163" y="581"/>
      <point x="164" y="593"/>
      <point x="164" y="604" type="curve" smooth="yes"/>
      <point x="164" y="613"/>
      <point x="163" y="622"/>
      <point x="162" y="626" type="curve"/>
      <point x="147" y="616"/>
      <point x="126" y="610"/>
      <point x="108" y="610" type="curve" smooth="yes"/>
      <point x="85" y="610"/>
      <point x="66" y="619"/>
      <point x="66" y="638" type="curve" smooth="yes"/>
      <point x="66" y="651"/>
      <point x="78" y="664"/>
      <point x="104" y="664" type="curve" smooth="yes"/>
      <point x="145" y="664"/>
      <point x="212" y="593"/>
      <point x="270" y="593" type="curve" smooth="yes"/>
      <point x="297" y="593"/>
      <point x="311" y="624"/>
      <point x="311" y="649" type="curve" smooth="yes"/>
      <point x="311" y="672"/>
      <point x="299" y="694"/>
      <point x="274" y="694" type="curve" smooth="yes"/>
      <point x="260" y="694"/>
      <point x="240" y="681"/>
      <point x="237" y="656" type="curve"/>
      <point x="194" y="669"/>
      <point x="162" y="709"/>
      <point x="106" y="709" type="curve" smooth="yes"/>
      <point x="48" y="709"/>
      <point x="19" y="673"/>
      <point x="19" y="637" type="curve" smooth="yes"/>
      <point x="19" y="589"/>
      <point x="59" y="566"/>
    </contour>
  </outline>
</glyph>
<glyph name="dammainverted-ar" format="2">
  <unicode hex="0657"/>
  <anchor x="74" y="529" name="_top"/>
  <anchor x="81" y="760" name="top"/>
  <anchor x="-20" y="709" name="top_alef"/>
  <outline>
    <contour>
      <point x="46" y="654" type="curve"/>
      <point x="47" y="643"/>
      <point x="56" y="619"/>
      <point x="64" y="615" type="curve"/>
      <point x="66" y="618"/>
      <point x="73" y="621"/>
      <point x="80" y="621" type="curve" smooth="yes"/>
      <point x="92" y="621"/>
      <point x="99" y="613"/>
      <point x="99" y="605" type="curve" smooth="yes"/>
      <point x="99" y="596"/>
      <point x="91" y="587"/>
      <point x="76" y="587" type="curve" smooth="yes"/>
      <point x="56" y="587"/>
      <point x="37" y="602"/>
      <point x="37" y="630" type="curve" smooth="yes"/>
      <point x="37" y="690"/>
      <point x="109" y="712"/>
      <point x="192" y="708" type="curve"/>
      <point x="188" y="742"/>
      <point x="169" y="755"/>
      <point x="164" y="756" type="curve" smooth="yes"/>
      <point x="157" y="757"/>
      <point x="150" y="758"/>
      <point x="142" y="758" type="curve" smooth="yes"/>
      <point x="72" y="758"/>
      <point x="-13" y="710"/>
      <point x="-13" y="629" type="curve" smooth="yes"/>
      <point x="-13" y="577"/>
      <point x="22" y="536"/>
      <point x="74" y="536" type="curve" smooth="yes"/>
      <point x="125" y="536"/>
      <point x="150" y="571"/>
      <point x="150" y="605" type="curve" smooth="yes"/>
      <point x="150" y="636"/>
      <point x="128" y="669"/>
      <point x="84" y="669" type="curve" smooth="yes"/>
      <point x="71" y="669"/>
      <point x="56" y="664"/>
    </contour>
  </outline>
</glyph>
<glyph name="noonghunnaabove-ar" format="2">
  <unicode hex="0658"/>
  <anchor x="119" y="563" name="_top"/>
  <anchor x="120" y="774" name="top"/>
  <anchor x="-4" y="719" name="top_alef"/>
  <outline>
    <contour>
      <point x="28" y="650" type="curve" smooth="yes"/>
      <point x="28" y="590"/>
      <point x="65" y="571"/>
      <point x="104" y="571" type="curve" smooth="yes"/>
      <point x="179" y="571"/>
      <point x="224" y="631"/>
      <point x="224" y="673" type="curve" smooth="yes"/>
      <point x="224" y="697"/>
      <point x="218" y="727"/>
      <point x="209" y="750" type="curve" smooth="yes"/>
      <point x="206" y="757"/>
      <point x="203" y="759"/>
      <point x="200" y="759" type="curve" smooth="yes"/>
      <point x="195" y="759"/>
      <point x="169" y="743"/>
      <point x="160" y="737" type="curve"/>
      <point x="173" y="718"/>
      <point x="192" y="694"/>
      <point x="192" y="676" type="curve" smooth="yes"/>
      <point x="192" y="650"/>
      <point x="172" y="626"/>
      <point x="115" y="626" type="curve" smooth="yes"/>
      <point x="86" y="626"/>
      <point x="61" y="641"/>
      <point x="61" y="674" type="curve" smooth="yes"/>
      <point x="61" y="698"/>
      <point x="66" y="712"/>
      <point x="72" y="729" type="curve"/>
      <point x="71" y="733"/>
      <point x="61" y="737"/>
      <point x="58" y="737" type="curve"/>
      <point x="40" y="711"/>
      <point x="28" y="679"/>
    </contour>
  </outline>
</glyph>
<glyph name="vabove-ar" format="2">
  <unicode hex="065A"/>
  <anchor x="115" y="474" name="_top"/>
  <anchor x="115" y="670" name="top"/>
  <outline>
    <contour>
      <point x="5" y="623" type="curve"/>
      <point x="43" y="583"/>
      <point x="83" y="532"/>
      <point x="105" y="499" type="curve"/>
      <point x="114" y="498"/>
      <point x="118" y="498"/>
      <point x="128" y="499" type="curve"/>
      <point x="226" y="623" type="line"/>
      <point x="226" y="633"/>
      <point x="199" y="650"/>
      <point x="187" y="656" type="curve"/>
      <point x="117" y="561" type="line"/>
      <point x="46" y="656" type="line"/>
      <point x="38" y="656"/>
      <point x="5" y="636"/>
    </contour>
  </outline>
</glyph>
<glyph name="dotvowelbelow-ar" format="2">
  <unicode hex="065C"/>
  <anchor x="100" y="-44" name="_bottom"/>
  <anchor x="100" y="-280" name="bottom"/>
  <outline>
    <contour>
      <point x="100" y="-254" type="curve" smooth="yes"/>
      <point x="152" y="-254"/>
      <point x="193" y="-213"/>
      <point x="193" y="-165" type="curve" smooth="yes"/>
      <point x="193" y="-118"/>
      <point x="152" y="-77"/>
      <point x="100" y="-77" type="curve" smooth="yes"/>
      <point x="48" y="-77"/>
      <point x="7" y="-118"/>
      <point x="7" y="-165" type="curve" smooth="yes"/>
      <point x="7" y="-213"/>
      <point x="48" y="-254"/>
    </contour>
  </outline>
</glyph>
<glyph name="zero-ar" format="2">
  <advance width="367"/>
  <unicode hex="0660"/>
  <outline>
    <contour>
      <point x="181" y="230" type="curve"/>
      <point x="217" y="251"/>
      <point x="272" y="302"/>
      <point x="272" y="335" type="curve"/>
      <point x="252" y="375"/>
      <point x="223" y="406"/>
      <point x="187" y="431" type="curve"/>
      <point x="143" y="415"/>
      <point x="96" y="351"/>
      <point x="96" y="319" type="curve"/>
      <point x="128" y="289"/>
      <point x="149" y="266"/>
    </contour>
  </outline>
</glyph>
<glyph name="three-ar" format="2">
  <advance width="583"/>
  <unicode hex="0663"/>
  <outline>
    <contour>
      <point x="95" y="566" type="line"/>
      <point x="122" y="432"/>
      <point x="173" y="360"/>
      <point x="239" y="360" type="curve" smooth="yes"/>
      <point x="308" y="360"/>
      <point x="371" y="455"/>
      <point x="371" y="622" type="curve" smooth="yes"/>
      <point x="371" y="636"/>
      <point x="371" y="670"/>
      <point x="370" y="685" type="curve"/>
      <point x="353" y="691"/>
      <point x="323" y="693"/>
      <point x="310" y="693" type="curve"/>
      <point x="312" y="677"/>
      <point x="312" y="640"/>
      <point x="312" y="626" type="curve" smooth="yes"/>
      <point x="312" y="562"/>
      <point x="287" y="506"/>
      <point x="247" y="506" type="curve" smooth="yes"/>
      <point x="205" y="506"/>
      <point x="156" y="557"/>
      <point x="117" y="661" type="curve"/>
    </contour>
    <contour>
      <point x="320" y="536" type="line"/>
      <point x="351" y="442"/>
      <point x="390" y="385"/>
      <point x="446" y="385" type="curve" smooth="yes"/>
      <point x="515" y="385"/>
      <point x="578" y="473"/>
      <point x="578" y="607" type="curve" smooth="yes"/>
      <point x="578" y="620"/>
      <point x="578" y="654"/>
      <point x="577" y="668" type="curve"/>
      <point x="566" y="678"/>
      <point x="539" y="686"/>
      <point x="524" y="686" type="curve"/>
      <point x="525" y="677"/>
      <point x="525" y="670"/>
      <point x="525" y="659" type="curve" smooth="yes"/>
      <point x="525" y="590"/>
      <point x="502" y="532"/>
      <point x="456" y="532" type="curve" smooth="yes"/>
      <point x="406" y="532"/>
      <point x="382" y="581"/>
      <point x="370" y="685" type="curve"/>
    </contour>
    <contour>
      <point x="98" y="-15" type="curve"/>
      <point x="113" y="-15"/>
      <point x="138" y="-4"/>
      <point x="148" y="13" type="curve"/>
      <point x="160" y="109"/>
      <point x="166" y="204"/>
      <point x="166" y="297" type="curve" smooth="yes"/>
      <point x="166" y="427"/>
      <point x="156" y="575"/>
      <point x="117" y="661" type="curve"/>
      <point x="100" y="661"/>
      <point x="34" y="618"/>
      <point x="5" y="570" type="curve"/>
      <point x="60" y="448"/>
      <point x="100" y="270"/>
    </contour>
  </outline>
</glyph>
<glyph name="six-ar" format="2">
  <advance width="532"/>
  <unicode hex="0666"/>
  <outline>
    <contour>
      <point x="415" y="610" type="line"/>
      <point x="333" y="541" type="line"/>
      <point x="299" y="423"/>
      <point x="292" y="291"/>
      <point x="292" y="153" type="curve" smooth="yes"/>
      <point x="292" y="99"/>
      <point x="295" y="36"/>
      <point x="301" y="-15" type="curve"/>
      <point x="320" y="-11"/>
      <point x="343" y="-1"/>
      <point x="353" y="16" type="curve"/>
      <point x="354" y="26"/>
      <point x="354" y="37"/>
      <point x="355" y="47" type="curve" smooth="yes"/>
      <point x="371" y="251"/>
      <point x="410" y="438"/>
      <point x="497" y="612" type="curve"/>
    </contour>
    <contour>
      <point x="101" y="674" type="curve"/>
      <point x="80" y="674" type="line"/>
      <point x="47" y="618"/>
      <point x="35" y="562"/>
      <point x="35" y="517" type="curve"/>
      <point x="75" y="477"/>
      <point x="135" y="458"/>
      <point x="200" y="458" type="curve" smooth="yes"/>
      <point x="309" y="458"/>
      <point x="431" y="512"/>
      <point x="497" y="612" type="curve"/>
      <point x="487" y="631"/>
      <point x="452" y="667"/>
      <point x="446" y="667" type="curve"/>
      <point x="396" y="598"/>
      <point x="335" y="583"/>
      <point x="274" y="583" type="curve" smooth="yes"/>
      <point x="207" y="583"/>
      <point x="157" y="606"/>
    </contour>
  </outline>
</glyph>
<glyph name="nine-ar" format="2">
  <advance width="412"/>
  <unicode hex="0669"/>
  <outline>
    <contour>
      <point x="279" y="532" type="line"/>
      <point x="259" y="410"/>
      <point x="213" y="353"/>
      <point x="162" y="353" type="curve" smooth="yes"/>
      <point x="128" y="353"/>
      <point x="108" y="378"/>
      <point x="108" y="417" type="curve" smooth="yes"/>
      <point x="108" y="476"/>
      <point x="154" y="562"/>
      <point x="258" y="583" type="curve"/>
      <point x="171" y="583" type="line"/>
      <point x="251" y="558"/>
      <point x="301" y="406"/>
      <point x="301" y="274" type="curve" smooth="yes"/>
      <point x="301" y="190"/>
      <point x="292" y="94"/>
      <point x="281" y="-6" type="curve"/>
      <point x="296" y="-2"/>
      <point x="323" y="9"/>
      <point x="333" y="26" type="curve"/>
      <point x="362" y="126"/>
      <point x="397" y="272"/>
      <point x="397" y="403" type="curve" smooth="yes"/>
      <point x="397" y="518"/>
      <point x="362" y="619"/>
      <point x="298" y="680" type="curve"/>
      <point x="140" y="673"/>
      <point x="28" y="498"/>
      <point x="28" y="347" type="curve" smooth="yes"/>
      <point x="28" y="260"/>
      <point x="75" y="213"/>
      <point x="130" y="213" type="curve" smooth="yes"/>
      <point x="210" y="213"/>
      <point x="299" y="288"/>
      <point x="306" y="482" type="curve"/>
    </contour>
  </outline>
</glyph>
<glyph name="asterisk-ar" format="2">
  <advance width="399"/>
  <unicode hex="066D"/>
  <outline>
    <contour>
      <point x="248" y="452" type="curve"/>
      <point x="278" y="451"/>
      <point x="328" y="460"/>
      <point x="348" y="464" type="curve"/>
      <point x="370" y="523" type="line"/>
      <point x="316" y="559" type="line"/>
      <point x="298" y="550"/>
      <point x="255" y="527"/>
      <point x="230" y="509" type="curve"/>
      <point x="239" y="538"/>
      <point x="246" y="587"/>
      <point x="248" y="607" type="curve"/>
      <point x="199" y="648" type="line"/>
      <point x="148" y="608" type="line"/>
      <point x="151" y="588"/>
      <point x="159" y="540"/>
      <point x="168" y="510" type="curve"/>
      <point x="143" y="528"/>
      <point x="100" y="551"/>
      <point x="82" y="560" type="curve"/>
      <point x="28" y="524" type="line"/>
      <point x="52" y="464" type="line"/>
      <point x="72" y="460"/>
      <point x="121" y="451"/>
      <point x="151" y="452" type="curve"/>
      <point x="126" y="434"/>
      <point x="91" y="401"/>
      <point x="77" y="386" type="curve"/>
      <point x="95" y="324" type="line"/>
      <point x="159" y="327" type="line"/>
      <point x="168" y="345"/>
      <point x="193" y="389"/>
      <point x="200" y="418" type="curve"/>
      <point x="207" y="389"/>
      <point x="232" y="345"/>
      <point x="241" y="327" type="curve"/>
      <point x="305" y="324" type="line"/>
      <point x="323" y="386" type="line"/>
      <point x="310" y="401"/>
      <point x="273" y="434"/>
    </contour>
  </outline>
</glyph>
<glyph name="behDotless-ar" format="2">
  <advance width="542"/>
  <unicode hex="066E"/>
  <anchor x="284" y="-30" name="bottom"/>
  <anchor x="255" y="350" name="top"/>
  <outline>
    <contour>
      <point x="40" y="140" type="curve"/>
      <point x="29" y="140"/>
      <point x="25" y="123"/>
      <point x="25" y="110" type="curve" smooth="yes"/>
      <point x="25" y="76"/>
      <point x="40" y="21"/>
      <point x="51" y="0" type="curve"/>
      <point x="91" y="0"/>
      <point x="272" y="-3"/>
      <point x="365" y="-1" type="curve" smooth="yes"/>
      <point x="459" y="2"/>
      <point x="487" y="84"/>
      <point x="487" y="186" type="curve" smooth="yes"/>
      <point x="487" y="237"/>
      <point x="479" y="291"/>
      <point x="467" y="332" type="curve" smooth="yes"/>
      <point x="465" y="339"/>
      <point x="461" y="345"/>
      <point x="449" y="345" type="curve"/>
      <point x="418" y="328"/>
      <point x="381" y="301"/>
      <point x="351" y="278" type="curve"/>
      <point x="378" y="249"/>
      <point x="412" y="204"/>
      <point x="412" y="169" type="curve" smooth="yes"/>
      <point x="412" y="159"/>
      <point x="408" y="140"/>
      <point x="392" y="140" type="curve" smooth="yes"/>
      <point x="309" y="140"/>
      <point x="146" y="140"/>
    </contour>
  </outline>
</glyph>
<glyph name="qafDotless-ar" format="2">
  <advance width="770"/>
  <unicode hex="066F"/>
  <anchor x="504" y="-311" name="bottom"/>
  <anchor x="353" y="374" name="top"/>
  <outline>
    <contour>
      <point x="604" y="165" type="curve" smooth="yes"/>
      <point x="604" y="150"/>
      <point x="599" y="141"/>
      <point x="575" y="141" type="curve" smooth="yes"/>
      <point x="493" y="141"/>
      <point x="453" y="141"/>
      <point x="453" y="154" type="curve" smooth="yes"/>
      <point x="453" y="157"/>
      <point x="455" y="161"/>
      <point x="458" y="166" type="curve" smooth="yes"/>
      <point x="486" y="212"/>
      <point x="555" y="271"/>
      <point x="571" y="271" type="curve" smooth="yes"/>
      <point x="585" y="271"/>
      <point x="604" y="197"/>
    </contour>
    <contour>
      <point x="685" y="-77" type="curve" smooth="yes"/>
      <point x="694" y="-30"/>
      <point x="700" y="38"/>
      <point x="700" y="114" type="curve" smooth="yes"/>
      <point x="700" y="221"/>
      <point x="688" y="345"/>
      <point x="654" y="451" type="curve" smooth="yes"/>
      <point x="653" y="455"/>
      <point x="648" y="456"/>
      <point x="641" y="456" type="curve" smooth="yes"/>
      <point x="621" y="456"/>
      <point x="580" y="443"/>
      <point x="544" y="427" type="curve"/>
      <point x="502" y="397"/>
      <point x="332" y="232"/>
      <point x="275" y="158" type="curve"/>
      <point x="277" y="126"/>
      <point x="285" y="47"/>
      <point x="297" y="20" type="curve"/>
      <point x="347" y="8"/>
      <point x="405" y="1"/>
      <point x="577" y="1" type="curve" smooth="yes"/>
      <point x="584" y="1"/>
      <point x="587" y="-4"/>
      <point x="587" y="-13" type="curve" smooth="yes"/>
      <point x="587" y="-22"/>
      <point x="584" y="-35"/>
      <point x="578" y="-52" type="curve" smooth="yes"/>
      <point x="568" y="-81"/>
      <point x="389" y="-218"/>
      <point x="211" y="-218" type="curve" smooth="yes"/>
      <point x="72" y="-218"/>
      <point x="22" y="-171"/>
      <point x="22" y="-88" type="curve" smooth="yes"/>
      <point x="22" y="-72"/>
      <point x="24" y="-54"/>
      <point x="27" y="-36" type="curve"/>
      <point x="22" y="-27"/>
      <point x="13" y="-24"/>
      <point x="4" y="-24" type="curve" smooth="yes"/>
      <point x="1" y="-24"/>
      <point x="-2" y="-24"/>
      <point x="-5" y="-25" type="curve"/>
      <point x="-28" y="-76"/>
      <point x="-40" y="-126"/>
      <point x="-40" y="-171" type="curve" smooth="yes"/>
      <point x="-40" y="-279"/>
      <point x="29" y="-358"/>
      <point x="172" y="-358" type="curve" smooth="yes"/>
      <point x="392" y="-358"/>
      <point x="666" y="-175"/>
    </contour>
  </outline>
</glyph>
<glyph name="fehDotless-ar" format="2">
  <advance width="544"/>
  <unicode hex="06A1"/>
  <anchor x="304" y="-30" name="bottom"/>
  <anchor x="174" y="550" name="top"/>
  <outline>
    <contour>
      <point x="449" y="574" type="curve" smooth="yes"/>
      <point x="445" y="606"/>
      <point x="440" y="617"/>
      <point x="426" y="617" type="curve" smooth="yes"/>
      <point x="411" y="617"/>
      <point x="342" y="596"/>
      <point x="319" y="584" type="curve"/>
      <point x="239" y="529"/>
      <point x="122" y="433"/>
      <point x="60" y="373" type="curve"/>
      <point x="61" y="343"/>
      <point x="70" y="280"/>
      <point x="89" y="245" type="curve"/>
      <point x="184" y="210"/>
      <point x="321" y="185"/>
      <point x="362" y="179" type="curve" smooth="yes"/>
      <point x="393" y="174"/>
      <point x="394" y="167"/>
      <point x="394" y="158" type="curve" smooth="yes"/>
      <point x="394" y="141"/>
      <point x="390" y="140"/>
      <point x="343" y="140" type="curve" smooth="yes"/>
      <point x="263" y="140"/>
      <point x="158" y="140"/>
      <point x="80" y="140" type="curve" smooth="yes"/>
      <point x="55" y="140"/>
      <point x="50" y="132"/>
      <point x="50" y="112" type="curve" smooth="yes"/>
      <point x="50" y="82"/>
      <point x="62" y="34"/>
      <point x="83" y="0" type="curve"/>
      <point x="340" y="0" type="line" smooth="yes"/>
      <point x="444" y="0"/>
      <point x="477" y="10"/>
      <point x="477" y="207" type="curve" smooth="yes"/>
      <point x="477" y="322"/>
      <point x="458" y="494"/>
    </contour>
    <contour>
      <point x="229" y="345" type="curve"/>
      <point x="225" y="347"/>
      <point x="225" y="347"/>
      <point x="228" y="350" type="curve"/>
      <point x="262" y="388"/>
      <point x="334" y="442"/>
      <point x="350" y="443" type="curve" smooth="yes"/>
      <point x="365" y="443"/>
      <point x="387" y="379"/>
      <point x="387" y="323" type="curve" smooth="yes"/>
      <point x="387" y="314"/>
      <point x="384" y="309"/>
      <point x="377" y="309" type="curve" smooth="yes"/>
      <point x="350" y="308"/>
      <point x="276" y="323"/>
    </contour>
  </outline>
</glyph>
<glyph name="keheh-ar" format="2">
  <advance width="851"/>
  <unicode hex="06A9"/>
  <anchor x="429" y="-40" name="bottom"/>
  <anchor x="189" y="467" name="top"/>
  <outline>
    <contour>
      <point x="106" y="0" type="curve"/>
      <point x="678" y="0" type="line" smooth="yes"/>
      <point x="757" y="0"/>
      <point x="776" y="112"/>
      <point x="776" y="183" type="curve" smooth="yes"/>
      <point x="776" y="321"/>
      <point x="762" y="349"/>
      <point x="681" y="349" type="curve" smooth="yes"/>
      <point x="531" y="349"/>
      <point x="444" y="348"/>
      <point x="401" y="348" type="curve" smooth="yes"/>
      <point x="375" y="348"/>
      <point x="358" y="349"/>
      <point x="358" y="355" type="curve" smooth="yes"/>
      <point x="358" y="359"/>
      <point x="362" y="364"/>
      <point x="369" y="372" type="curve" smooth="yes"/>
      <point x="451" y="468"/>
      <point x="523" y="527"/>
      <point x="648" y="654" type="curve"/>
      <point x="648" y="664"/>
      <point x="642" y="678"/>
      <point x="635" y="684" type="curve"/>
      <point x="389" y="534"/>
      <point x="221" y="433"/>
      <point x="91" y="327" type="curve"/>
      <point x="91" y="288"/>
      <point x="119" y="207"/>
      <point x="148" y="207" type="curve" smooth="yes"/>
      <point x="296" y="208"/>
      <point x="494" y="211"/>
      <point x="640" y="211" type="curve" smooth="yes"/>
      <point x="684" y="211"/>
      <point x="697" y="207"/>
      <point x="697" y="175" type="curve" smooth="yes"/>
      <point x="697" y="151"/>
      <point x="694" y="140"/>
      <point x="657" y="140" type="curve" smooth="yes"/>
      <point x="102" y="140" type="line" smooth="yes"/>
      <point x="78" y="140"/>
      <point x="73" y="132"/>
      <point x="73" y="112" type="curve" smooth="yes"/>
      <point x="73" y="82"/>
      <point x="85" y="34"/>
    </contour>
  </outline>
</glyph>
<glyph name="noonghunna-ar" format="2">
  <advance width="866"/>
  <unicode hex="06BA"/>
  <anchor x="427" y="-270" name="bottom"/>
  <anchor x="401" y="227" name="top"/>
  <outline>
    <contour>
      <point x="26" y="-175"/>
      <point x="131" y="-224"/>
      <point x="247" y="-224" type="curve" smooth="yes"/>
      <point x="492" y="-224"/>
      <point x="809" y="-52"/>
      <point x="809" y="57" type="curve" smooth="yes"/>
      <point x="809" y="158"/>
      <point x="784" y="225"/>
      <point x="765" y="283" type="curve" smooth="yes"/>
      <point x="760" y="297"/>
      <point x="756" y="305"/>
      <point x="743" y="305" type="curve"/>
      <point x="725" y="296"/>
      <point x="668" y="255"/>
      <point x="648" y="238" type="curve"/>
      <point x="707" y="171"/>
      <point x="726" y="131"/>
      <point x="726" y="101" type="curve" smooth="yes"/>
      <point x="726" y="35"/>
      <point x="499" y="-84"/>
      <point x="298" y="-84" type="curve" smooth="yes"/>
      <point x="182" y="-84"/>
      <point x="119" y="-53"/>
      <point x="119" y="46" type="curve" smooth="yes"/>
      <point x="119" y="86"/>
      <point x="127" y="137"/>
      <point x="148" y="202" type="curve"/>
      <point x="146" y="210"/>
      <point x="133" y="217"/>
      <point x="124" y="218" type="curve"/>
      <point x="65" y="142"/>
      <point x="26" y="53"/>
      <point x="26" y="-41" type="curve" smooth="yes"/>
    </contour>
  </outline>
</glyph>
<glyph name="yehbarree-ar" format="2">
  <advance width="478"/>
  <unicode hex="06D2"/>
  <anchor x="166" y="-50" name="bottom"/>
  <anchor x="336" y="503" name="top"/>
  <outline>
    <contour>
      <point x="381" y="-207" type="curve" smooth="yes"/>
      <point x="384" y="-181"/>
      <point x="387" y="-137"/>
      <point x="387" y="-116" type="curve" smooth="yes"/>
      <point x="387" y="120"/>
      <point x="189" y="121"/>
      <point x="189" y="135" type="curve" smooth="yes"/>
      <point x="189" y="146"/>
      <point x="389" y="129"/>
      <point x="389" y="394" type="curve" smooth="yes"/>
      <point x="389" y="418"/>
      <point x="387" y="464"/>
      <point x="384" y="492" type="curve"/>
      <point x="357" y="492"/>
      <point x="330" y="483"/>
      <point x="330" y="464" type="curve" smooth="yes"/>
      <point x="332" y="320"/>
      <point x="254" y="256"/>
      <point x="67" y="256" type="curve"/>
      <point x="62" y="235"/>
      <point x="60" y="211"/>
      <point x="60" y="138" type="curve" smooth="yes"/>
      <point x="60" y="68"/>
      <point x="70" y="16"/>
      <point x="84" y="11" type="curve"/>
      <point x="255" y="10"/>
      <point x="332" y="-62"/>
      <point x="333" y="-230" type="curve"/>
      <point x="344" y="-230"/>
      <point x="379" y="-220"/>
    </contour>
  </outline>
</glyph>
<glyph name="endofayah-ar" format="2">
  <advance width="1388"/>
  <unicode hex="06DD"/>
  <outline>
    <contour>
      <point x="946" y="605" type="line"/>
      <point x="962" y="650" type="line"/>
      <point x="701" y="847" type="line" smooth="yes"/>
      <point x="698" y="849"/>
      <point x="695" y="850"/>
      <point x="693" y="850" type="curve" smooth="yes"/>
      <point x="690" y="850"/>
      <point x="688" y="850"/>
      <point x="684" y="847" type="curve" smooth="yes"/>
      <point x="420" y="650" type="line"/>
      <point x="436" y="604" type="line"/>
      <point x="693" y="797" type="line"/>
    </contour>
    <contour>
      <point x="805" y="573" type="line"/>
      <point x="834" y="564" type="line"/>
      <point x="834" y="728" type="line"/>
      <point x="805" y="746" type="line"/>
    </contour>
    <contour>
      <point x="692" y="-126" type="curve" smooth="yes"/>
      <point x="607" y="-126"/>
      <point x="523" y="-90"/>
      <point x="446" y="-17" type="curve" smooth="yes"/>
      <point x="200" y="215" type="line"/>
      <point x="446" y="447" type="line" smooth="yes"/>
      <point x="523" y="519"/>
      <point x="607" y="556"/>
      <point x="692" y="556" type="curve" smooth="yes"/>
      <point x="775" y="556"/>
      <point x="859" y="520"/>
      <point x="936" y="447" type="curve" smooth="yes"/>
      <point x="1182" y="215" type="line"/>
      <point x="936" y="-17" type="line" smooth="yes"/>
      <point x="859" y="-89"/>
      <point x="776" y="-126"/>
    </contour>
    <contour>
      <point x="861" y="545" type="line"/>
      <point x="896" y="531" type="line"/>
      <point x="896" y="681" type="line"/>
      <point x="861" y="699" type="line"/>
    </contour>
    <contour>
      <point x="742" y="588" type="line"/>
      <point x="777" y="584" type="line"/>
      <point x="777" y="773" type="line"/>
      <point x="742" y="792" type="line"/>
    </contour>
    <contour>
      <point x="676" y="593" type="line"/>
      <point x="711" y="592" type="line"/>
      <point x="711" y="827" type="line"/>
      <point x="676" y="827" type="line"/>
    </contour>
    <contour>
      <point x="610" y="585" type="line"/>
      <point x="645" y="590" type="line"/>
      <point x="645" y="793" type="line"/>
      <point x="610" y="775" type="line"/>
    </contour>
    <contour>
      <point x="546" y="565" type="line"/>
      <point x="581" y="575" type="line"/>
      <point x="581" y="748" type="line"/>
      <point x="546" y="728" type="line"/>
    </contour>
    <contour>
      <point x="486" y="534" type="line"/>
      <point x="521" y="549" type="line"/>
      <point x="521" y="702" type="line"/>
      <point x="486" y="685" type="line"/>
    </contour>
    <contour>
      <point x="132" y="215" type="line"/>
      <point x="413" y="-49" type="line"/>
      <point x="487" y="-123"/>
      <point x="585" y="-176"/>
      <point x="692" y="-176" type="curve" smooth="yes"/>
      <point x="801" y="-176"/>
      <point x="905" y="-111"/>
      <point x="969" y="-49" type="curve"/>
      <point x="1250" y="215" type="line"/>
      <point x="969" y="479" type="line"/>
      <point x="905" y="541"/>
      <point x="801" y="606"/>
      <point x="692" y="606" type="curve" smooth="yes"/>
      <point x="585" y="606"/>
      <point x="487" y="553"/>
      <point x="413" y="479" type="curve"/>
    </contour>
    <contour>
      <point x="946" y="-173" type="line"/>
      <point x="693" y="-365" type="line"/>
      <point x="436" y="-172" type="line"/>
      <point x="420" y="-218" type="line"/>
      <point x="684" y="-415" type="line" smooth="yes"/>
      <point x="688" y="-418"/>
      <point x="690" y="-418"/>
      <point x="693" y="-418" type="curve" smooth="yes"/>
      <point x="695" y="-418"/>
      <point x="698" y="-417"/>
      <point x="701" y="-415" type="curve" smooth="yes"/>
      <point x="962" y="-218" type="line"/>
    </contour>
    <contour>
      <point x="50" y="227" type="line"/>
      <point x="50" y="203" type="line"/>
      <point x="442" y="-160" type="line"/>
      <point x="439" y="-135" type="line"/>
      <point x="407" y="-218"/>
      <point x="342" y="-253"/>
      <point x="281" y="-253" type="curve" smooth="yes"/>
      <point x="222" y="-253"/>
      <point x="177" y="-216"/>
      <point x="177" y="-170" type="curve" smooth="yes"/>
      <point x="177" y="-114"/>
      <point x="220" y="-91"/>
      <point x="265" y="-91" type="curve" smooth="yes"/>
      <point x="297" y="-91"/>
      <point x="328" y="-109"/>
      <point x="328" y="-146" type="curve" smooth="yes"/>
      <point x="328" y="-182"/>
      <point x="299" y="-193"/>
      <point x="282" y="-193" type="curve" smooth="yes"/>
      <point x="267" y="-193"/>
      <point x="250" y="-186"/>
      <point x="250" y="-170" type="curve" smooth="yes"/>
      <point x="250" y="-158"/>
      <point x="261" y="-148"/>
      <point x="279" y="-147" type="curve"/>
      <point x="282" y="-114" type="line"/>
      <point x="236" y="-114"/>
      <point x="215" y="-141"/>
      <point x="215" y="-169" type="curve" smooth="yes"/>
      <point x="215" y="-198"/>
      <point x="238" y="-228"/>
      <point x="280" y="-228" type="curve" smooth="yes"/>
      <point x="333" y="-228"/>
      <point x="363" y="-191"/>
      <point x="363" y="-145" type="curve" smooth="yes"/>
      <point x="363" y="-97"/>
      <point x="324" y="-56"/>
      <point x="266" y="-56" type="curve" smooth="yes"/>
      <point x="193" y="-56"/>
      <point x="142" y="-101"/>
      <point x="142" y="-167" type="curve" smooth="yes"/>
      <point x="142" y="-236"/>
      <point x="202" y="-288"/>
      <point x="282" y="-288" type="curve" smooth="yes"/>
      <point x="402" y="-288"/>
      <point x="467" y="-178"/>
      <point x="473" y="-142" type="curve"/>
      <point x="92" y="215" type="line"/>
      <point x="473" y="572" type="line"/>
      <point x="467" y="608"/>
      <point x="402" y="718"/>
      <point x="282" y="718" type="curve" smooth="yes"/>
      <point x="202" y="718"/>
      <point x="142" y="666"/>
      <point x="142" y="597" type="curve" smooth="yes"/>
      <point x="142" y="531"/>
      <point x="193" y="486"/>
      <point x="266" y="486" type="curve" smooth="yes"/>
      <point x="324" y="486"/>
      <point x="363" y="527"/>
      <point x="363" y="575" type="curve" smooth="yes"/>
      <point x="363" y="621"/>
      <point x="333" y="658"/>
      <point x="280" y="658" type="curve" smooth="yes"/>
      <point x="238" y="658"/>
      <point x="215" y="628"/>
      <point x="215" y="599" type="curve" smooth="yes"/>
      <point x="215" y="571"/>
      <point x="236" y="544"/>
      <point x="282" y="544" type="curve"/>
      <point x="279" y="577" type="line"/>
      <point x="261" y="578"/>
      <point x="250" y="588"/>
      <point x="250" y="600" type="curve" smooth="yes"/>
      <point x="250" y="616"/>
      <point x="267" y="623"/>
      <point x="282" y="623" type="curve" smooth="yes"/>
      <point x="299" y="623"/>
      <point x="328" y="612"/>
      <point x="328" y="576" type="curve" smooth="yes"/>
      <point x="328" y="539"/>
      <point x="297" y="521"/>
      <point x="265" y="521" type="curve" smooth="yes"/>
      <point x="220" y="521"/>
      <point x="177" y="544"/>
      <point x="177" y="600" type="curve" smooth="yes"/>
      <point x="177" y="646"/>
      <point x="222" y="683"/>
      <point x="281" y="683" type="curve" smooth="yes"/>
      <point x="342" y="683"/>
      <point x="407" y="648"/>
      <point x="439" y="565" type="curve"/>
      <point x="442" y="590" type="line"/>
    </contour>
    <contour>
      <point x="1332" y="227" type="line"/>
      <point x="940" y="590" type="line"/>
      <point x="943" y="565" type="line"/>
      <point x="975" y="648"/>
      <point x="1040" y="683"/>
      <point x="1101" y="683" type="curve" smooth="yes"/>
      <point x="1160" y="683"/>
      <point x="1205" y="646"/>
      <point x="1205" y="600" type="curve" smooth="yes"/>
      <point x="1205" y="544"/>
      <point x="1162" y="521"/>
      <point x="1117" y="521" type="curve" smooth="yes"/>
      <point x="1085" y="521"/>
      <point x="1054" y="539"/>
      <point x="1054" y="576" type="curve" smooth="yes"/>
      <point x="1054" y="612"/>
      <point x="1083" y="623"/>
      <point x="1100" y="623" type="curve" smooth="yes"/>
      <point x="1115" y="623"/>
      <point x="1132" y="616"/>
      <point x="1132" y="600" type="curve" smooth="yes"/>
      <point x="1132" y="588"/>
      <point x="1121" y="578"/>
      <point x="1103" y="577" type="curve"/>
      <point x="1100" y="544" type="line"/>
      <point x="1146" y="544"/>
      <point x="1167" y="571"/>
      <point x="1167" y="599" type="curve" smooth="yes"/>
      <point x="1167" y="628"/>
      <point x="1144" y="658"/>
      <point x="1102" y="658" type="curve" smooth="yes"/>
      <point x="1049" y="658"/>
      <point x="1019" y="621"/>
      <point x="1019" y="575" type="curve" smooth="yes"/>
      <point x="1019" y="527"/>
      <point x="1058" y="486"/>
      <point x="1116" y="486" type="curve" smooth="yes"/>
      <point x="1189" y="486"/>
      <point x="1240" y="531"/>
      <point x="1240" y="597" type="curve" smooth="yes"/>
      <point x="1240" y="666"/>
      <point x="1180" y="718"/>
      <point x="1100" y="718" type="curve" smooth="yes"/>
      <point x="980" y="718"/>
      <point x="915" y="608"/>
      <point x="909" y="572" type="curve"/>
      <point x="1290" y="215" type="line"/>
      <point x="909" y="-142" type="line"/>
      <point x="915" y="-178"/>
      <point x="980" y="-288"/>
      <point x="1100" y="-288" type="curve" smooth="yes"/>
      <point x="1180" y="-288"/>
      <point x="1240" y="-236"/>
      <point x="1240" y="-167" type="curve" smooth="yes"/>
      <point x="1240" y="-101"/>
      <point x="1189" y="-56"/>
      <point x="1116" y="-56" type="curve" smooth="yes"/>
      <point x="1058" y="-56"/>
      <point x="1019" y="-97"/>
      <point x="1019" y="-145" type="curve" smooth="yes"/>
      <point x="1019" y="-191"/>
      <point x="1049" y="-228"/>
      <point x="1102" y="-228" type="curve" smooth="yes"/>
      <point x="1144" y="-228"/>
      <point x="1167" y="-198"/>
      <point x="1167" y="-169" type="curve" smooth="yes"/>
      <point x="1167" y="-141"/>
      <point x="1146" y="-114"/>
      <point x="1100" y="-114" type="curve"/>
      <point x="1103" y="-147" type="line"/>
      <point x="1121" y="-148"/>
      <point x="1132" y="-158"/>
      <point x="1132" y="-170" type="curve" smooth="yes"/>
      <point x="1132" y="-186"/>
      <point x="1115" y="-193"/>
      <point x="1100" y="-193" type="curve" smooth="yes"/>
      <point x="1083" y="-193"/>
      <point x="1054" y="-182"/>
      <point x="1054" y="-146" type="curve" smooth="yes"/>
      <point x="1054" y="-109"/>
      <point x="1085" y="-91"/>
      <point x="1117" y="-91" type="curve" smooth="yes"/>
      <point x="1162" y="-91"/>
      <point x="1205" y="-114"/>
      <point x="1205" y="-170" type="curve" smooth="yes"/>
      <point x="1205" y="-216"/>
      <point x="1160" y="-253"/>
      <point x="1101" y="-253" type="curve" smooth="yes"/>
      <point x="1040" y="-253"/>
      <point x="975" y="-218"/>
      <point x="943" y="-135" type="curve"/>
      <point x="940" y="-160" type="line"/>
      <point x="1332" y="203" type="line"/>
    </contour>
    <contour>
      <point x="801" y="-143" type="line"/>
      <point x="801" y="-316" type="line"/>
      <point x="832" y="-298" type="line"/>
      <point x="832" y="-134" type="line"/>
    </contour>
    <contour>
      <point x="863" y="-115" type="line"/>
      <point x="863" y="-269" type="line"/>
      <point x="894" y="-251" type="line"/>
      <point x="894" y="-101" type="line"/>
    </contour>
    <contour>
      <point x="740" y="-158" type="line"/>
      <point x="740" y="-362" type="line"/>
      <point x="771" y="-343" type="line"/>
      <point x="771" y="-154" type="line"/>
    </contour>
    <contour>
      <point x="678" y="-163" type="line"/>
      <point x="678" y="-397" type="line"/>
      <point x="709" y="-397" type="line"/>
      <point x="709" y="-162" type="line"/>
    </contour>
    <contour>
      <point x="616" y="-155" type="line"/>
      <point x="616" y="-345" type="line"/>
      <point x="647" y="-363" type="line"/>
      <point x="647" y="-160" type="line"/>
    </contour>
    <contour>
      <point x="554" y="-135" type="line"/>
      <point x="554" y="-298" type="line"/>
      <point x="585" y="-318" type="line"/>
      <point x="585" y="-145" type="line"/>
    </contour>
    <contour>
      <point x="492" y="-104" type="line"/>
      <point x="492" y="-255" type="line"/>
      <point x="523" y="-272" type="line"/>
      <point x="523" y="-119" type="line"/>
    </contour>
    <contour>
      <point x="174" y="-50" type="curve" smooth="yes"/>
      <point x="143" y="-50"/>
      <point x="120" y="-27"/>
      <point x="120" y="4" type="curve" smooth="yes"/>
      <point x="120" y="34"/>
      <point x="143" y="58"/>
      <point x="174" y="58" type="curve" smooth="yes"/>
      <point x="204" y="58"/>
      <point x="228" y="34"/>
      <point x="228" y="4" type="curve" smooth="yes"/>
      <point x="228" y="-27"/>
      <point x="204" y="-50"/>
    </contour>
    <contour>
      <point x="173" y="-87" type="curve" smooth="yes"/>
      <point x="223" y="-87"/>
      <point x="263" y="-46"/>
      <point x="263" y="3" type="curve" smooth="yes"/>
      <point x="263" y="53"/>
      <point x="223" y="94"/>
      <point x="173" y="94" type="curve" smooth="yes"/>
      <point x="124" y="94"/>
      <point x="83" y="53"/>
      <point x="83" y="3" type="curve" smooth="yes"/>
      <point x="83" y="-46"/>
      <point x="124" y="-87"/>
    </contour>
    <contour>
      <point x="174" y="480" type="curve" smooth="yes"/>
      <point x="204" y="480"/>
      <point x="228" y="457"/>
      <point x="228" y="426" type="curve" smooth="yes"/>
      <point x="228" y="396"/>
      <point x="204" y="372"/>
      <point x="174" y="372" type="curve" smooth="yes"/>
      <point x="143" y="372"/>
      <point x="120" y="396"/>
      <point x="120" y="426" type="curve" smooth="yes"/>
      <point x="120" y="457"/>
      <point x="143" y="480"/>
    </contour>
    <contour>
      <point x="173" y="517" type="curve" smooth="yes"/>
      <point x="124" y="517"/>
      <point x="83" y="476"/>
      <point x="83" y="427" type="curve" smooth="yes"/>
      <point x="83" y="377"/>
      <point x="124" y="336"/>
      <point x="173" y="336" type="curve" smooth="yes"/>
      <point x="223" y="336"/>
      <point x="263" y="377"/>
      <point x="263" y="427" type="curve" smooth="yes"/>
      <point x="263" y="476"/>
      <point x="223" y="517"/>
    </contour>
    <contour>
      <point x="1208" y="480" type="curve" smooth="yes"/>
      <point x="1239" y="480"/>
      <point x="1262" y="457"/>
      <point x="1262" y="426" type="curve" smooth="yes"/>
      <point x="1262" y="396"/>
      <point x="1239" y="372"/>
      <point x="1208" y="372" type="curve" smooth="yes"/>
      <point x="1178" y="372"/>
      <point x="1154" y="396"/>
      <point x="1154" y="426" type="curve" smooth="yes"/>
      <point x="1154" y="457"/>
      <point x="1178" y="480"/>
    </contour>
    <contour>
      <point x="1209" y="517" type="curve" smooth="yes"/>
      <point x="1159" y="517"/>
      <point x="1119" y="476"/>
      <point x="1119" y="427" type="curve" smooth="yes"/>
      <point x="1119" y="377"/>
      <point x="1159" y="336"/>
      <point x="1209" y="336" type="curve" smooth="yes"/>
      <point x="1258" y="336"/>
      <point x="1299" y="377"/>
      <point x="1299" y="427" type="curve" smooth="yes"/>
      <point x="1299" y="476"/>
      <point x="1258" y="517"/>
    </contour>
    <contour>
      <point x="1208" y="-50" type="curve" smooth="yes"/>
      <point x="1178" y="-50"/>
      <point x="1154" y="-27"/>
      <point x="1154" y="4" type="curve" smooth="yes"/>
      <point x="1154" y="34"/>
      <point x="1178" y="58"/>
      <point x="1208" y="58" type="curve" smooth="yes"/>
      <point x="1239" y="58"/>
      <point x="1262" y="34"/>
      <point x="1262" y="4" type="curve" smooth="yes"/>
      <point x="1262" y="-27"/>
      <point x="1239" y="-50"/>
    </contour>
    <contour>
      <point x="1209" y="-87" type="curve" smooth="yes"/>
      <point x="1258" y="-87"/>
      <point x="1299" y="-46"/>
      <point x="1299" y="3" type="curve" smooth="yes"/>
      <point x="1299" y="53"/>
      <point x="1258" y="94"/>
      <point x="1209" y="94" type="curve" smooth="yes"/>
      <point x="1159" y="94"/>
      <point x="1119" y="53"/>
      <point x="1119" y="3" type="curve" smooth="yes"/>
      <point x="1119" y="-46"/>
      <point x="1159" y="-87"/>
    </contour>
  </outline>
</glyph>
<glyph name="yehabove-ar" format="2">
  <unicode hex="06E7"/>
  <anchor x="-146" y="46" name="_top"/>
  <anchor x="-57" y="341" name="top"/>
  <outline>
    <contour>
      <point x="-39" y="16" type="curve"/>
      <point x="-37" y="28"/>
      <point x="-36" y="50"/>
      <point x="-36" y="59" type="curve" smooth="yes"/>
      <point x="-36" y="154"/>
      <point x="-112" y="152"/>
      <point x="-112" y="158" type="curve"/>
      <point x="-112" y="163"/>
      <point x="-35" y="172"/>
      <point x="-35" y="256" type="curve" smooth="yes"/>
      <point x="-35" y="268"/>
      <point x="-36" y="293"/>
      <point x="-37" y="307" type="curve" smooth="yes"/>
      <point x="-45" y="307"/>
      <point x="-69" y="302"/>
      <point x="-68" y="293" type="curve"/>
      <point x="-67" y="222"/>
      <point x="-97" y="199"/>
      <point x="-177" y="205" type="curve"/>
      <point x="-181" y="195"/>
      <point x="-182" y="184"/>
      <point x="-182" y="162" type="curve" smooth="yes"/>
      <point x="-182" y="138"/>
      <point x="-175" y="106"/>
      <point x="-169" y="106" type="curve" smooth="yes"/>
      <point x="-76" y="104"/>
      <point x="-67" y="73"/>
      <point x="-67" y="-1" type="curve" smooth="yes"/>
      <point x="-61" y="-1"/>
      <point x="-40" y="9"/>
    </contour>
  </outline>
</glyph>
<glyph name="endash" format="2">
  <advance width="547"/>
  <unicode hex="2013"/>
  <outline>
    <contour>
      <point x="479" y="290" type="line"/>
      <point x="68" y="290" type="line"/>
      <point x="68" y="207" type="line"/>
      <point x="479" y="207" type="line"/>
    </contour>
  </outline>
</glyph>
<glyph name="emdash" format="2">
  <advance width="826"/>
  <unicode hex="2014"/>
  <outline>
    <contour>
      <point x="758" y="290" type="line"/>
      <point x="68" y="290" type="line"/>
      <point x="68" y="207" type="line"/>
      <point x="758" y="207" type="line"/>
    </contour>
  </outline>
</glyph>
<glyph name="Ohm" format="2">
  <advance width="786"/>
  <unicode hex="2126"/>
  <outline>
    <contour>
      <point x="36" y="0" type="curve"/>
      <point x="94" y="3"/>
      <point x="135" y="3"/>
      <point x="193" y="3" type="curve" smooth="yes"/>
      <point x="240" y="3"/>
      <point x="290" y="2"/>
      <point x="363" y="0" type="curve"/>
      <point x="363" y="60" type="line"/>
      <point x="281" y="142"/>
      <point x="222" y="259"/>
      <point x="222" y="386" type="curve" smooth="yes"/>
      <point x="222" y="506"/>
      <point x="291" y="603"/>
      <point x="393" y="603" type="curve" smooth="yes"/>
      <point x="495" y="603"/>
      <point x="564" y="506"/>
      <point x="564" y="386" type="curve" smooth="yes"/>
      <point x="564" y="259"/>
      <point x="505" y="142"/>
      <point x="423" y="60" type="curve"/>
      <point x="423" y="0" type="line"/>
      <point x="496" y="2"/>
      <point x="546" y="3"/>
      <point x="593" y="3" type="curve" smooth="yes"/>
      <point x="651" y="3"/>
      <point x="692" y="3"/>
      <point x="750" y="0" type="curve"/>
      <point x="741" y="81"/>
      <point x="739" y="127"/>
      <point x="739" y="189" type="curve"/>
      <point x="674" y="189" type="line"/>
      <point x="648" y="81" type="line"/>
      <point x="604" y="69"/>
      <point x="545" y="63"/>
      <point x="518" y="61" type="curve"/>
      <point x="600" y="119"/>
      <point x="702" y="249"/>
      <point x="702" y="378" type="curve" smooth="yes"/>
      <point x="702" y="524"/>
      <point x="577" y="670"/>
      <point x="393" y="670" type="curve" smooth="yes"/>
      <point x="209" y="670"/>
      <point x="84" y="524"/>
      <point x="84" y="378" type="curve" smooth="yes"/>
      <point x="84" y="249"/>
      <point x="186" y="119"/>
      <point x="268" y="61" type="curve"/>
      <point x="231" y="63"/>
      <point x="179" y="68"/>
      <point x="138" y="81" type="curve"/>
      <point x="112" y="189" type="line"/>
      <point x="47" y="189" type="line"/>
      <point x="47" y="127"/>
      <point x="45" y="81"/>
    </contour>
  </outline>
</glyph>
<glyph name="partialdiff" format="2">
  <advance width="532"/>
  <unicode hex="2202"/>
  <outline>
    <contour>
      <point x="367" y="336" type="curve" smooth="yes"/>
      <point x="367" y="125"/>
      <point x="353" y="45"/>
      <point x="283" y="45" type="curve" smooth="yes"/>
      <point x="216" y="45"/>
      <point x="187" y="129"/>
      <point x="187" y="213" type="curve" smooth="yes"/>
      <point x="187" y="294"/>
      <point x="216" y="375"/>
      <point x="276" y="375" type="curve" smooth="yes"/>
      <point x="328" y="375"/>
      <point x="365" y="307"/>
      <point x="365" y="227" type="curve"/>
      <point x="421" y="321" type="line"/>
      <point x="408" y="389"/>
      <point x="349" y="435"/>
      <point x="275" y="435" type="curve" smooth="yes"/>
      <point x="121" y="435"/>
      <point x="47" y="327"/>
      <point x="47" y="218" type="curve" smooth="yes"/>
      <point x="47" y="107"/>
      <point x="123" y="-5"/>
      <point x="278" y="-5" type="curve" smooth="yes"/>
      <point x="401" y="-5"/>
      <point x="509" y="83"/>
      <point x="509" y="338" type="curve" smooth="yes"/>
      <point x="509" y="617"/>
      <point x="393" y="729"/>
      <point x="269" y="729" type="curve" smooth="yes"/>
      <point x="181" y="729"/>
      <point x="90" y="672"/>
      <point x="33" y="579" type="curve"/>
      <point x="61" y="561" type="line"/>
      <point x="126" y="637"/>
      <point x="173" y="661"/>
      <point x="229" y="661" type="curve" smooth="yes"/>
      <point x="317" y="661"/>
      <point x="367" y="545"/>
    </contour>
  </outline>
</glyph>
<glyph name="product" format="2">
  <advance width="773"/>
  <unicode hex="220F"/>
  <outline>
    <contour>
      <point x="742" y="660" type="line"/>
      <point x="706" y="658"/>
      <point x="649" y="655"/>
      <point x="596" y="655" type="curve" smooth="yes"/>
      <point x="534" y="655"/>
      <point x="241" y="655"/>
      <point x="188" y="655" type="curve" smooth="yes"/>
      <point x="126" y="655"/>
      <point x="74" y="657"/>
      <point x="32" y="660" type="curve"/>
      <point x="20" y="621" type="line"/>
      <point x="108" y="597" type="line"/>
      <point x="111" y="504"/>
      <point x="112" y="428"/>
      <point x="112" y="359" type="curve" smooth="yes"/>
      <point x="112" y="259"/>
      <point x="110" y="172"/>
      <point x="108" y="59" type="curve"/>
      <point x="20" y="38" type="line"/>
      <point x="33" y="0" type="line"/>
      <point x="74" y="1"/>
      <point x="122" y="3"/>
      <point x="183" y="3" type="curve" smooth="yes"/>
      <point x="248" y="3"/>
      <point x="299" y="2"/>
      <point x="335" y="0" type="curve"/>
      <point x="346" y="38" type="line"/>
      <point x="258" y="59" type="line"/>
      <point x="256" y="132"/>
      <point x="256" y="194"/>
      <point x="256" y="325" type="curve" smooth="yes"/>
      <point x="256" y="356"/>
      <point x="257" y="455"/>
      <point x="258" y="597" type="curve"/>
      <point x="300" y="604"/>
      <point x="349" y="608"/>
      <point x="396" y="608" type="curve" smooth="yes"/>
      <point x="439" y="608"/>
      <point x="480" y="605"/>
      <point x="515" y="597" type="curve"/>
      <point x="518" y="501"/>
      <point x="520" y="425"/>
      <point x="520" y="354" type="curve" smooth="yes"/>
      <point x="520" y="258"/>
      <point x="517" y="172"/>
      <point x="515" y="59" type="curve"/>
      <point x="427" y="38" type="line"/>
      <point x="440" y="0" type="line"/>
      <point x="481" y="1"/>
      <point x="530" y="3"/>
      <point x="592" y="3" type="curve" smooth="yes"/>
      <point x="655" y="3"/>
      <point x="706" y="2"/>
      <point x="742" y="0" type="curve"/>
      <point x="753" y="38" type="line"/>
      <point x="665" y="59" type="line"/>
      <point x="664" y="124"/>
      <point x="663" y="180"/>
      <point x="663" y="234" type="curve" smooth="yes"/>
      <point x="663" y="343"/>
      <point x="665" y="445"/>
      <point x="665" y="597" type="curve"/>
      <point x="753" y="621" type="line"/>
    </contour>
  </outline>
</glyph>
<glyph name="summation" format="2">
  <advance width="570"/>
  <unicode hex="2211"/>
  <outline>
    <contour>
      <point x="526" y="660" type="curve"/>
      <point x="476" y="657"/>
      <point x="290" y="655"/>
      <point x="242" y="655" type="curve" smooth="yes"/>
      <point x="153" y="655"/>
      <point x="107" y="657"/>
      <point x="41" y="660" type="curve"/>
      <point x="27" y="624" type="line"/>
      <point x="111" y="508"/>
      <point x="175" y="410"/>
      <point x="232" y="316" type="curve"/>
      <point x="182" y="239"/>
      <point x="95" y="117"/>
      <point x="20" y="31" type="curve"/>
      <point x="34" y="0" type="line"/>
      <point x="107" y="2"/>
      <point x="221" y="3"/>
      <point x="298" y="3" type="curve" smooth="yes"/>
      <point x="328" y="3"/>
      <point x="475" y="4"/>
      <point x="535" y="1" type="curve"/>
      <point x="526" y="82"/>
      <point x="524" y="158"/>
      <point x="524" y="220" type="curve"/>
      <point x="459" y="220" type="line"/>
      <point x="433" y="89" type="line"/>
      <point x="409" y="77"/>
      <point x="346" y="69"/>
      <point x="282" y="69" type="curve" smooth="yes"/>
      <point x="228" y="69"/>
      <point x="175" y="70"/>
      <point x="145" y="73" type="curve"/>
      <point x="203" y="163"/>
      <point x="291" y="292"/>
      <point x="355" y="368" type="curve"/>
      <point x="293" y="447"/>
      <point x="254" y="503"/>
      <point x="202" y="591" type="curve"/>
      <point x="216" y="593"/>
      <point x="234" y="593"/>
      <point x="254" y="593" type="curve" smooth="yes"/>
      <point x="318" y="593"/>
      <point x="398" y="585"/>
      <point x="424" y="572" type="curve"/>
      <point x="450" y="441" type="line"/>
      <point x="515" y="441" type="line"/>
      <point x="515" y="503"/>
      <point x="517" y="579"/>
    </contour>
  </outline>
</glyph>
<glyph name="dottedCircle" format="2">
  <advance width="521"/>
  <unicode hex="25CC"/>
  <anchor x="262" y="-9" name="bottom"/>
  <anchor x="261" y="442" name="top"/>
  <outline>
    <contour>
      <point x="261" y="52" type="curve" smooth="yes"/>
      <point x="252" y="52"/>
      <point x="244" y="50"/>
      <point x="235" y="47" type="curve"/>
      <point x="232" y="39"/>
      <point x="231" y="30"/>
      <point x="231" y="22" type="curve" smooth="yes"/>
      <point x="231" y="13"/>
      <point x="232" y="5"/>
      <point x="235" y="-4" type="curve"/>
      <point x="244" y="-7"/>
      <point x="252" y="-9"/>
      <point x="261" y="-9" type="curve" smooth="yes"/>
      <point x="268" y="-9"/>
      <point x="277" y="-7"/>
      <point x="286" y="-4" type="curve"/>
      <point x="289" y="5"/>
      <point x="290" y="13"/>
      <point x="290" y="22" type="curve" smooth="yes"/>
      <point x="290" y="30"/>
      <point x="289" y="39"/>
      <point x="286" y="47" type="curve"/>
      <point x="277" y="50"/>
      <point x="268" y="52"/>
    </contour>
    <contour>
      <point x="261" y="442" type="curve" smooth="yes"/>
      <point x="252" y="442"/>
      <point x="244" y="440"/>
      <point x="235" y="437" type="curve"/>
      <point x="232" y="429"/>
      <point x="231" y="420"/>
      <point x="231" y="412" type="curve" smooth="yes"/>
      <point x="231" y="403"/>
      <point x="232" y="395"/>
      <point x="235" y="386" type="curve"/>
      <point x="244" y="383"/>
      <point x="252" y="381"/>
      <point x="261" y="381" type="curve" smooth="yes"/>
      <point x="268" y="381"/>
      <point x="277" y="383"/>
      <point x="286" y="386" type="curve"/>
      <point x="289" y="395"/>
      <point x="290" y="403"/>
      <point x="290" y="412" type="curve" smooth="yes"/>
      <point x="290" y="420"/>
      <point x="289" y="429"/>
      <point x="286" y="437" type="curve"/>
      <point x="277" y="440"/>
      <point x="268" y="442"/>
    </contour>
    <contour>
      <point x="66" y="246" type="curve" smooth="yes"/>
      <point x="57" y="246"/>
      <point x="49" y="245"/>
      <point x="40" y="242" type="curve"/>
      <point x="37" y="233"/>
      <point x="35" y="225"/>
      <point x="35" y="216" type="curve" smooth="yes"/>
      <point x="35" y="209"/>
      <point x="37" y="200"/>
      <point x="40" y="191" type="curve"/>
      <point x="49" y="188"/>
      <point x="57" y="187"/>
      <point x="66" y="187" type="curve" smooth="yes"/>
      <point x="74" y="187"/>
      <point x="83" y="188"/>
      <point x="91" y="191" type="curve"/>
      <point x="94" y="200"/>
      <point x="96" y="209"/>
      <point x="96" y="216" type="curve" smooth="yes"/>
      <point x="96" y="225"/>
      <point x="94" y="233"/>
      <point x="91" y="242" type="curve"/>
      <point x="83" y="245"/>
      <point x="74" y="246"/>
    </contour>
    <contour>
      <point x="198" y="57" type="curve"/>
      <point x="186" y="71"/>
      <point x="173" y="80"/>
      <point x="154" y="82" type="curve"/>
      <point x="142" y="73"/>
      <point x="131" y="53"/>
      <point x="128" y="38" type="curve"/>
      <point x="142" y="22"/>
      <point x="151" y="18"/>
      <point x="172" y="13" type="curve"/>
      <point x="186" y="25"/>
      <point x="194" y="38"/>
    </contour>
    <contour>
      <point x="393" y="395" type="curve"/>
      <point x="379" y="412"/>
      <point x="370" y="415"/>
      <point x="349" y="420" type="curve"/>
      <point x="341" y="413"/>
      <point x="328" y="398"/>
      <point x="323" y="376" type="curve"/>
      <point x="335" y="362"/>
      <point x="349" y="353"/>
      <point x="367" y="351" type="curve"/>
      <point x="381" y="363"/>
      <point x="389" y="377"/>
    </contour>
    <contour>
      <point x="101" y="154" type="curve"/>
      <point x="82" y="149"/>
      <point x="68" y="141"/>
      <point x="57" y="128" type="curve"/>
      <point x="62" y="107"/>
      <point x="65" y="98"/>
      <point x="82" y="84" type="curve"/>
      <point x="97" y="87"/>
      <point x="117" y="98"/>
      <point x="126" y="110" type="curve"/>
      <point x="124" y="128"/>
      <point x="115" y="142"/>
    </contour>
    <contour>
      <point x="464" y="305" type="curve"/>
      <point x="459" y="326"/>
      <point x="455" y="335"/>
      <point x="439" y="349" type="curve"/>
      <point x="421" y="345"/>
      <point x="407" y="337"/>
      <point x="395" y="323" type="curve"/>
      <point x="397" y="304"/>
      <point x="406" y="291"/>
      <point x="420" y="279" type="curve"/>
      <point x="442" y="284"/>
      <point x="457" y="297"/>
    </contour>
    <contour>
      <point x="456" y="246" type="curve" smooth="yes"/>
      <point x="447" y="246"/>
      <point x="439" y="245"/>
      <point x="430" y="242" type="curve"/>
      <point x="427" y="233"/>
      <point x="425" y="225"/>
      <point x="425" y="216" type="curve" smooth="yes"/>
      <point x="425" y="209"/>
      <point x="427" y="200"/>
      <point x="430" y="191" type="curve"/>
      <point x="439" y="188"/>
      <point x="447" y="187"/>
      <point x="456" y="187" type="curve" smooth="yes"/>
      <point x="464" y="187"/>
      <point x="473" y="188"/>
      <point x="481" y="191" type="curve"/>
      <point x="484" y="200"/>
      <point x="486" y="209"/>
      <point x="486" y="216" type="curve" smooth="yes"/>
      <point x="486" y="225"/>
      <point x="484" y="233"/>
      <point x="481" y="242" type="curve"/>
      <point x="473" y="245"/>
      <point x="464" y="246"/>
    </contour>
    <contour>
      <point x="126" y="323" type="curve"/>
      <point x="117" y="335"/>
      <point x="97" y="346"/>
      <point x="82" y="349" type="curve"/>
      <point x="66" y="335"/>
      <point x="62" y="326"/>
      <point x="57" y="305" type="curve"/>
      <point x="69" y="292"/>
      <point x="82" y="284"/>
      <point x="101" y="279" type="curve"/>
      <point x="115" y="291"/>
      <point x="124" y="304"/>
    </contour>
    <contour>
      <point x="464" y="128" type="curve"/>
      <point x="457" y="136"/>
      <point x="442" y="149"/>
      <point x="420" y="154" type="curve"/>
      <point x="406" y="142"/>
      <point x="397" y="128"/>
      <point x="395" y="110" type="curve"/>
      <point x="407" y="96"/>
      <point x="421" y="88"/>
      <point x="439" y="84" type="curve"/>
      <point x="456" y="98"/>
      <point x="459" y="107"/>
    </contour>
    <contour>
      <point x="367" y="82" type="curve"/>
      <point x="349" y="80"/>
      <point x="335" y="71"/>
      <point x="323" y="57" type="curve"/>
      <point x="328" y="38"/>
      <point x="336" y="24"/>
      <point x="349" y="13" type="curve"/>
      <point x="369" y="19"/>
      <point x="378" y="23"/>
      <point x="393" y="38" type="curve"/>
      <point x="390" y="53"/>
      <point x="379" y="73"/>
    </contour>
    <contour>
      <point x="172" y="420" type="curve"/>
      <point x="151" y="415"/>
      <point x="142" y="411"/>
      <point x="128" y="395" type="curve"/>
      <point x="132" y="377"/>
      <point x="140" y="363"/>
      <point x="154" y="351" type="curve"/>
      <point x="173" y="353"/>
      <point x="186" y="362"/>
      <point x="198" y="376" type="curve"/>
      <point x="193" y="398"/>
      <point x="180" y="413"/>
    </contour>
  </outline>
</glyph>
<glyph name="parenleft-ar" format="2">
  <advance width="1000"/>
  <unicode hex="FD3E"/>
  <outline>
    <contour>
      <point x="337" y="-117" type="line"/>
      <point x="651" y="145" type="line"/>
      <point x="337" y="409" type="line"/>
      <point x="25" y="145" type="line"/>
    </contour>
    <contour>
      <point x="336" y="-71" type="line"/>
      <point x="81" y="146" type="line"/>
      <point x="336" y="363" type="line"/>
      <point x="595" y="146" type="line"/>
    </contour>
    <contour>
      <point x="335" y="17" type="line"/>
      <point x="181" y="146" type="line"/>
      <point x="335" y="275" type="line"/>
      <point x="489" y="146" type="line"/>
    </contour>
    <contour>
      <point x="335" y="-33" type="line"/>
      <point x="552" y="147" type="line"/>
      <point x="335" y="325" type="line"/>
      <point x="123" y="146" type="line"/>
    </contour>
    <contour>
      <point x="335" y="68" type="curve" smooth="yes"/>
      <point x="378" y="68"/>
      <point x="414" y="103"/>
      <point x="414" y="147" type="curve" smooth="yes"/>
      <point x="414" y="190"/>
      <point x="378" y="225"/>
      <point x="335" y="225" type="curve" smooth="yes"/>
      <point x="292" y="225"/>
      <point x="256" y="190"/>
      <point x="256" y="147" type="curve" smooth="yes"/>
      <point x="256" y="103"/>
      <point x="292" y="68"/>
    </contour>
    <contour>
      <point x="335" y="101" type="curve" smooth="yes"/>
      <point x="311" y="101"/>
      <point x="289" y="122"/>
      <point x="289" y="147" type="curve" smooth="yes"/>
      <point x="289" y="172"/>
      <point x="310" y="192"/>
      <point x="335" y="192" type="curve" smooth="yes"/>
      <point x="360" y="192"/>
      <point x="381" y="172"/>
      <point x="381" y="147" type="curve" smooth="yes"/>
      <point x="381" y="121"/>
      <point x="360" y="101"/>
    </contour>
    <contour>
      <point x="875" y="743" type="line"/>
      <point x="855" y="777" type="line"/>
      <point x="498" y="334" type="line"/>
      <point x="521" y="339" type="line"/>
      <point x="411" y="402"/>
      <point x="349" y="474"/>
      <point x="349" y="546" type="curve" smooth="yes"/>
      <point x="349" y="633"/>
      <point x="407" y="674"/>
      <point x="466" y="674" type="curve" smooth="yes"/>
      <point x="523" y="674"/>
      <point x="577" y="635"/>
      <point x="577" y="563" type="curve" smooth="yes"/>
      <point x="577" y="511"/>
      <point x="540" y="486"/>
      <point x="501" y="486" type="curve" smooth="yes"/>
      <point x="465" y="486"/>
      <point x="433" y="507"/>
      <point x="433" y="550" type="curve" smooth="yes"/>
      <point x="433" y="576"/>
      <point x="447" y="589"/>
      <point x="464" y="589" type="curve" smooth="yes"/>
      <point x="484" y="589"/>
      <point x="496" y="575"/>
      <point x="496" y="547" type="curve"/>
      <point x="531" y="547" type="line"/>
      <point x="531" y="599"/>
      <point x="498" y="625"/>
      <point x="465" y="625" type="curve" smooth="yes"/>
      <point x="431" y="625"/>
      <point x="398" y="599"/>
      <point x="398" y="550" type="curve" smooth="yes"/>
      <point x="398" y="485"/>
      <point x="449" y="451"/>
      <point x="501" y="451" type="curve" smooth="yes"/>
      <point x="556" y="451"/>
      <point x="612" y="489"/>
      <point x="612" y="564" type="curve" smooth="yes"/>
      <point x="612" y="658"/>
      <point x="540" y="709"/>
      <point x="466" y="709" type="curve" smooth="yes"/>
      <point x="391" y="709"/>
      <point x="314" y="655"/>
      <point x="314" y="546" type="curve" smooth="yes"/>
      <point x="314" y="460"/>
      <point x="375" y="379"/>
      <point x="517" y="302" type="curve"/>
    </contour>
    <contour>
      <point x="875" y="-451" type="line"/>
      <point x="517" y="-10" type="line"/>
      <point x="375" y="-87"/>
      <point x="314" y="-168"/>
      <point x="314" y="-254" type="curve" smooth="yes"/>
      <point x="314" y="-363"/>
      <point x="391" y="-417"/>
      <point x="466" y="-417" type="curve" smooth="yes"/>
      <point x="540" y="-417"/>
      <point x="612" y="-366"/>
      <point x="612" y="-272" type="curve" smooth="yes"/>
      <point x="612" y="-197"/>
      <point x="556" y="-159"/>
      <point x="501" y="-159" type="curve" smooth="yes"/>
      <point x="449" y="-159"/>
      <point x="398" y="-193"/>
      <point x="398" y="-258" type="curve" smooth="yes"/>
      <point x="398" y="-307"/>
      <point x="431" y="-333"/>
      <point x="465" y="-333" type="curve" smooth="yes"/>
      <point x="498" y="-333"/>
      <point x="531" y="-307"/>
      <point x="531" y="-255" type="curve"/>
      <point x="496" y="-255" type="line"/>
      <point x="496" y="-283"/>
      <point x="484" y="-297"/>
      <point x="464" y="-297" type="curve" smooth="yes"/>
      <point x="447" y="-297"/>
      <point x="433" y="-284"/>
      <point x="433" y="-258" type="curve" smooth="yes"/>
      <point x="433" y="-215"/>
      <point x="465" y="-194"/>
      <point x="501" y="-194" type="curve" smooth="yes"/>
      <point x="540" y="-194"/>
      <point x="577" y="-219"/>
      <point x="577" y="-271" type="curve" smooth="yes"/>
      <point x="577" y="-343"/>
      <point x="523" y="-382"/>
      <point x="466" y="-382" type="curve" smooth="yes"/>
      <point x="407" y="-382"/>
      <point x="349" y="-341"/>
      <point x="349" y="-254" type="curve" smooth="yes"/>
      <point x="349" y="-182"/>
      <point x="411" y="-110"/>
      <point x="521" y="-47" type="curve"/>
      <point x="498" y="-42" type="line"/>
      <point x="855" y="-485" type="line"/>
    </contour>
    <contour>
      <point x="909" y="689" type="line"/>
      <point x="890" y="719" type="line"/>
      <point x="504" y="243" type="line"/>
      <point x="531" y="221" type="line"/>
    </contour>
    <contour>
      <point x="945" y="634" type="line"/>
      <point x="926" y="663" type="line"/>
      <point x="557" y="202" type="line"/>
      <point x="584" y="178" type="line"/>
    </contour>
    <contour>
      <point x="909" y="-397" type="line"/>
      <point x="531" y="71" type="line"/>
      <point x="504" y="49" type="line"/>
      <point x="890" y="-427" type="line"/>
    </contour>
    <contour>
      <point x="945" y="-342" type="line"/>
      <point x="584" y="114" type="line"/>
      <point x="557" y="90" type="line"/>
      <point x="926" y="-371" type="line"/>
    </contour>
  </outline>
</glyph>
<glyph name="bismillah-ar" format="2">
  <advance width="6799"/>
  <unicode hex="FDFD"/>
  <outline>
    <component base="seen-ar.medi" xOffset="5831"/>
    <component base="meem-ar.fina" xOffset="5400"/>
    <component base="dotbelow-ar" xOffset="6457" yOffset="-50"/>
    <component base="lam-ar.init" xOffset="3817"/>
    <component base="reh-ar.fina" xOffset="3507"/>
    <component base="hah-ar.init" xOffset="2963"/>
    <component base="meem-ar.medi" xOffset="2553"/>
    <component base="yeh-ar.medi" xOffset="500"/>
    <component base="lam-ar.init" xOffset="1740"/>
    <component base="meem-ar.fina" xOffset="20"/>
    <component base="shadda-ar" xOffset="1483" yOffset="-174"/>
    <component base="shadda-ar" xOffset="4724" yOffset="10"/>
    <component base="shadda-ar" xOffset="3565" yOffset="-174"/>
    <component base="fatha-ar" xOffset="1471" yOffset="9"/>
    <component base="fatha-ar" xOffset="2678" yOffset="-52"/>
    <component base="fatha-ar" xOffset="4712" yOffset="196"/>
    <component base="fatha-ar" xOffset="5554" yOffset="-662"/>
    <component base="fatha-ar" xOffset="1077" yOffset="-662"/>
    <component base="fatha-ar" xOffset="6441" yOffset="-867"/>
    <component base="fatha-ar" xOffset="4452" yOffset="-662"/>
    <component base="fatha-ar" xOffset="5153" yOffset="-619"/>
    <component base="fatha-ar" xOffset="3549" yOffset="6"/>
    <component base="fatha-ar" xOffset="162" yOffset="-662"/>
    <component base="sukun-ar" xOffset="6033" yOffset="-187"/>
    <component base="sukun-ar" xOffset="3154" yOffset="-153"/>
    <component base="alef-ar.high" xScale="0.89" xOffset="2517" yOffset="19"/>
    <component base="fatha-ar" xOffset="2482" yOffset="-662"/>
    <component base="reh-ar.fina" xOffset="1410"/>
    <component base="fatha-ar" xOffset="4051" yOffset="-616"/>
    <component base="fatha-ar" xOffset="1963" yOffset="-616"/>
    <component base="alef-ar" yScale="0.97" xOffset="1985" yOffset="17"/>
    <component base="alef-ar" yScale="0.97" xOffset="4060" yOffset="17"/>
    <component base="alef-ar" yScale="0.97" xOffset="5172" yOffset="14"/>
    <contour>
      <point x="1130" y="-684" type="curve" smooth="yes"/>
      <point x="1791" y="-684"/>
      <point x="2517" y="0"/>
      <point x="2526" y="0" type="curve" smooth="yes"/>
      <point x="2575" y="0" type="line"/>
      <point x="2575" y="140" type="line"/>
      <point x="2507" y="140" type="line" smooth="yes"/>
      <point x="2500" y="140"/>
      <point x="2494" y="210"/>
      <point x="2466" y="279" type="curve" smooth="yes"/>
      <point x="2459" y="297"/>
      <point x="2458" y="305"/>
      <point x="2444" y="305" type="curve"/>
      <point x="2432" y="302"/>
      <point x="2371" y="256"/>
      <point x="2348" y="238" type="curve"/>
      <point x="2380" y="192"/>
      <point x="2423" y="139"/>
      <point x="2423" y="92" type="curve" smooth="yes"/>
      <point x="2423" y="67"/>
      <point x="1743" y="-544"/>
      <point x="1153" y="-544" type="curve" smooth="yes"/>
      <point x="1011" y="-544"/>
      <point x="967" y="-487"/>
      <point x="967" y="-429" type="curve" smooth="yes"/>
      <point x="967" y="-384"/>
      <point x="993" y="-331"/>
      <point x="1039" y="-293" type="curve"/>
      <point x="1041" y="-285"/>
      <point x="1028" y="-267"/>
      <point x="1023" y="-264" type="curve"/>
      <point x="920" y="-324"/>
      <point x="868" y="-414"/>
      <point x="868" y="-494" type="curve" smooth="yes"/>
      <point x="868" y="-591"/>
      <point x="936" y="-684"/>
    </contour>
    <contour>
      <point x="1370" y="171" type="curve" smooth="yes"/>
      <point x="1370" y="144"/>
      <point x="1364" y="140"/>
      <point x="1354" y="140" type="curve" smooth="yes"/>
      <point x="750" y="140" type="line"/>
      <point x="750" y="0" type="line"/>
      <point x="1504" y="0" type="line" smooth="yes"/>
      <point x="1510" y="0"/>
      <point x="1516" y="2"/>
      <point x="1516" y="19" type="curve" smooth="yes"/>
      <point x="1516" y="65"/>
      <point x="1494" y="118"/>
      <point x="1482" y="140" type="curve"/>
      <point x="1472" y="140" type="line" smooth="yes"/>
      <point x="1462" y="140"/>
      <point x="1451" y="143"/>
      <point x="1448" y="156" type="curve" smooth="yes"/>
      <point x="1409" y="342"/>
      <point x="1393" y="393"/>
      <point x="1364" y="393" type="curve" smooth="yes"/>
      <point x="1303" y="393"/>
      <point x="1173" y="353"/>
      <point x="1061" y="353" type="curve" smooth="yes"/>
      <point x="1011" y="353"/>
      <point x="987" y="356"/>
      <point x="968" y="359" type="curve"/>
      <point x="968" y="286"/>
      <point x="984" y="207"/>
      <point x="1067" y="207" type="curve" smooth="yes"/>
      <point x="1155" y="207"/>
      <point x="1255" y="250"/>
      <point x="1330" y="250" type="curve" smooth="yes"/>
      <point x="1353" y="250"/>
      <point x="1370" y="193"/>
    </contour>
    <contour>
      <point x="6469" y="0" type="line"/>
      <point x="6630" y="0" type="line" smooth="yes"/>
      <point x="6724" y="0"/>
      <point x="6743" y="80"/>
      <point x="6743" y="247" type="curve" smooth="yes"/>
      <point x="6743" y="339"/>
      <point x="6746" y="460"/>
      <point x="6725" y="618" type="curve"/>
      <point x="6720" y="629"/>
      <point x="6716" y="633"/>
      <point x="6710" y="633" type="curve" smooth="yes"/>
      <point x="6691" y="633"/>
      <point x="6615" y="601"/>
      <point x="6594" y="582" type="curve"/>
      <point x="6644" y="448"/>
      <point x="6666" y="292"/>
      <point x="6666" y="220" type="curve" smooth="yes"/>
      <point x="6666" y="144"/>
      <point x="6641" y="140"/>
      <point x="6616" y="140" type="curve" smooth="yes"/>
      <point x="6469" y="140" type="line"/>
    </contour>
    <contour>
      <point x="4657" y="214" type="curve" smooth="yes"/>
      <point x="4657" y="149"/>
      <point x="4651" y="142"/>
      <point x="4598" y="140" type="curve" smooth="yes"/>
      <point x="4551" y="139"/>
      <point x="4482" y="137"/>
      <point x="4484" y="150" type="curve" smooth="yes"/>
      <point x="4491" y="198"/>
      <point x="4614" y="296"/>
      <point x="4643" y="296" type="curve" smooth="yes"/>
      <point x="4648" y="296"/>
      <point x="4657" y="240"/>
    </contour>
    <contour>
      <point x="5135" y="192" type="curve" smooth="yes"/>
      <point x="5134" y="300"/>
      <point x="5138" y="417"/>
      <point x="5128" y="558" type="curve"/>
      <point x="5123" y="569"/>
      <point x="5119" y="573"/>
      <point x="5113" y="573" type="curve" smooth="yes"/>
      <point x="5094" y="573"/>
      <point x="5018" y="541"/>
      <point x="4997" y="522" type="curve"/>
      <point x="5027" y="418"/>
      <point x="5050" y="272"/>
      <point x="5050" y="180" type="curve" smooth="yes"/>
      <point x="5050" y="144"/>
      <point x="5022" y="140"/>
      <point x="5009" y="140" type="curve" smooth="yes"/>
      <point x="4966" y="140" type="line" smooth="yes"/>
      <point x="4954" y="140"/>
      <point x="4942" y="142"/>
      <point x="4941" y="190" type="curve" smooth="yes"/>
      <point x="4938" y="350"/>
      <point x="4936" y="393"/>
      <point x="4929" y="518" type="curve"/>
      <point x="4926" y="525"/>
      <point x="4921" y="533"/>
      <point x="4914" y="533" type="curve" smooth="yes"/>
      <point x="4898" y="533"/>
      <point x="4827" y="506"/>
      <point x="4798" y="482" type="curve"/>
      <point x="4838" y="360"/>
      <point x="4858" y="252"/>
      <point x="4858" y="190" type="curve" smooth="yes"/>
      <point x="4858" y="144"/>
      <point x="4854" y="140"/>
      <point x="4817" y="140" type="curve" smooth="yes"/>
      <point x="4805" y="140" type="line" smooth="yes"/>
      <point x="4791" y="140"/>
      <point x="4777" y="145"/>
      <point x="4776" y="202" type="curve" smooth="yes"/>
      <point x="4775" y="238"/>
      <point x="4778" y="318"/>
      <point x="4773" y="378" type="curve"/>
      <point x="4756" y="397"/>
      <point x="4688" y="445"/>
      <point x="4678" y="445" type="curve" smooth="yes"/>
      <point x="4622" y="445"/>
      <point x="4350" y="197"/>
      <point x="4350" y="143" type="curve" smooth="yes"/>
      <point x="4350" y="111"/>
      <point x="4361" y="43"/>
      <point x="4384" y="0" type="curve"/>
      <point x="4519" y="1"/>
      <point x="4654" y="0"/>
      <point x="4789" y="0" type="curve" smooth="yes"/>
      <point x="5041" y="0" type="line" smooth="yes"/>
      <point x="5117" y="0"/>
      <point x="5136" y="84"/>
    </contour>
  </outline>
</glyph>
<glyph name="_dot2hAbove-ar" format="2">
  <anchor x="159" y="275" name="_top"/>
  <outline>
    <contour>
      <point x="11" y="300" type="curve"/>
      <point x="33" y="292"/>
      <point x="84" y="292"/>
      <point x="133" y="303" type="curve"/>
      <point x="144" y="362"/>
      <point x="144" y="403"/>
      <point x="133" y="434" type="curve"/>
      <point x="108" y="444"/>
      <point x="62" y="443"/>
      <point x="11" y="431" type="curve"/>
      <point x="-1" y="371"/>
      <point x="0" y="332"/>
    </contour>
    <contour>
      <point x="182" y="318" type="curve"/>
      <point x="204" y="310"/>
      <point x="255" y="310"/>
      <point x="304" y="322" type="curve"/>
      <point x="315" y="380"/>
      <point x="315" y="421"/>
      <point x="304" y="452" type="curve"/>
      <point x="279" y="462"/>
      <point x="233" y="461"/>
      <point x="182" y="449" type="curve"/>
      <point x="170" y="389"/>
      <point x="171" y="350"/>
    </contour>
  </outline>
</glyph>
<glyph name="_gafBar-ar" format="2">
  <anchor x="165" y="675" name="_top"/>
  <outline>
    <contour>
      <point x="10" y="634" type="curve"/>
      <point x="5" y="622"/>
      <point x="1" y="606"/>
      <point x="1" y="590" type="curve" smooth="yes"/>
      <point x="1" y="571"/>
      <point x="6" y="552"/>
      <point x="18" y="539" type="curve"/>
      <point x="137" y="626"/>
      <point x="273" y="711"/>
      <point x="444" y="809" type="curve"/>
      <point x="439" y="820"/>
      <point x="423" y="832"/>
      <point x="414" y="832" type="curve"/>
      <point x="236" y="759"/>
      <point x="123" y="698"/>
    </contour>
  </outline>
</glyph>
<glyph name="ain-ar.fina" format="2">
  <advance width="614"/>
  <anchor x="288" y="-58" name="bottom"/>
  <anchor x="614" y="0" name="entry"/>
  <anchor x="304" y="578" name="top"/>
  <outline>
    <contour>
      <point x="123" y="-339" type="curve"/>
      <point x="125" y="5"/>
      <point x="219" y="177"/>
      <point x="479" y="189" type="curve"/>
      <point x="499" y="218"/>
      <point x="511" y="246"/>
      <point x="515" y="274" type="curve"/>
      <point x="465" y="330"/>
      <point x="394" y="435"/>
      <point x="346" y="520" type="curve"/>
      <point x="330" y="528"/>
      <point x="271" y="560"/>
      <point x="266" y="552" type="curve"/>
      <point x="206" y="470"/>
      <point x="131" y="376"/>
      <point x="43" y="288" type="curve"/>
      <point x="55" y="246"/>
      <point x="68" y="217"/>
      <point x="85" y="198" type="curve"/>
      <point x="246" y="202"/>
      <point x="257" y="198"/>
      <point x="257" y="124" type="curve" smooth="yes"/>
      <point x="257" y="80"/>
      <point x="274" y="0"/>
      <point x="311" y="0" type="curve" smooth="yes"/>
      <point x="634" y="0" type="line"/>
      <point x="634" y="140" type="line"/>
      <point x="352" y="139" type="line" smooth="yes"/>
      <point x="328" y="139"/>
      <point x="331" y="164"/>
      <point x="331" y="178" type="curve" smooth="yes"/>
      <point x="331" y="210"/>
      <point x="320" y="258"/>
      <point x="237" y="293" type="curve" smooth="yes"/>
      <point x="233" y="295"/>
      <point x="232" y="294"/>
      <point x="235" y="297" type="curve" smooth="yes"/>
      <point x="253" y="317"/>
      <point x="278" y="350"/>
      <point x="302" y="376" type="curve" smooth="yes"/>
      <point x="306" y="381"/>
      <point x="307" y="383"/>
      <point x="309" y="383" type="curve" smooth="yes"/>
      <point x="311" y="383"/>
      <point x="312" y="382"/>
      <point x="315" y="377" type="curve" smooth="yes"/>
      <point x="327" y="361"/>
      <point x="357" y="318"/>
      <point x="364" y="309" type="curve" smooth="yes"/>
      <point x="368" y="304"/>
      <point x="370" y="301"/>
      <point x="370" y="298" type="curve" smooth="yes"/>
      <point x="370" y="296"/>
      <point x="368" y="297"/>
      <point x="366" y="296" type="curve" smooth="yes"/>
      <point x="42" y="178"/>
      <point x="70" y="-37"/>
      <point x="82" y="-360" type="curve"/>
      <point x="107" y="-355"/>
      <point x="122" y="-350"/>
    </contour>
  </outline>
</glyph>
<glyph name="ain-ar.init" format="2">
  <advance width="503"/>
  <anchor x="271" y="-30" name="bottom"/>
  <anchor x="-30" y="0" name="exit"/>
  <anchor x="261" y="409" name="top"/>
  <outline>
    <contour>
      <point x="-50" y="140" type="line"/>
      <point x="-50" y="0" type="line"/>
      <point x="9" y="0"/>
      <point x="435" y="0"/>
      <point x="502" y="0" type="curve"/>
      <point x="500" y="101"/>
      <point x="462" y="140"/>
      <point x="446" y="140" type="curve" smooth="yes"/>
    </contour>
    <contour>
      <point x="235" y="249" type="curve" smooth="yes"/>
      <point x="289" y="249"/>
      <point x="391" y="246"/>
      <point x="467" y="234" type="curve"/>
      <point x="467" y="307"/>
      <point x="426" y="380"/>
      <point x="405" y="382" type="curve" smooth="yes"/>
      <point x="349" y="388"/>
      <point x="253" y="390"/>
      <point x="195" y="387" type="curve" smooth="yes"/>
      <point x="142" y="384"/>
      <point x="88" y="359"/>
      <point x="88" y="308" type="curve" smooth="yes"/>
      <point x="88" y="272"/>
      <point x="96" y="228"/>
      <point x="112" y="171" type="curve" smooth="yes"/>
      <point x="120" y="143"/>
      <point x="121" y="140"/>
      <point x="78" y="140" type="curve"/>
      <point x="112" y="113" type="line"/>
      <point x="163" y="103" type="line"/>
      <point x="230" y="140" type="line"/>
      <point x="206" y="140"/>
      <point x="195" y="154"/>
      <point x="189" y="193" type="curve" smooth="yes"/>
      <point x="182" y="239"/>
      <point x="186" y="249"/>
    </contour>
  </outline>
</glyph>
<glyph name="ain-ar.medi" format="2">
  <advance width="582"/>
  <anchor x="295" y="-30" name="bottom"/>
  <anchor x="582" y="0" name="entry"/>
  <anchor x="10" y="0" name="exit"/>
  <anchor x="310" y="579" name="top"/>
  <outline>
    <contour>
      <point x="329" y="47" type="line"/>
      <point x="364" y="140" type="line"/>
      <point x="346" y="140"/>
      <point x="338" y="142"/>
      <point x="338" y="161" type="curve" smooth="yes"/>
      <point x="338" y="178"/>
      <point x="343" y="180"/>
      <point x="364" y="184" type="curve" smooth="yes"/>
      <point x="385" y="188"/>
      <point x="427" y="189"/>
      <point x="489" y="189" type="curve" smooth="yes"/>
      <point x="499" y="189"/>
      <point x="505" y="191"/>
      <point x="511" y="202" type="curve" smooth="yes"/>
      <point x="523" y="225"/>
      <point x="531" y="246"/>
      <point x="535" y="274" type="curve"/>
      <point x="475" y="346"/>
      <point x="414" y="435"/>
      <point x="366" y="520" type="curve"/>
      <point x="350" y="528"/>
      <point x="291" y="560"/>
      <point x="286" y="552" type="curve"/>
      <point x="230" y="471"/>
      <point x="145" y="371"/>
      <point x="63" y="288" type="curve"/>
      <point x="77" y="247"/>
      <point x="90" y="208"/>
      <point x="105" y="198" type="curve"/>
      <point x="126" y="197"/>
      <point x="160" y="197"/>
      <point x="184" y="197" type="curve" smooth="yes"/>
      <point x="233" y="197"/>
      <point x="268" y="191"/>
      <point x="268" y="167" type="curve" smooth="yes"/>
      <point x="268" y="141"/>
      <point x="268" y="140"/>
      <point x="231" y="140" type="curve"/>
      <point x="276" y="50" type="line"/>
    </contour>
    <contour>
      <point x="-20" y="0" type="line"/>
      <point x="602" y="0" type="line"/>
      <point x="602" y="140" type="line"/>
      <point x="-20" y="140" type="line"/>
    </contour>
    <contour>
      <point x="338" y="186" type="line"/>
      <point x="337" y="261"/>
      <point x="301" y="292"/>
      <point x="257" y="293" type="curve" smooth="yes"/>
      <point x="253" y="293"/>
      <point x="253" y="293"/>
      <point x="254" y="296" type="curve" smooth="yes"/>
      <point x="273" y="317"/>
      <point x="304" y="357"/>
      <point x="323" y="377" type="curve" smooth="yes"/>
      <point x="326" y="381"/>
      <point x="327" y="383"/>
      <point x="329" y="383" type="curve" smooth="yes"/>
      <point x="331" y="383"/>
      <point x="332" y="381"/>
      <point x="334" y="378" type="curve" smooth="yes"/>
      <point x="352" y="355"/>
      <point x="369" y="329"/>
      <point x="386" y="306" type="curve" smooth="yes"/>
      <point x="389" y="302"/>
      <point x="390" y="300"/>
      <point x="390" y="298" type="curve" smooth="yes"/>
      <point x="390" y="296"/>
      <point x="388" y="295"/>
      <point x="384" y="295" type="curve" smooth="yes"/>
      <point x="353" y="295"/>
      <point x="269" y="264"/>
      <point x="269" y="198" type="curve"/>
    </contour>
  </outline>
</glyph>
<glyph name="alef-ar.allah" format="2">
  <advance width="222"/>
  <anchor x="107" y="-50" name="bottom"/>
  <anchor x="93" y="614" name="top"/>
  <outline>
    <contour>
      <point x="154" y="586" type="curve"/>
      <point x="149" y="593"/>
      <point x="145" y="597"/>
      <point x="142" y="597" type="curve" smooth="yes"/>
      <point x="126" y="597"/>
      <point x="62" y="582"/>
      <point x="23" y="554" type="curve"/>
      <point x="38" y="428"/>
      <point x="66" y="219"/>
      <point x="75" y="-21" type="curve"/>
      <point x="92" y="-23"/>
      <point x="133" y="-18"/>
      <point x="142" y="-6" type="curve"/>
      <point x="142" y="6"/>
      <point x="143" y="101"/>
      <point x="143" y="173" type="curve" smooth="yes"/>
      <point x="142" y="262"/>
      <point x="155" y="486"/>
    </contour>
  </outline>
</glyph>
<glyph name="alef-ar.fina.allah" format="2">
  <advance width="244"/>
  <anchor x="104" y="-71" name="bottom"/>
  <anchor x="244" y="0" name="entry"/>
  <anchor x="89" y="632" name="top"/>
  <outline>
    <contour>
      <point x="23" y="554" type="curve"/>
      <point x="49" y="329"/>
      <point x="74" y="73"/>
      <point x="69" y="-42" type="curve"/>
      <point x="84" y="-42"/>
      <point x="122" y="-39"/>
      <point x="133" y="-27" type="curve"/>
      <point x="134" y="-14"/>
      <point x="136" y="0"/>
      <point x="147" y="0" type="curve" smooth="yes"/>
      <point x="264" y="0" type="line"/>
      <point x="264" y="139" type="line"/>
      <point x="163" y="139"/>
      <point x="145" y="141"/>
      <point x="145" y="189" type="curve" smooth="yes"/>
      <point x="145" y="255"/>
      <point x="147" y="336"/>
      <point x="149" y="411" type="curve" smooth="yes"/>
      <point x="151" y="483"/>
      <point x="153" y="548"/>
      <point x="154" y="587" type="curve"/>
      <point x="149" y="594"/>
      <point x="145" y="598"/>
      <point x="142" y="598" type="curve" smooth="yes"/>
      <point x="119" y="598"/>
      <point x="48" y="574"/>
    </contour>
  </outline>
</glyph>
<glyph name="alef-ar.fina" format="2">
  <advance width="276"/>
  <anchor x="137" y="-190" name="bottom"/>
  <anchor x="276" y="0" name="entry"/>
  <anchor x="110" y="635" name="top"/>
  <outline>
    <contour>
      <point x="55" y="554" type="curve"/>
      <point x="81" y="329"/>
      <point x="106" y="71"/>
      <point x="108" y="-161" type="curve"/>
      <point x="123" y="-161"/>
      <point x="161" y="-159"/>
      <point x="172" y="-147" type="curve"/>
      <point x="174" y="-68"/>
      <point x="176" y="0"/>
      <point x="184" y="0" type="curve" smooth="yes"/>
      <point x="296" y="0" type="line"/>
      <point x="296" y="139" type="line"/>
      <point x="195" y="139"/>
      <point x="177" y="141"/>
      <point x="177" y="189" type="curve" smooth="yes"/>
      <point x="178" y="320"/>
      <point x="184" y="509"/>
      <point x="186" y="587" type="curve"/>
      <point x="181" y="594"/>
      <point x="177" y="598"/>
      <point x="174" y="598" type="curve" smooth="yes"/>
      <point x="151" y="598"/>
      <point x="80" y="574"/>
    </contour>
  </outline>
</glyph>
<glyph name="alef-ar.high" format="2">
  <advance width="161"/>
  <anchor x="86" y="129" name="bottom"/>
  <anchor x="72" y="755" name="top"/>
  <outline>
    <contour>
      <point x="136" y="717" type="curve"/>
      <point x="131" y="724"/>
      <point x="127" y="728"/>
      <point x="124" y="728" type="curve" smooth="yes"/>
      <point x="108" y="728"/>
      <point x="44" y="712"/>
      <point x="5" y="684" type="curve"/>
      <point x="20" y="554"/>
      <point x="48" y="358"/>
      <point x="57" y="163" type="curve"/>
      <point x="74" y="161"/>
      <point x="115" y="166"/>
      <point x="124" y="178" type="curve"/>
      <point x="124" y="191"/>
      <point x="126" y="269"/>
      <point x="125" y="343" type="curve" smooth="yes"/>
      <point x="125" y="383"/>
      <point x="137" y="613"/>
    </contour>
  </outline>
</glyph>
<glyph name="alef-ar.ss08" format="2">
  <advance width="205"/>
  <anchor x="105" y="7" name="bottom"/>
  <anchor x="168" y="275" name="center"/>
  <anchor x="95" y="555" name="top"/>
  <outline>
    <contour>
      <point x="156" y="587" type="curve"/>
      <point x="151" y="594"/>
      <point x="147" y="598"/>
      <point x="144" y="598" type="curve" smooth="yes"/>
      <point x="128" y="598"/>
      <point x="64" y="582"/>
      <point x="25" y="554" type="curve"/>
      <point x="40" y="424"/>
      <point x="68" y="228"/>
      <point x="77" y="-19" type="curve"/>
      <point x="94" y="-21"/>
      <point x="135" y="-16"/>
      <point x="144" y="-4" type="curve"/>
      <point x="144" y="9"/>
      <point x="145" y="87"/>
      <point x="145" y="161" type="curve" smooth="yes"/>
      <point x="144" y="253"/>
      <point x="157" y="483"/>
    </contour>
  </outline>
</glyph>
<glyph name="alef-ar.wideshort.fina" format="2">
  <advance width="276"/>
  <anchor x="238" y="-39" name="bottom"/>
  <anchor x="276" y="0" name="entry"/>
  <anchor x="110" y="615" name="top"/>
  <outline>
    <contour>
      <point x="55" y="534" type="curve"/>
      <point x="87" y="309"/>
      <point x="97" y="-211"/>
      <point x="108" y="-211" type="curve"/>
      <point x="172" y="-211" type="line"/>
      <point x="174" y="-172"/>
      <point x="173" y="0"/>
      <point x="183" y="0" type="curve" smooth="yes"/>
      <point x="296" y="0" type="line"/>
      <point x="296" y="139" type="line"/>
      <point x="195" y="139"/>
      <point x="177" y="141"/>
      <point x="177" y="189" type="curve" smooth="yes"/>
      <point x="177" y="320"/>
      <point x="184" y="489"/>
      <point x="186" y="567" type="curve"/>
      <point x="181" y="574"/>
      <point x="177" y="578"/>
      <point x="174" y="578" type="curve" smooth="yes"/>
      <point x="151" y="578"/>
      <point x="80" y="554"/>
    </contour>
  </outline>
</glyph>
<glyph name="alef-ar.wideshort.fina.low" format="2">
  <advance width="276"/>
  <anchor x="231" y="-246" name="bottom"/>
  <anchor x="276" y="0" name="entry"/>
  <anchor x="123" y="424" name="top"/>
  <outline>
    <contour>
      <point x="55" y="347" type="curve"/>
      <point x="87" y="122"/>
      <point x="97" y="-418"/>
      <point x="108" y="-418" type="curve"/>
      <point x="172" y="-418" type="line"/>
      <point x="174" y="-379"/>
      <point x="173" y="-207"/>
      <point x="183" y="-207" type="curve" smooth="yes"/>
      <point x="296" y="-207" type="line"/>
      <point x="296" y="-68" type="line"/>
      <point x="195" y="-68"/>
      <point x="177" y="-66"/>
      <point x="177" y="-18" type="curve" smooth="yes"/>
      <point x="177" y="113"/>
      <point x="184" y="302"/>
      <point x="186" y="380" type="curve"/>
      <point x="181" y="387"/>
      <point x="177" y="391"/>
      <point x="174" y="391" type="curve" smooth="yes"/>
      <point x="151" y="391"/>
      <point x="80" y="367"/>
    </contour>
  </outline>
</glyph>
<glyph name="alef-ar.wideshort" format="2">
  <advance width="295"/>
  <anchor x="250" y="188" name="bottom"/>
  <anchor x="110" y="645" name="top"/>
  <outline>
    <contour>
      <point x="186" y="587" type="curve"/>
      <point x="181" y="594"/>
      <point x="177" y="598"/>
      <point x="174" y="598" type="curve" smooth="yes"/>
      <point x="158" y="598"/>
      <point x="94" y="582"/>
      <point x="55" y="554" type="curve"/>
      <point x="103" y="265"/>
      <point x="98" y="0"/>
      <point x="107" y="0" type="curve"/>
      <point x="174" y="0" type="line"/>
      <point x="174" y="13"/>
      <point x="175" y="87"/>
      <point x="175" y="161" type="curve" smooth="yes"/>
      <point x="174" y="253"/>
      <point x="187" y="483"/>
    </contour>
  </outline>
</glyph>
<glyph name="alefHamzaabove-ar.allah" format="2">
  <advance width="242"/>
  <anchor x="99" y="-56" name="bottom"/>
  <anchor x="124" y="610" name="top"/>
  <outline>
    <component base="alef-ar.allah"/>
    <contour>
      <point x="127" y="409" type="line"/>
      <point x="135" y="409"/>
      <point x="139" y="406"/>
      <point x="149" y="389" type="curve"/>
      <point x="150" y="404"/>
      <point x="151" y="409"/>
      <point x="155" y="409" type="curve" smooth="yes"/>
      <point x="253" y="409" type="line"/>
      <point x="253" y="418"/>
      <point x="252" y="442"/>
      <point x="248" y="442" type="curve" smooth="yes"/>
      <point x="155" y="442" type="line" smooth="yes"/>
      <point x="148" y="442"/>
      <point x="152" y="464"/>
      <point x="158" y="464" type="curve" smooth="yes"/>
      <point x="253" y="464" type="line"/>
      <point x="253" y="474"/>
      <point x="252" y="497"/>
      <point x="248" y="497" type="curve" smooth="yes"/>
      <point x="156" y="497" type="line" smooth="yes"/>
      <point x="151" y="497"/>
      <point x="154" y="520"/>
      <point x="160" y="520" type="curve" smooth="yes"/>
      <point x="253" y="520" type="line"/>
      <point x="253" y="529"/>
      <point x="252" y="553"/>
      <point x="248" y="553" type="curve" smooth="yes"/>
      <point x="159" y="553" type="line" smooth="yes"/>
      <point x="153" y="553"/>
      <point x="154" y="558"/>
      <point x="154" y="562" type="curve"/>
      <point x="145" y="562"/>
      <point x="143" y="553"/>
      <point x="133" y="553" type="curve"/>
    </contour>
  </outline>
</glyph>
<glyph name="alefHamzaabove-ar.fina" format="2">
  <advance width="276"/>
  <anchor x="145" y="-164" name="bottom"/>
  <anchor x="276" y="0" name="entry"/>
  <anchor x="110" y="615" name="top"/>
  <outline>
    <component base="alef-ar.fina"/>
    <contour>
      <point x="180" y="380" type="curve"/>
      <point x="181" y="405"/>
      <point x="182" y="403"/>
      <point x="186" y="403" type="curve" smooth="yes"/>
      <point x="293" y="403" type="line"/>
      <point x="293" y="419"/>
      <point x="292" y="446"/>
      <point x="285" y="446" type="curve" smooth="yes"/>
      <point x="186" y="446" type="line" smooth="yes"/>
      <point x="179" y="446"/>
      <point x="183" y="461"/>
      <point x="189" y="461" type="curve" smooth="yes"/>
      <point x="293" y="461" type="line"/>
      <point x="293" y="478"/>
      <point x="292" y="504"/>
      <point x="285" y="504" type="curve" smooth="yes"/>
      <point x="187" y="504" type="line" smooth="yes"/>
      <point x="182" y="504"/>
      <point x="185" y="520"/>
      <point x="191" y="520" type="curve" smooth="yes"/>
      <point x="293" y="520" type="line"/>
      <point x="293" y="536"/>
      <point x="292" y="563"/>
      <point x="285" y="563" type="curve" smooth="yes"/>
      <point x="192" y="563" type="line" smooth="yes"/>
      <point x="186" y="563"/>
      <point x="186" y="570"/>
      <point x="186" y="587" type="curve"/>
      <point x="177" y="587"/>
      <point x="173" y="553"/>
      <point x="163" y="553" type="curve"/>
      <point x="157" y="403" type="line"/>
      <point x="165" y="403"/>
      <point x="170" y="395"/>
    </contour>
  </outline>
</glyph>
<glyph name="alefHamzabelow-ar.fina" format="2">
  <advance width="286"/>
  <anchor x="142" y="-260" name="bottom"/>
  <anchor x="286" y="0" name="entry"/>
  <anchor x="110" y="640" name="top"/>
  <outline>
    <contour>
      <point x="306" y="139" type="line"/>
      <point x="205" y="139"/>
      <point x="177" y="141"/>
      <point x="177" y="189" type="curve" smooth="yes"/>
      <point x="177" y="320"/>
      <point x="184" y="509"/>
      <point x="186" y="587" type="curve"/>
      <point x="181" y="594"/>
      <point x="177" y="598"/>
      <point x="174" y="598" type="curve" smooth="yes"/>
      <point x="151" y="598"/>
      <point x="80" y="574"/>
      <point x="55" y="554" type="curve"/>
      <point x="87" y="329"/>
      <point x="97" y="-211"/>
      <point x="108" y="-211" type="curve"/>
      <point x="285" y="-211" type="line"/>
      <point x="285" y="-195"/>
      <point x="284" y="-168"/>
      <point x="277" y="-168" type="curve" smooth="yes"/>
      <point x="178" y="-168" type="line" smooth="yes"/>
      <point x="171" y="-168"/>
      <point x="175" y="-153"/>
      <point x="181" y="-153" type="curve" smooth="yes"/>
      <point x="285" y="-153" type="line"/>
      <point x="285" y="-136"/>
      <point x="284" y="-110"/>
      <point x="277" y="-110" type="curve" smooth="yes"/>
      <point x="179" y="-110" type="line" smooth="yes"/>
      <point x="174" y="-110"/>
      <point x="177" y="-94"/>
      <point x="183" y="-94" type="curve" smooth="yes"/>
      <point x="285" y="-94" type="line"/>
      <point x="285" y="-78"/>
      <point x="284" y="-51"/>
      <point x="277" y="-51" type="curve" smooth="yes"/>
      <point x="183" y="-51" type="line" smooth="yes"/>
      <point x="177" y="-51"/>
      <point x="177" y="-44"/>
      <point x="177" y="-32" type="curve" smooth="yes"/>
      <point x="178" y="-13"/>
      <point x="180" y="0"/>
      <point x="183" y="0" type="curve" smooth="yes"/>
      <point x="306" y="0" type="line"/>
    </contour>
  </outline>
</glyph>
<glyph name="alefMaksura-ar.fina" format="2">
  <advance width="833"/>
  <anchor x="633" y="-110" name="bottom"/>
  <anchor x="833" y="0" name="entry"/>
  <anchor x="420" y="369" name="top"/>
  <outline>
    <contour>
      <point x="463" y="38" type="curve" smooth="yes"/>
      <point x="466" y="36"/>
      <point x="473" y="34"/>
      <point x="470" y="30" type="curve" smooth="yes"/>
      <point x="402" y="-71"/>
      <point x="272" y="-188"/>
      <point x="110" y="-188" type="curve" smooth="yes"/>
      <point x="6" y="-188"/>
      <point x="-51" y="-144"/>
      <point x="-51" y="-41" type="curve" smooth="yes"/>
      <point x="-51" y="-29"/>
      <point x="-51" y="-17"/>
      <point x="-49" y="-3" type="curve"/>
      <point x="-54" y="4"/>
      <point x="-61" y="6"/>
      <point x="-68" y="6" type="curve" smooth="yes"/>
      <point x="-71" y="6"/>
      <point x="-74" y="6"/>
      <point x="-77" y="5" type="curve"/>
      <point x="-99" y="-45"/>
      <point x="-109" y="-93"/>
      <point x="-109" y="-137" type="curve" smooth="yes"/>
      <point x="-109" y="-248"/>
      <point x="-39" y="-328"/>
      <point x="102" y="-328" type="curve" smooth="yes"/>
      <point x="247" y="-328"/>
      <point x="430" y="-231"/>
      <point x="575" y="-5" type="curve" smooth="yes"/>
      <point x="587" y="14"/>
      <point x="608" y="54"/>
      <point x="608" y="78" type="curve" smooth="yes"/>
      <point x="608" y="86"/>
      <point x="606" y="92"/>
      <point x="602" y="96" type="curve" smooth="yes"/>
      <point x="538" y="154"/>
      <point x="409" y="192"/>
      <point x="409" y="208" type="curve" smooth="yes"/>
      <point x="409" y="215"/>
      <point x="521" y="253"/>
      <point x="599" y="253" type="curve" smooth="yes"/>
      <point x="649" y="253"/>
      <point x="662" y="212"/>
      <point x="664" y="200" type="curve" smooth="yes"/>
      <point x="673" y="147"/>
      <point x="677" y="0"/>
      <point x="716" y="0" type="curve"/>
      <point x="853" y="0" type="line"/>
      <point x="853" y="140" type="line"/>
      <point x="823" y="140"/>
      <point x="794" y="140"/>
      <point x="766" y="140" type="curve" smooth="yes"/>
      <point x="746" y="140"/>
      <point x="741" y="158"/>
      <point x="734" y="238" type="curve" smooth="yes"/>
      <point x="723" y="360"/>
      <point x="710" y="388"/>
      <point x="655" y="388" type="curve" smooth="yes"/>
      <point x="569" y="388"/>
      <point x="442" y="318"/>
      <point x="284" y="238" type="curve"/>
      <point x="284" y="204"/>
      <point x="293" y="117"/>
      <point x="312" y="96" type="curve"/>
      <point x="369" y="83"/>
      <point x="387" y="79"/>
    </contour>
  </outline>
</glyph>
<glyph name="beh-ar.init.alt" format="2">
  <advance width="313"/>
  <anchor x="132" y="-265" name="bottom"/>
  <anchor x="0" y="0" name="exit"/>
  <anchor x="75" y="641" name="top"/>
  <outline>
    <component base="_dot1Below" xOffset="29" yOffset="-50"/>
    <contour>
      <point x="-20" y="0" type="line"/>
      <point x="161" y="0" type="line" smooth="yes"/>
      <point x="237" y="0"/>
      <point x="248" y="84"/>
      <point x="247" y="200" type="curve" smooth="yes"/>
      <point x="246" y="310"/>
      <point x="227" y="511"/>
      <point x="215" y="618" type="curve"/>
      <point x="210" y="629"/>
      <point x="206" y="633"/>
      <point x="200" y="633" type="curve" smooth="yes"/>
      <point x="181" y="633"/>
      <point x="105" y="594"/>
      <point x="84" y="575" type="curve"/>
      <point x="126" y="471"/>
      <point x="170" y="295"/>
      <point x="170" y="190" type="curve" smooth="yes"/>
      <point x="170" y="144"/>
      <point x="160" y="140"/>
      <point x="135" y="140" type="curve" smooth="yes"/>
      <point x="-20" y="140" type="line"/>
    </contour>
  </outline>
</glyph>
<glyph name="behDotless-ar.fina" format="2">
  <advance width="471"/>
  <anchor x="297" y="-30" name="bottom"/>
  <anchor x="471" y="0" name="entry"/>
  <anchor x="259" y="360" name="top"/>
  <outline>
    <contour>
      <point x="306" y="140" type="curve" smooth="yes"/>
      <point x="50" y="140" type="line"/>
      <point x="42" y="140"/>
      <point x="35" y="127"/>
      <point x="35" y="110" type="curve" smooth="yes"/>
      <point x="35" y="78"/>
      <point x="46" y="27"/>
      <point x="61" y="0" type="curve"/>
      <point x="491" y="0" type="line"/>
      <point x="491" y="140" type="line"/>
      <point x="439" y="140" type="line" smooth="yes"/>
      <point x="414" y="140"/>
      <point x="400" y="143"/>
      <point x="397" y="177" type="curve" smooth="yes"/>
      <point x="393" y="225"/>
      <point x="380" y="278"/>
      <point x="366" y="331" type="curve" smooth="yes"/>
      <point x="364" y="339"/>
      <point x="361" y="345"/>
      <point x="349" y="345" type="curve"/>
      <point x="340" y="342"/>
      <point x="293" y="312"/>
      <point x="263" y="288" type="curve"/>
      <point x="293" y="244"/>
      <point x="321" y="195"/>
      <point x="321" y="169" type="curve" smooth="yes"/>
      <point x="321" y="152"/>
      <point x="314" y="140"/>
    </contour>
  </outline>
</glyph>
<glyph name="behDotless-ar.init" format="2">
  <advance width="317"/>
  <anchor x="132" y="-30" name="bottom"/>
  <anchor x="0" y="0" name="exit"/>
  <anchor x="134" y="360" name="top"/>
  <outline>
    <contour>
      <point x="184" y="0" type="line"/>
      <point x="250" y="0"/>
      <point x="267" y="84"/>
      <point x="267" y="186" type="curve" smooth="yes"/>
      <point x="267" y="237"/>
      <point x="259" y="291"/>
      <point x="247" y="332" type="curve" smooth="yes"/>
      <point x="245" y="339"/>
      <point x="241" y="345"/>
      <point x="229" y="345" type="curve"/>
      <point x="198" y="328"/>
      <point x="174" y="311"/>
      <point x="144" y="288" type="curve"/>
      <point x="159" y="263"/>
      <point x="192" y="204"/>
      <point x="192" y="169" type="curve" smooth="yes"/>
      <point x="192" y="159"/>
      <point x="191" y="140"/>
      <point x="172" y="140" type="curve" smooth="yes"/>
      <point x="-20" y="140" type="line"/>
      <point x="-20" y="0" type="line"/>
    </contour>
  </outline>
</glyph>
<glyph name="behDotless-ar.medi.flat" format="2">
  <advance width="257"/>
  <anchor x="129" y="-34" name="bottom"/>
  <anchor x="257" y="0" name="entry"/>
  <anchor x="0" y="205" name="exit"/>
  <anchor x="70" y="563" name="top"/>
  <outline>
    <contour>
      <point x="152" y="275" type="curve" smooth="yes"/>
      <point x="152" y="379"/>
      <point x="144" y="471"/>
      <point x="132" y="512" type="curve" smooth="yes"/>
      <point x="130" y="520"/>
      <point x="126" y="525"/>
      <point x="114" y="525" type="curve"/>
      <point x="91" y="513"/>
      <point x="59" y="491"/>
      <point x="29" y="468" type="curve"/>
      <point x="59" y="429"/>
      <point x="74" y="378"/>
      <point x="74" y="355" type="curve" smooth="yes"/>
      <point x="74" y="347"/>
      <point x="71" y="345"/>
      <point x="66" y="345" type="curve" smooth="yes"/>
      <point x="58" y="345"/>
      <point x="-10" y="345"/>
      <point x="-20" y="345" type="curve"/>
      <point x="-20" y="205" type="line"/>
      <point x="-12" y="205"/>
      <point x="54" y="205"/>
      <point x="64" y="205" type="curve" smooth="yes"/>
      <point x="79" y="205"/>
      <point x="78" y="199"/>
      <point x="80" y="168" type="curve" smooth="yes"/>
      <point x="86" y="54"/>
      <point x="101" y="0"/>
      <point x="134" y="0" type="curve" smooth="yes"/>
      <point x="277" y="0" type="line"/>
      <point x="277" y="140" type="line"/>
      <point x="204" y="140" type="line" smooth="yes"/>
      <point x="166" y="140"/>
      <point x="152" y="165"/>
    </contour>
  </outline>
</glyph>
<glyph name="dal-ar.fina" format="2">
  <advance width="521"/>
  <anchor x="328" y="-60" name="bottom"/>
  <anchor x="521" y="0" name="entry"/>
  <anchor x="309" y="370" name="top"/>
  <outline>
    <contour>
      <point x="456" y="137" type="line" smooth="yes"/>
      <point x="429" y="137"/>
      <point x="428" y="142"/>
      <point x="428" y="152" type="curve" smooth="yes"/>
      <point x="428" y="239"/>
      <point x="427" y="284"/>
      <point x="420" y="324" type="curve"/>
      <point x="352" y="320"/>
      <point x="246" y="315"/>
      <point x="221" y="315" type="curve" smooth="yes"/>
      <point x="178" y="315"/>
      <point x="162" y="326"/>
      <point x="162" y="385" type="curve" smooth="yes"/>
      <point x="162" y="463"/>
      <point x="165" y="495"/>
      <point x="168" y="554" type="curve"/>
      <point x="131" y="554"/>
      <point x="94" y="546"/>
      <point x="73" y="532" type="curve" smooth="yes"/>
      <point x="66" y="527"/>
      <point x="60" y="523"/>
      <point x="60" y="514" type="curve"/>
      <point x="83" y="263"/>
      <point x="72" y="178"/>
      <point x="339" y="176" type="curve" smooth="yes"/>
      <point x="345" y="176"/>
      <point x="346" y="174"/>
      <point x="347" y="170" type="curve" smooth="yes"/>
      <point x="350" y="162"/>
      <point x="351" y="155"/>
      <point x="351" y="150" type="curve" smooth="yes"/>
      <point x="351" y="142"/>
      <point x="349" y="140"/>
      <point x="345" y="140" type="curve" smooth="yes"/>
      <point x="141" y="140"/>
      <point x="95" y="126"/>
      <point x="95" y="-8" type="curve" smooth="yes"/>
      <point x="95" y="-75"/>
      <point x="108" y="-148"/>
      <point x="121" y="-235" type="curve"/>
      <point x="134" y="-235"/>
      <point x="168" y="-233"/>
      <point x="168" y="-214" type="curve" smooth="yes"/>
      <point x="172" y="-40"/>
      <point x="176" y="0"/>
      <point x="204" y="0" type="curve" smooth="yes"/>
      <point x="393" y="0"/>
      <point x="460" y="0"/>
      <point x="541" y="0" type="curve"/>
      <point x="541" y="137" type="line"/>
    </contour>
  </outline>
</glyph>
<glyph name="dotvowelbelow-ar.ss04" format="2">
  <anchor x="99" y="-42" name="_bottom"/>
  <anchor x="100" y="-232" name="bottom"/>
  <outline>
    <contour>
      <point x="101" y="-183" type="curve" smooth="yes"/>
      <point x="130" y="-183"/>
      <point x="154" y="-160"/>
      <point x="154" y="-132" type="curve" smooth="yes"/>
      <point x="154" y="-105"/>
      <point x="130" y="-82"/>
      <point x="101" y="-82" type="curve" smooth="yes"/>
      <point x="72" y="-82"/>
      <point x="48" y="-105"/>
      <point x="48" y="-132" type="curve" smooth="yes"/>
      <point x="48" y="-160"/>
      <point x="72" y="-183"/>
    </contour>
  </outline>
</glyph>
<glyph name="eight-ar.small" format="2">
  <advance width="380"/>
  <anchor x="0" y="0" name="digit"/>
  <outline>
    <contour>
      <point x="292" y="-10" type="curve"/>
      <point x="315" y="0"/>
      <point x="360" y="43"/>
      <point x="373" y="83" type="curve"/>
      <point x="301" y="185"/>
      <point x="236" y="316"/>
      <point x="201" y="489" type="curve"/>
      <point x="201" y="488" type="line"/>
      <point x="201" y="489" type="line"/>
      <point x="188" y="489"/>
      <point x="168" y="484"/>
      <point x="159" y="472" type="curve"/>
      <point x="115" y="301"/>
      <point x="58" y="149"/>
      <point x="7" y="23" type="curve"/>
      <point x="12" y="4"/>
      <point x="28" y="-2"/>
      <point x="34" y="-2" type="curve"/>
      <point x="110" y="147"/>
      <point x="176" y="279"/>
      <point x="206" y="371" type="curve"/>
      <point x="167" y="408" type="line"/>
      <point x="180" y="272"/>
      <point x="236" y="84"/>
    </contour>
  </outline>
</glyph>
<glyph name="eight.small" format="2">
  <advance width="350"/>
  <anchor x="0" y="0" name="digit"/>
  <outline>
    <contour>
      <point x="199" y="244" type="line"/>
      <point x="269" y="263"/>
      <point x="313" y="316"/>
      <point x="313" y="364" type="curve" smooth="yes"/>
      <point x="313" y="419"/>
      <point x="263" y="467"/>
      <point x="175" y="467" type="curve" smooth="yes"/>
      <point x="90" y="467"/>
      <point x="24" y="423"/>
      <point x="24" y="349" type="curve" smooth="yes"/>
      <point x="24" y="212"/>
      <point x="240" y="212"/>
      <point x="240" y="98" type="curve" smooth="yes"/>
      <point x="240" y="56"/>
      <point x="212" y="34"/>
      <point x="183" y="34" type="curve" smooth="yes"/>
      <point x="149" y="34"/>
      <point x="114" y="61"/>
      <point x="114" y="116" type="curve" smooth="yes"/>
      <point x="114" y="167"/>
      <point x="135" y="210"/>
      <point x="167" y="238" type="curve"/>
      <point x="156" y="253" type="line"/>
      <point x="54" y="229"/>
      <point x="12" y="173"/>
      <point x="12" y="113" type="curve" smooth="yes"/>
      <point x="12" y="32"/>
      <point x="91" y="-9"/>
      <point x="171" y="-9" type="curve" smooth="yes"/>
      <point x="253" y="-9"/>
      <point x="337" y="35"/>
      <point x="337" y="126" type="curve" smooth="yes"/>
      <point x="337" y="272"/>
      <point x="121" y="292"/>
      <point x="121" y="377" type="curve" smooth="yes"/>
      <point x="121" y="410"/>
      <point x="143" y="425"/>
      <point x="168" y="425" type="curve" smooth="yes"/>
      <point x="199" y="425"/>
      <point x="234" y="401"/>
      <point x="234" y="359" type="curve" smooth="yes"/>
      <point x="234" y="324"/>
      <point x="202" y="283"/>
      <point x="166" y="266" type="curve"/>
    </contour>
  </outline>
</glyph>
<glyph name="endofayah-ar.2" format="2">
  <advance width="1678"/>
  <outline>
    <contour>
      <point x="1144" y="746" type="line"/>
      <point x="1172" y="787" type="line"/>
      <point x="842" y="1037" type="line" smooth="yes"/>
      <point x="839" y="1040"/>
      <point x="836" y="1041"/>
      <point x="832" y="1041" type="curve" smooth="yes"/>
      <point x="829" y="1041"/>
      <point x="826" y="1040"/>
      <point x="822" y="1037" type="curve" smooth="yes"/>
      <point x="484" y="784" type="line"/>
      <point x="516" y="745" type="line"/>
      <point x="832" y="982" type="line"/>
    </contour>
    <contour>
      <point x="964" y="689" type="line"/>
      <point x="1005" y="674" type="line"/>
      <point x="1005" y="875" type="line"/>
      <point x="964" y="901" type="line"/>
    </contour>
    <contour>
      <point x="191" y="437" type="curve" smooth="yes"/>
      <point x="155" y="437"/>
      <point x="125" y="469"/>
      <point x="125" y="503" type="curve" smooth="yes"/>
      <point x="125" y="539"/>
      <point x="155" y="567"/>
      <point x="191" y="567" type="curve" smooth="yes"/>
      <point x="228" y="567"/>
      <point x="255" y="539"/>
      <point x="255" y="503" type="curve" smooth="yes"/>
      <point x="255" y="465"/>
      <point x="227" y="437"/>
    </contour>
    <contour>
      <point x="831" y="-172" type="curve" smooth="yes"/>
      <point x="728" y="-172"/>
      <point x="624" y="-127"/>
      <point x="529" y="-37" type="curve" smooth="yes"/>
      <point x="226" y="248" type="line"/>
      <point x="529" y="533" type="line" smooth="yes"/>
      <point x="623" y="622"/>
      <point x="726" y="668"/>
      <point x="831" y="668" type="curve" smooth="yes"/>
      <point x="934" y="668"/>
      <point x="1036" y="623"/>
      <point x="1131" y="533" type="curve" smooth="yes"/>
      <point x="1434" y="248" type="line"/>
      <point x="1131" y="-37" type="line" smooth="yes"/>
      <point x="1037" y="-126"/>
      <point x="935" y="-172"/>
    </contour>
    <contour>
      <point x="1038" y="654" type="line"/>
      <point x="1079" y="630" type="line"/>
      <point x="1079" y="815" type="line"/>
      <point x="1038" y="844" type="line"/>
    </contour>
    <contour>
      <point x="888" y="708" type="line"/>
      <point x="929" y="702" type="line"/>
      <point x="929" y="934" type="line"/>
      <point x="888" y="957" type="line"/>
    </contour>
    <contour>
      <point x="810" y="713" type="line"/>
      <point x="852" y="712" type="line"/>
      <point x="852" y="1001" type="line"/>
      <point x="810" y="1001" type="line"/>
    </contour>
    <contour>
      <point x="733" y="703" type="line"/>
      <point x="774" y="709" type="line"/>
      <point x="774" y="959" type="line"/>
      <point x="733" y="937" type="line"/>
    </contour>
    <contour>
      <point x="657" y="676" type="line"/>
      <point x="698" y="691" type="line"/>
      <point x="698" y="902" type="line"/>
      <point x="657" y="876" type="line"/>
    </contour>
    <contour>
      <point x="583" y="635" type="line"/>
      <point x="624" y="657" type="line"/>
      <point x="624" y="849" type="line"/>
      <point x="583" y="819" type="line"/>
    </contour>
    <contour>
      <point x="192" y="395" type="curve" smooth="yes"/>
      <point x="252" y="395"/>
      <point x="300" y="443"/>
      <point x="300" y="503" type="curve" smooth="yes"/>
      <point x="300" y="564"/>
      <point x="252" y="612"/>
      <point x="192" y="612" type="curve" smooth="yes"/>
      <point x="131" y="612"/>
      <point x="83" y="564"/>
      <point x="83" y="503" type="curve" smooth="yes"/>
      <point x="83" y="443"/>
      <point x="131" y="395"/>
    </contour>
    <contour>
      <point x="1471" y="437" type="curve" smooth="yes"/>
      <point x="1435" y="437"/>
      <point x="1407" y="465"/>
      <point x="1407" y="503" type="curve" smooth="yes"/>
      <point x="1407" y="539"/>
      <point x="1434" y="567"/>
      <point x="1471" y="567" type="curve" smooth="yes"/>
      <point x="1507" y="567"/>
      <point x="1537" y="539"/>
      <point x="1537" y="503" type="curve" smooth="yes"/>
      <point x="1537" y="469"/>
      <point x="1507" y="437"/>
    </contour>
    <contour>
      <point x="1470" y="395" type="curve" smooth="yes"/>
      <point x="1531" y="395"/>
      <point x="1579" y="443"/>
      <point x="1579" y="503" type="curve" smooth="yes"/>
      <point x="1579" y="564"/>
      <point x="1531" y="612"/>
      <point x="1470" y="612" type="curve" smooth="yes"/>
      <point x="1410" y="612"/>
      <point x="1362" y="564"/>
      <point x="1362" y="503" type="curve" smooth="yes"/>
      <point x="1362" y="443"/>
      <point x="1410" y="395"/>
    </contour>
    <contour>
      <point x="1615" y="264" type="line"/>
      <point x="1135" y="713" type="line"/>
      <point x="1140" y="665" type="line"/>
      <point x="1142" y="717"/>
      <point x="1226" y="836"/>
      <point x="1333" y="836" type="curve" smooth="yes"/>
      <point x="1426" y="836"/>
      <point x="1469" y="773"/>
      <point x="1469" y="721" type="curve" smooth="yes"/>
      <point x="1469" y="668"/>
      <point x="1431" y="621"/>
      <point x="1362" y="621" type="curve" smooth="yes"/>
      <point x="1318" y="621"/>
      <point x="1279" y="644"/>
      <point x="1279" y="693" type="curve" smooth="yes"/>
      <point x="1279" y="733"/>
      <point x="1312" y="751"/>
      <point x="1340" y="751" type="curve" smooth="yes"/>
      <point x="1366" y="751"/>
      <point x="1380" y="737"/>
      <point x="1380" y="723" type="curve" smooth="yes"/>
      <point x="1380" y="711"/>
      <point x="1369" y="700"/>
      <point x="1345" y="700" type="curve"/>
      <point x="1339" y="658" type="line"/>
      <point x="1397" y="658"/>
      <point x="1423" y="690"/>
      <point x="1423" y="722" type="curve" smooth="yes"/>
      <point x="1423" y="757"/>
      <point x="1392" y="794"/>
      <point x="1337" y="794" type="curve" smooth="yes"/>
      <point x="1291" y="794"/>
      <point x="1236" y="761"/>
      <point x="1236" y="689" type="curve" smooth="yes"/>
      <point x="1236" y="620"/>
      <point x="1298" y="578"/>
      <point x="1363" y="578" type="curve" smooth="yes"/>
      <point x="1435" y="578"/>
      <point x="1512" y="622"/>
      <point x="1512" y="721" type="curve" smooth="yes"/>
      <point x="1512" y="806"/>
      <point x="1441" y="879"/>
      <point x="1332" y="879" type="curve" smooth="yes"/>
      <point x="1194" y="879"/>
      <point x="1107" y="732"/>
      <point x="1099" y="688" type="curve"/>
      <point x="1569" y="248" type="line"/>
      <point x="1099" y="-192" type="line"/>
      <point x="1107" y="-236"/>
      <point x="1194" y="-383"/>
      <point x="1332" y="-383" type="curve" smooth="yes"/>
      <point x="1441" y="-383"/>
      <point x="1512" y="-310"/>
      <point x="1512" y="-225" type="curve" smooth="yes"/>
      <point x="1512" y="-126"/>
      <point x="1435" y="-82"/>
      <point x="1363" y="-82" type="curve" smooth="yes"/>
      <point x="1298" y="-82"/>
      <point x="1236" y="-124"/>
      <point x="1236" y="-193" type="curve" smooth="yes"/>
      <point x="1236" y="-265"/>
      <point x="1291" y="-298"/>
      <point x="1337" y="-298" type="curve" smooth="yes"/>
      <point x="1392" y="-298"/>
      <point x="1423" y="-261"/>
      <point x="1423" y="-226" type="curve" smooth="yes"/>
      <point x="1423" y="-194"/>
      <point x="1397" y="-162"/>
      <point x="1339" y="-162" type="curve"/>
      <point x="1345" y="-204" type="line"/>
      <point x="1369" y="-204"/>
      <point x="1380" y="-215"/>
      <point x="1380" y="-227" type="curve" smooth="yes"/>
      <point x="1380" y="-241"/>
      <point x="1366" y="-255"/>
      <point x="1340" y="-255" type="curve" smooth="yes"/>
      <point x="1312" y="-255"/>
      <point x="1279" y="-237"/>
      <point x="1279" y="-197" type="curve" smooth="yes"/>
      <point x="1279" y="-148"/>
      <point x="1318" y="-125"/>
      <point x="1362" y="-125" type="curve" smooth="yes"/>
      <point x="1431" y="-125"/>
      <point x="1469" y="-172"/>
      <point x="1469" y="-225" type="curve" smooth="yes"/>
      <point x="1469" y="-277"/>
      <point x="1426" y="-340"/>
      <point x="1333" y="-340" type="curve" smooth="yes"/>
      <point x="1226" y="-340"/>
      <point x="1142" y="-221"/>
      <point x="1140" y="-169" type="curve"/>
      <point x="1135" y="-217" type="line"/>
      <point x="1615" y="232" type="line"/>
    </contour>
    <contour>
      <point x="47" y="264" type="line"/>
      <point x="47" y="232" type="line"/>
      <point x="527" y="-217" type="line"/>
      <point x="522" y="-169" type="line"/>
      <point x="520" y="-221"/>
      <point x="436" y="-340"/>
      <point x="329" y="-340" type="curve" smooth="yes"/>
      <point x="236" y="-340"/>
      <point x="193" y="-277"/>
      <point x="193" y="-225" type="curve" smooth="yes"/>
      <point x="193" y="-172"/>
      <point x="231" y="-125"/>
      <point x="300" y="-125" type="curve" smooth="yes"/>
      <point x="344" y="-125"/>
      <point x="383" y="-148"/>
      <point x="383" y="-197" type="curve" smooth="yes"/>
      <point x="383" y="-237"/>
      <point x="350" y="-255"/>
      <point x="322" y="-255" type="curve" smooth="yes"/>
      <point x="296" y="-255"/>
      <point x="282" y="-241"/>
      <point x="282" y="-227" type="curve" smooth="yes"/>
      <point x="282" y="-215"/>
      <point x="293" y="-204"/>
      <point x="317" y="-204" type="curve"/>
      <point x="323" y="-162" type="line"/>
      <point x="265" y="-162"/>
      <point x="239" y="-194"/>
      <point x="239" y="-226" type="curve" smooth="yes"/>
      <point x="239" y="-261"/>
      <point x="270" y="-298"/>
      <point x="325" y="-298" type="curve" smooth="yes"/>
      <point x="371" y="-298"/>
      <point x="426" y="-265"/>
      <point x="426" y="-193" type="curve" smooth="yes"/>
      <point x="426" y="-124"/>
      <point x="364" y="-82"/>
      <point x="299" y="-82" type="curve" smooth="yes"/>
      <point x="227" y="-82"/>
      <point x="150" y="-126"/>
      <point x="150" y="-225" type="curve" smooth="yes"/>
      <point x="150" y="-310"/>
      <point x="221" y="-383"/>
      <point x="330" y="-383" type="curve" smooth="yes"/>
      <point x="468" y="-383"/>
      <point x="555" y="-236"/>
      <point x="563" y="-192" type="curve"/>
      <point x="93" y="248" type="line"/>
      <point x="563" y="688" type="line"/>
      <point x="555" y="732"/>
      <point x="468" y="879"/>
      <point x="330" y="879" type="curve" smooth="yes"/>
      <point x="221" y="879"/>
      <point x="150" y="806"/>
      <point x="150" y="721" type="curve" smooth="yes"/>
      <point x="150" y="622"/>
      <point x="227" y="578"/>
      <point x="299" y="578" type="curve" smooth="yes"/>
      <point x="364" y="578"/>
      <point x="426" y="620"/>
      <point x="426" y="689" type="curve" smooth="yes"/>
      <point x="426" y="761"/>
      <point x="371" y="794"/>
      <point x="325" y="794" type="curve" smooth="yes"/>
      <point x="270" y="794"/>
      <point x="239" y="757"/>
      <point x="239" y="722" type="curve" smooth="yes"/>
      <point x="239" y="690"/>
      <point x="265" y="658"/>
      <point x="323" y="658" type="curve"/>
      <point x="317" y="700" type="line"/>
      <point x="293" y="700"/>
      <point x="282" y="711"/>
      <point x="282" y="723" type="curve" smooth="yes"/>
      <point x="282" y="737"/>
      <point x="296" y="751"/>
      <point x="322" y="751" type="curve" smooth="yes"/>
      <point x="350" y="751"/>
      <point x="383" y="733"/>
      <point x="383" y="693" type="curve" smooth="yes"/>
      <point x="383" y="644"/>
      <point x="344" y="621"/>
      <point x="300" y="621" type="curve" smooth="yes"/>
      <point x="231" y="621"/>
      <point x="193" y="668"/>
      <point x="193" y="721" type="curve" smooth="yes"/>
      <point x="193" y="773"/>
      <point x="236" y="836"/>
      <point x="329" y="836" type="curve" smooth="yes"/>
      <point x="436" y="836"/>
      <point x="520" y="717"/>
      <point x="522" y="665" type="curve"/>
      <point x="527" y="713" type="line"/>
    </contour>
    <contour>
      <point x="153" y="248" type="line"/>
      <point x="492" y="-74" type="line"/>
      <point x="583" y="-161"/>
      <point x="701" y="-226"/>
      <point x="831" y="-226" type="curve" smooth="yes"/>
      <point x="963" y="-226"/>
      <point x="1090" y="-147"/>
      <point x="1168" y="-74" type="curve"/>
      <point x="1507" y="248" type="line"/>
      <point x="1165" y="570" type="line"/>
      <point x="1087" y="643"/>
      <point x="963" y="718"/>
      <point x="831" y="718" type="curve" smooth="yes"/>
      <point x="701" y="718"/>
      <point x="586" y="657"/>
      <point x="495" y="570" type="curve"/>
    </contour>
    <contour>
      <point x="191" y="59" type="curve" smooth="yes"/>
      <point x="227" y="59"/>
      <point x="255" y="31"/>
      <point x="255" y="-7" type="curve" smooth="yes"/>
      <point x="255" y="-43"/>
      <point x="228" y="-71"/>
      <point x="191" y="-71" type="curve" smooth="yes"/>
      <point x="155" y="-71"/>
      <point x="125" y="-43"/>
      <point x="125" y="-7" type="curve" smooth="yes"/>
      <point x="125" y="27"/>
      <point x="155" y="59"/>
    </contour>
    <contour>
      <point x="192" y="101" type="curve" smooth="yes"/>
      <point x="131" y="101"/>
      <point x="83" y="53"/>
      <point x="83" y="-7" type="curve" smooth="yes"/>
      <point x="83" y="-68"/>
      <point x="131" y="-116"/>
      <point x="192" y="-116" type="curve" smooth="yes"/>
      <point x="252" y="-116"/>
      <point x="300" y="-68"/>
      <point x="300" y="-7" type="curve" smooth="yes"/>
      <point x="300" y="53"/>
      <point x="252" y="101"/>
    </contour>
    <contour>
      <point x="1471" y="59" type="curve" smooth="yes"/>
      <point x="1507" y="59"/>
      <point x="1537" y="27"/>
      <point x="1537" y="-7" type="curve" smooth="yes"/>
      <point x="1537" y="-43"/>
      <point x="1507" y="-71"/>
      <point x="1471" y="-71" type="curve" smooth="yes"/>
      <point x="1434" y="-71"/>
      <point x="1407" y="-43"/>
      <point x="1407" y="-7" type="curve" smooth="yes"/>
      <point x="1407" y="31"/>
      <point x="1435" y="59"/>
    </contour>
    <contour>
      <point x="1470" y="101" type="curve" smooth="yes"/>
      <point x="1410" y="101"/>
      <point x="1362" y="53"/>
      <point x="1362" y="-7" type="curve" smooth="yes"/>
      <point x="1362" y="-68"/>
      <point x="1410" y="-116"/>
      <point x="1470" y="-116" type="curve" smooth="yes"/>
      <point x="1531" y="-116"/>
      <point x="1579" y="-68"/>
      <point x="1579" y="-7" type="curve" smooth="yes"/>
      <point x="1579" y="53"/>
      <point x="1531" y="101"/>
    </contour>
    <contour>
      <point x="1144" y="-254" type="line"/>
      <point x="832" y="-490" type="line"/>
      <point x="516" y="-253" type="line"/>
      <point x="484" y="-292" type="line"/>
      <point x="822" y="-545" type="line" smooth="yes"/>
      <point x="826" y="-548"/>
      <point x="829" y="-549"/>
      <point x="832" y="-549" type="curve" smooth="yes"/>
      <point x="836" y="-549"/>
      <point x="839" y="-548"/>
      <point x="842" y="-545" type="curve" smooth="yes"/>
      <point x="1172" y="-295" type="line"/>
    </contour>
    <contour>
      <point x="964" y="-197" type="line"/>
      <point x="964" y="-409" type="line"/>
      <point x="1005" y="-383" type="line"/>
      <point x="1005" y="-182" type="line"/>
    </contour>
    <contour>
      <point x="1038" y="-162" type="line"/>
      <point x="1038" y="-352" type="line"/>
      <point x="1079" y="-323" type="line"/>
      <point x="1079" y="-138" type="line"/>
    </contour>
    <contour>
      <point x="888" y="-216" type="line"/>
      <point x="888" y="-465" type="line"/>
      <point x="929" y="-442" type="line"/>
      <point x="929" y="-210" type="line"/>
    </contour>
    <contour>
      <point x="810" y="-221" type="line"/>
      <point x="810" y="-509" type="line"/>
      <point x="852" y="-509" type="line"/>
      <point x="852" y="-220" type="line"/>
    </contour>
    <contour>
      <point x="733" y="-211" type="line"/>
      <point x="733" y="-445" type="line"/>
      <point x="774" y="-467" type="line"/>
      <point x="774" y="-217" type="line"/>
    </contour>
    <contour>
      <point x="657" y="-184" type="line"/>
      <point x="657" y="-384" type="line"/>
      <point x="698" y="-410" type="line"/>
      <point x="698" y="-199" type="line"/>
    </contour>
    <contour>
      <point x="583" y="-143" type="line"/>
      <point x="583" y="-327" type="line"/>
      <point x="624" y="-357" type="line"/>
      <point x="624" y="-165" type="line"/>
    </contour>
  </outline>
</glyph>
<glyph name="endofayah-ar.2.ss02" format="2">
  <advance width="1600"/>
  <outline>
    <contour>
      <point x="805" y="-519" type="curve" smooth="yes"/>
      <point x="1216" y="-519"/>
      <point x="1549" y="-185"/>
      <point x="1549" y="228" type="curve" smooth="yes"/>
      <point x="1549" y="639"/>
      <point x="1215" y="973"/>
      <point x="805" y="973" type="curve" smooth="yes"/>
      <point x="392" y="973"/>
      <point x="60" y="640"/>
      <point x="60" y="228" type="curve" smooth="yes"/>
      <point x="60" y="-185"/>
      <point x="392" y="-519"/>
    </contour>
    <contour>
      <point x="805" y="-468" type="curve" smooth="yes"/>
      <point x="420" y="-468"/>
      <point x="111" y="-157"/>
      <point x="111" y="228" type="curve" smooth="yes"/>
      <point x="111" y="612"/>
      <point x="420" y="922"/>
      <point x="805" y="922" type="curve" smooth="yes"/>
      <point x="1187" y="922"/>
      <point x="1498" y="611"/>
      <point x="1498" y="228" type="curve" smooth="yes"/>
      <point x="1498" y="-157"/>
      <point x="1187" y="-468"/>
    </contour>
    <contour>
      <point x="805" y="-388" type="curve" smooth="yes"/>
      <point x="465" y="-388"/>
      <point x="190" y="-112"/>
      <point x="190" y="228" type="curve" smooth="yes"/>
      <point x="190" y="567"/>
      <point x="465" y="842"/>
      <point x="805" y="842" type="curve" smooth="yes"/>
      <point x="1143" y="842"/>
      <point x="1419" y="566"/>
      <point x="1419" y="228" type="curve" smooth="yes"/>
      <point x="1419" y="-112"/>
      <point x="1143" y="-388"/>
    </contour>
    <contour>
      <point x="805" y="-433" type="curve" smooth="yes"/>
      <point x="1168" y="-433"/>
      <point x="1464" y="-137"/>
      <point x="1464" y="228" type="curve" smooth="yes"/>
      <point x="1464" y="591"/>
      <point x="1168" y="887"/>
      <point x="805" y="887" type="curve" smooth="yes"/>
      <point x="440" y="887"/>
      <point x="145" y="592"/>
      <point x="145" y="228" type="curve" smooth="yes"/>
      <point x="145" y="-137"/>
      <point x="440" y="-433"/>
    </contour>
    <contour>
      <point x="174" y="244" type="line"/>
      <point x="174" y="214" type="line"/>
      <point x="502" y="-91" type="line" smooth="yes"/>
      <point x="587" y="-170"/>
      <point x="695" y="-211"/>
      <point x="803" y="-211" type="curve" smooth="yes"/>
      <point x="913" y="-211"/>
      <point x="1023" y="-170"/>
      <point x="1112" y="-87" type="curve" smooth="yes"/>
      <point x="1431" y="211" type="line"/>
      <point x="1431" y="249" type="line"/>
      <point x="1108" y="544" type="line" smooth="yes"/>
      <point x="1018" y="627"/>
      <point x="911" y="667"/>
      <point x="805" y="667" type="curve" smooth="yes"/>
      <point x="695" y="667"/>
      <point x="586" y="622"/>
      <point x="493" y="537" type="curve" smooth="yes"/>
    </contour>
    <contour>
      <point x="805" y="-161" type="curve" smooth="yes"/>
      <point x="590" y="-161"/>
      <point x="418" y="13"/>
      <point x="418" y="228" type="curve" smooth="yes"/>
      <point x="418" y="438"/>
      <point x="589" y="615"/>
      <point x="809" y="615" type="curve" smooth="yes"/>
      <point x="1022" y="615"/>
      <point x="1192" y="439"/>
      <point x="1192" y="226" type="curve" smooth="yes"/>
      <point x="1192" y="94"/>
      <point x="1091" y="-161"/>
    </contour>
    <contour>
      <point x="398" y="67" type="curve"/>
      <point x="227" y="230" type="line"/>
      <point x="399" y="389" type="line"/>
      <point x="377" y="341"/>
      <point x="368" y="287"/>
      <point x="368" y="232" type="curve" smooth="yes"/>
      <point x="368" y="175"/>
      <point x="376" y="119"/>
    </contour>
    <contour>
      <point x="1209" y="65" type="line"/>
      <point x="1231" y="117"/>
      <point x="1243" y="175"/>
      <point x="1243" y="232" type="curve" smooth="yes"/>
      <point x="1243" y="287"/>
      <point x="1232" y="341"/>
      <point x="1210" y="389" type="curve"/>
      <point x="1384" y="230" type="line"/>
    </contour>
    <contour>
      <point x="979" y="625" type="line"/>
      <point x="979" y="837" type="line"/>
      <point x="938" y="844" type="line"/>
      <point x="938" y="635" type="line"/>
    </contour>
    <contour>
      <point x="904" y="644" type="line"/>
      <point x="904" y="849" type="line"/>
      <point x="863" y="854" type="line"/>
      <point x="863" y="648" type="line"/>
    </contour>
    <contour>
      <point x="784" y="652" type="line"/>
      <point x="826" y="652" type="line"/>
      <point x="826" y="856" type="line"/>
      <point x="784" y="856" type="line"/>
    </contour>
    <contour>
      <point x="706" y="644" type="line"/>
      <point x="747" y="648" type="line"/>
      <point x="747" y="854" type="line"/>
      <point x="706" y="849" type="line"/>
    </contour>
    <contour>
      <point x="631" y="625" type="line"/>
      <point x="672" y="636" type="line"/>
      <point x="672" y="845" type="line"/>
      <point x="631" y="837" type="line"/>
    </contour>
    <contour>
      <point x="938" y="-391" type="line"/>
      <point x="979" y="-384" type="line"/>
      <point x="979" y="-172" type="line"/>
      <point x="938" y="-182" type="line"/>
    </contour>
    <contour>
      <point x="863" y="-401" type="line"/>
      <point x="904" y="-396" type="line"/>
      <point x="904" y="-191" type="line"/>
      <point x="863" y="-195" type="line"/>
    </contour>
    <contour>
      <point x="784" y="-403" type="line"/>
      <point x="826" y="-403" type="line"/>
      <point x="826" y="-199" type="line"/>
      <point x="784" y="-199" type="line"/>
    </contour>
    <contour>
      <point x="706" y="-396" type="line"/>
      <point x="747" y="-401" type="line"/>
      <point x="747" y="-195" type="line"/>
      <point x="706" y="-191" type="line"/>
    </contour>
    <contour>
      <point x="631" y="-384" type="line"/>
      <point x="672" y="-392" type="line"/>
      <point x="672" y="-183" type="line"/>
      <point x="631" y="-172" type="line"/>
    </contour>
  </outline>
</glyph>
<glyph name="endofayah-ar.2.ss03" format="2">
  <advance width="1614"/>
  <outline>
    <contour>
      <point x="280" y="-307" type="curve" smooth="yes"/>
      <point x="571" y="-597"/>
      <point x="1040" y="-599"/>
      <point x="1333" y="-307" type="curve" smooth="yes"/>
      <point x="1623" y="-16"/>
      <point x="1622" y="454"/>
      <point x="1332" y="745" type="curve" smooth="yes"/>
      <point x="1041" y="1035"/>
      <point x="571" y="1035"/>
      <point x="280" y="744" type="curve" smooth="yes"/>
      <point x="-10" y="453"/>
      <point x="-10" y="-16"/>
    </contour>
    <contour>
      <point x="314" y="-274" type="curve" smooth="yes"/>
      <point x="41" y="-1"/>
      <point x="42" y="439"/>
      <point x="314" y="711" type="curve" smooth="yes"/>
      <point x="585" y="982"/>
      <point x="1026" y="984"/>
      <point x="1299" y="711" type="curve" smooth="yes"/>
      <point x="1570" y="440"/>
      <point x="1570" y="-3"/>
      <point x="1299" y="-274" type="curve" smooth="yes"/>
      <point x="1027" y="-546"/>
      <point x="585" y="-545"/>
    </contour>
    <contour>
      <point x="336" y="-251" type="curve" smooth="yes"/>
      <point x="598" y="-514"/>
      <point x="1016" y="-513"/>
      <point x="1277" y="-251" type="curve" smooth="yes"/>
      <point x="1536" y="8"/>
      <point x="1537" y="429"/>
      <point x="1277" y="689" type="curve" smooth="yes"/>
      <point x="1017" y="949"/>
      <point x="596" y="949"/>
      <point x="336" y="689" type="curve" smooth="yes"/>
      <point x="74" y="427"/>
      <point x="76" y="9"/>
    </contour>
    <contour>
      <point x="1392" y="218" type="line"/>
      <point x="806" y="-368" type="line"/>
      <point x="220" y="218" type="line"/>
      <point x="806" y="804" type="line"/>
    </contour>
    <contour>
      <point x="363" y="-224" type="curve" smooth="yes"/>
      <point x="118" y="20"/>
      <point x="118" y="417"/>
      <point x="363" y="661" type="curve" smooth="yes"/>
      <point x="608" y="907"/>
      <point x="1005" y="907"/>
      <point x="1251" y="662" type="curve" smooth="yes"/>
      <point x="1495" y="417"/>
      <point x="1495" y="20"/>
      <point x="1250" y="-224" type="curve" smooth="yes"/>
      <point x="1005" y="-470"/>
      <point x="609" y="-470"/>
    </contour>
    <contour>
      <point x="1194" y="745" type="line"/>
      <point x="1088" y="639" type="line"/>
      <point x="1116" y="612" type="line"/>
      <point x="1222" y="718" type="line"/>
    </contour>
    <contour>
      <point x="1247" y="694" type="line"/>
      <point x="1141" y="588" type="line"/>
      <point x="1168" y="560" type="line"/>
      <point x="1275" y="666" type="line"/>
    </contour>
    <contour>
      <point x="1299" y="641" type="line"/>
      <point x="1193" y="535" type="line"/>
      <point x="1220" y="507" type="line"/>
      <point x="1326" y="613" type="line"/>
    </contour>
    <contour>
      <point x="1447" y="218" type="line"/>
      <point x="806" y="859" type="line"/>
      <point x="166" y="218" type="line"/>
      <point x="806" y="-423" type="line"/>
    </contour>
    <contour>
      <point x="707" y="-416" type="line"/>
      <point x="758" y="-411" type="line"/>
      <point x="171" y="175" type="line"/>
      <point x="167" y="125" type="line"/>
    </contour>
    <contour>
      <point x="1460" y="137" type="line"/>
      <point x="1456" y="188" type="line"/>
      <point x="837" y="-431" type="line"/>
      <point x="886" y="-436" type="line"/>
    </contour>
    <contour>
      <point x="774" y="866" type="line"/>
      <point x="724" y="871" type="line"/>
      <point x="150" y="296" type="line"/>
      <point x="157" y="248" type="line"/>
    </contour>
    <contour>
      <point x="900" y="860" type="line"/>
      <point x="851" y="854" type="line"/>
      <point x="1446" y="259" type="line"/>
      <point x="1453" y="306" type="line"/>
    </contour>
    <contour>
      <point x="388" y="-61" type="line"/>
      <point x="282" y="-167" type="line"/>
      <point x="309" y="-194" type="line"/>
      <point x="415" y="-88" type="line"/>
    </contour>
    <contour>
      <point x="441" y="-112" type="line"/>
      <point x="335" y="-218" type="line"/>
      <point x="362" y="-246" type="line"/>
      <point x="468" y="-140" type="line"/>
    </contour>
    <contour>
      <point x="493" y="-165" type="line"/>
      <point x="386" y="-272" type="line"/>
      <point x="414" y="-299" type="line"/>
      <point x="520" y="-193" type="line"/>
    </contour>
    <contour>
      <point x="1326" y="-166" type="line"/>
      <point x="1220" y="-60" type="line"/>
      <point x="1193" y="-88" type="line"/>
      <point x="1299" y="-194" type="line"/>
    </contour>
    <contour>
      <point x="1274" y="-219" type="line"/>
      <point x="1168" y="-113" type="line"/>
      <point x="1140" y="-141" type="line"/>
      <point x="1247" y="-247" type="line"/>
    </contour>
    <contour>
      <point x="1222" y="-271" type="line"/>
      <point x="1116" y="-165" type="line"/>
      <point x="1088" y="-192" type="line"/>
      <point x="1194" y="-298" type="line"/>
    </contour>
    <contour>
      <point x="520" y="640" type="line"/>
      <point x="414" y="746" type="line"/>
      <point x="386" y="718" type="line"/>
      <point x="493" y="612" type="line"/>
    </contour>
    <contour>
      <point x="468" y="587" type="line"/>
      <point x="362" y="693" type="line"/>
      <point x="334" y="665" type="line"/>
      <point x="440" y="559" type="line"/>
    </contour>
    <contour>
      <point x="415" y="535" type="line"/>
      <point x="309" y="641" type="line"/>
      <point x="282" y="614" type="line"/>
      <point x="388" y="508" type="line"/>
    </contour>
  </outline>
</glyph>
<glyph name="endofayah-ar.3" format="2">
  <advance width="1941"/>
  <outline>
    <contour>
      <point x="1347" y="815" type="line"/>
      <point x="1381" y="852" type="line"/>
      <point x="977" y="1158" type="line" smooth="yes"/>
      <point x="973" y="1161"/>
      <point x="970" y="1163"/>
      <point x="965" y="1163" type="curve" smooth="yes"/>
      <point x="962" y="1163"/>
      <point x="958" y="1162"/>
      <point x="953" y="1158" type="curve" smooth="yes"/>
      <point x="540" y="849" type="line"/>
      <point x="579" y="814" type="line"/>
      <point x="965" y="1104" type="line"/>
    </contour>
    <contour>
      <point x="1126" y="746" type="line"/>
      <point x="1167" y="727" type="line"/>
      <point x="1167" y="973" type="line"/>
      <point x="1126" y="1005" type="line"/>
    </contour>
    <contour>
      <point x="182" y="438" type="curve" smooth="yes"/>
      <point x="138" y="438"/>
      <point x="101" y="477"/>
      <point x="101" y="518" type="curve" smooth="yes"/>
      <point x="101" y="562"/>
      <point x="138" y="596"/>
      <point x="182" y="596" type="curve" smooth="yes"/>
      <point x="227" y="596"/>
      <point x="260" y="562"/>
      <point x="260" y="518" type="curve" smooth="yes"/>
      <point x="260" y="472"/>
      <point x="226" y="438"/>
    </contour>
    <contour>
      <point x="964" y="-323" type="curve" smooth="yes"/>
      <point x="835" y="-323"/>
      <point x="705" y="-267"/>
      <point x="587" y="-154" type="curve" smooth="yes"/>
      <point x="208" y="206" type="line"/>
      <point x="587" y="562" type="line" smooth="yes"/>
      <point x="705" y="673"/>
      <point x="833" y="731"/>
      <point x="964" y="731" type="curve" smooth="yes"/>
      <point x="1093" y="731"/>
      <point x="1220" y="674"/>
      <point x="1339" y="562" type="curve" smooth="yes"/>
      <point x="1716" y="206" type="line"/>
      <point x="1339" y="-153" type="line" smooth="yes"/>
      <point x="1222" y="-265"/>
      <point x="1094" y="-323"/>
    </contour>
    <contour>
      <point x="1214" y="703" type="line"/>
      <point x="1255" y="673" type="line"/>
      <point x="1255" y="900" type="line"/>
      <point x="1214" y="935" type="line"/>
    </contour>
    <contour>
      <point x="1036" y="769" type="line"/>
      <point x="1077" y="762" type="line"/>
      <point x="1077" y="1045" type="line"/>
      <point x="1036" y="1073" type="line"/>
    </contour>
    <contour>
      <point x="943" y="775" type="line"/>
      <point x="985" y="774" type="line"/>
      <point x="985" y="1127" type="line"/>
      <point x="943" y="1127" type="line"/>
    </contour>
    <contour>
      <point x="851" y="763" type="line"/>
      <point x="892" y="770" type="line"/>
      <point x="892" y="1076" type="line"/>
      <point x="851" y="1049" type="line"/>
    </contour>
    <contour>
      <point x="761" y="730" type="line"/>
      <point x="802" y="748" type="line"/>
      <point x="802" y="1006" type="line"/>
      <point x="761" y="974" type="line"/>
    </contour>
    <contour>
      <point x="673" y="680" type="line"/>
      <point x="714" y="707" type="line"/>
      <point x="714" y="941" type="line"/>
      <point x="673" y="905" type="line"/>
    </contour>
    <contour>
      <point x="135" y="206" type="line"/>
      <point x="550" y="-187" type="line"/>
      <point x="661" y="-294"/>
      <point x="805" y="-373"/>
      <point x="964" y="-373" type="curve" smooth="yes"/>
      <point x="1125" y="-373"/>
      <point x="1281" y="-276"/>
      <point x="1376" y="-187" type="curve"/>
      <point x="1790" y="206" type="line"/>
      <point x="1372" y="600" type="line"/>
      <point x="1277" y="689"/>
      <point x="1125" y="781"/>
      <point x="964" y="781" type="curve" smooth="yes"/>
      <point x="805" y="781"/>
      <point x="664" y="707"/>
      <point x="553" y="600" type="curve"/>
    </contour>
    <contour>
      <point x="1916" y="217" type="line"/>
      <point x="1335" y="761" type="line"/>
      <point x="1336" y="716" type="line"/>
      <point x="1338" y="780"/>
      <point x="1442" y="930"/>
      <point x="1577" y="930" type="curve" smooth="yes"/>
      <point x="1702" y="930"/>
      <point x="1753" y="850"/>
      <point x="1753" y="785" type="curve" smooth="yes"/>
      <point x="1753" y="720"/>
      <point x="1710" y="653"/>
      <point x="1612" y="653" type="curve" smooth="yes"/>
      <point x="1548" y="653"/>
      <point x="1497" y="691"/>
      <point x="1497" y="755" type="curve" smooth="yes"/>
      <point x="1497" y="802"/>
      <point x="1537" y="832"/>
      <point x="1578" y="832" type="curve" smooth="yes"/>
      <point x="1618" y="832"/>
      <point x="1639" y="809"/>
      <point x="1639" y="786" type="curve" smooth="yes"/>
      <point x="1639" y="765"/>
      <point x="1621" y="745"/>
      <point x="1584" y="744" type="curve"/>
      <point x="1581" y="697" type="line"/>
      <point x="1660" y="696"/>
      <point x="1685" y="744"/>
      <point x="1685" y="785" type="curve" smooth="yes"/>
      <point x="1685" y="829"/>
      <point x="1648" y="875"/>
      <point x="1574" y="875" type="curve" smooth="yes"/>
      <point x="1515" y="875"/>
      <point x="1454" y="830"/>
      <point x="1454" y="754" type="curve" smooth="yes"/>
      <point x="1454" y="661"/>
      <point x="1534" y="610"/>
      <point x="1613" y="610" type="curve" smooth="yes"/>
      <point x="1701" y="610"/>
      <point x="1796" y="664"/>
      <point x="1796" y="785" type="curve" smooth="yes"/>
      <point x="1796" y="889"/>
      <point x="1709" y="973"/>
      <point x="1576" y="973" type="curve" smooth="yes"/>
      <point x="1407" y="973"/>
      <point x="1305" y="793"/>
      <point x="1296" y="739" type="curve"/>
      <point x="1865" y="206" type="line"/>
      <point x="1296" y="-327" type="line"/>
      <point x="1305" y="-381"/>
      <point x="1407" y="-561"/>
      <point x="1576" y="-561" type="curve" smooth="yes"/>
      <point x="1709" y="-561"/>
      <point x="1796" y="-477"/>
      <point x="1796" y="-373" type="curve" smooth="yes"/>
      <point x="1796" y="-252"/>
      <point x="1701" y="-198"/>
      <point x="1613" y="-198" type="curve" smooth="yes"/>
      <point x="1534" y="-198"/>
      <point x="1454" y="-249"/>
      <point x="1454" y="-342" type="curve" smooth="yes"/>
      <point x="1454" y="-418"/>
      <point x="1515" y="-463"/>
      <point x="1574" y="-463" type="curve" smooth="yes"/>
      <point x="1648" y="-463"/>
      <point x="1685" y="-417"/>
      <point x="1685" y="-373" type="curve" smooth="yes"/>
      <point x="1685" y="-332"/>
      <point x="1660" y="-284"/>
      <point x="1581" y="-285" type="curve"/>
      <point x="1584" y="-332" type="line"/>
      <point x="1621" y="-333"/>
      <point x="1639" y="-353"/>
      <point x="1639" y="-374" type="curve" smooth="yes"/>
      <point x="1639" y="-397"/>
      <point x="1618" y="-420"/>
      <point x="1578" y="-420" type="curve" smooth="yes"/>
      <point x="1537" y="-420"/>
      <point x="1497" y="-390"/>
      <point x="1497" y="-343" type="curve" smooth="yes"/>
      <point x="1497" y="-279"/>
      <point x="1548" y="-241"/>
      <point x="1612" y="-241" type="curve" smooth="yes"/>
      <point x="1710" y="-241"/>
      <point x="1753" y="-308"/>
      <point x="1753" y="-373" type="curve" smooth="yes"/>
      <point x="1753" y="-438"/>
      <point x="1702" y="-518"/>
      <point x="1577" y="-518" type="curve" smooth="yes"/>
      <point x="1442" y="-518"/>
      <point x="1338" y="-368"/>
      <point x="1336" y="-304" type="curve"/>
      <point x="1335" y="-349" type="line"/>
      <point x="1916" y="195" type="line"/>
    </contour>
    <contour>
      <point x="11" y="217" type="line"/>
      <point x="11" y="195" type="line"/>
      <point x="592" y="-349" type="line"/>
      <point x="591" y="-304" type="line"/>
      <point x="589" y="-368"/>
      <point x="485" y="-518"/>
      <point x="350" y="-518" type="curve" smooth="yes"/>
      <point x="225" y="-518"/>
      <point x="174" y="-438"/>
      <point x="174" y="-373" type="curve" smooth="yes"/>
      <point x="174" y="-308"/>
      <point x="217" y="-241"/>
      <point x="315" y="-241" type="curve" smooth="yes"/>
      <point x="379" y="-241"/>
      <point x="430" y="-279"/>
      <point x="430" y="-343" type="curve" smooth="yes"/>
      <point x="430" y="-390"/>
      <point x="390" y="-420"/>
      <point x="349" y="-420" type="curve" smooth="yes"/>
      <point x="309" y="-420"/>
      <point x="288" y="-397"/>
      <point x="288" y="-374" type="curve" smooth="yes"/>
      <point x="288" y="-353"/>
      <point x="306" y="-333"/>
      <point x="343" y="-332" type="curve"/>
      <point x="346" y="-285" type="line"/>
      <point x="267" y="-284"/>
      <point x="242" y="-332"/>
      <point x="242" y="-373" type="curve" smooth="yes"/>
      <point x="242" y="-417"/>
      <point x="279" y="-463"/>
      <point x="353" y="-463" type="curve" smooth="yes"/>
      <point x="412" y="-463"/>
      <point x="473" y="-418"/>
      <point x="473" y="-342" type="curve" smooth="yes"/>
      <point x="473" y="-249"/>
      <point x="393" y="-198"/>
      <point x="314" y="-198" type="curve" smooth="yes"/>
      <point x="226" y="-198"/>
      <point x="131" y="-252"/>
      <point x="131" y="-373" type="curve" smooth="yes"/>
      <point x="131" y="-477"/>
      <point x="218" y="-561"/>
      <point x="351" y="-561" type="curve" smooth="yes"/>
      <point x="520" y="-561"/>
      <point x="622" y="-381"/>
      <point x="631" y="-327" type="curve"/>
      <point x="62" y="206" type="line"/>
      <point x="631" y="739" type="line"/>
      <point x="622" y="793"/>
      <point x="520" y="973"/>
      <point x="351" y="973" type="curve" smooth="yes"/>
      <point x="218" y="973"/>
      <point x="131" y="889"/>
      <point x="131" y="785" type="curve" smooth="yes"/>
      <point x="131" y="664"/>
      <point x="226" y="610"/>
      <point x="314" y="610" type="curve" smooth="yes"/>
      <point x="393" y="610"/>
      <point x="473" y="661"/>
      <point x="473" y="754" type="curve" smooth="yes"/>
      <point x="473" y="830"/>
      <point x="412" y="875"/>
      <point x="353" y="875" type="curve" smooth="yes"/>
      <point x="279" y="875"/>
      <point x="242" y="829"/>
      <point x="242" y="785" type="curve" smooth="yes"/>
      <point x="242" y="744"/>
      <point x="267" y="696"/>
      <point x="346" y="697" type="curve"/>
      <point x="343" y="744" type="line"/>
      <point x="306" y="745"/>
      <point x="288" y="765"/>
      <point x="288" y="786" type="curve" smooth="yes"/>
      <point x="288" y="809"/>
      <point x="309" y="832"/>
      <point x="349" y="832" type="curve" smooth="yes"/>
      <point x="390" y="832"/>
      <point x="430" y="802"/>
      <point x="430" y="755" type="curve" smooth="yes"/>
      <point x="430" y="691"/>
      <point x="379" y="653"/>
      <point x="315" y="653" type="curve" smooth="yes"/>
      <point x="217" y="653"/>
      <point x="174" y="720"/>
      <point x="174" y="785" type="curve" smooth="yes"/>
      <point x="174" y="850"/>
      <point x="225" y="930"/>
      <point x="350" y="930" type="curve" smooth="yes"/>
      <point x="485" y="930"/>
      <point x="589" y="780"/>
      <point x="591" y="716" type="curve"/>
      <point x="592" y="761" type="line"/>
    </contour>
    <contour>
      <point x="183" y="395" type="curve" smooth="yes"/>
      <point x="251" y="395"/>
      <point x="306" y="450"/>
      <point x="306" y="518" type="curve" smooth="yes"/>
      <point x="306" y="588"/>
      <point x="251" y="642"/>
      <point x="183" y="642" type="curve" smooth="yes"/>
      <point x="113" y="642"/>
      <point x="59" y="588"/>
      <point x="59" y="518" type="curve" smooth="yes"/>
      <point x="59" y="450"/>
      <point x="113" y="395"/>
    </contour>
    <contour>
      <point x="1347" y="-405" type="line"/>
      <point x="965" y="-694" type="line"/>
      <point x="579" y="-404" type="line"/>
      <point x="540" y="-439" type="line"/>
      <point x="953" y="-748" type="line" smooth="yes"/>
      <point x="958" y="-752"/>
      <point x="962" y="-753"/>
      <point x="965" y="-753" type="curve" smooth="yes"/>
      <point x="970" y="-753"/>
      <point x="973" y="-751"/>
      <point x="977" y="-748" type="curve" smooth="yes"/>
      <point x="1381" y="-442" type="line"/>
    </contour>
    <contour>
      <point x="1744" y="395" type="curve" smooth="yes"/>
      <point x="1814" y="395"/>
      <point x="1868" y="450"/>
      <point x="1868" y="518" type="curve" smooth="yes"/>
      <point x="1868" y="588"/>
      <point x="1814" y="642"/>
      <point x="1744" y="642" type="curve" smooth="yes"/>
      <point x="1676" y="642"/>
      <point x="1621" y="588"/>
      <point x="1621" y="518" type="curve" smooth="yes"/>
      <point x="1621" y="450"/>
      <point x="1676" y="395"/>
    </contour>
    <contour>
      <point x="1745" y="438" type="curve" smooth="yes"/>
      <point x="1701" y="438"/>
      <point x="1667" y="472"/>
      <point x="1667" y="518" type="curve" smooth="yes"/>
      <point x="1667" y="562"/>
      <point x="1700" y="596"/>
      <point x="1745" y="596" type="curve" smooth="yes"/>
      <point x="1789" y="596"/>
      <point x="1826" y="562"/>
      <point x="1826" y="518" type="curve" smooth="yes"/>
      <point x="1826" y="477"/>
      <point x="1789" y="438"/>
    </contour>
    <contour>
      <point x="1744" y="17" type="curve" smooth="yes"/>
      <point x="1676" y="17"/>
      <point x="1621" y="-38"/>
      <point x="1621" y="-106" type="curve" smooth="yes"/>
      <point x="1621" y="-176"/>
      <point x="1676" y="-230"/>
      <point x="1744" y="-230" type="curve" smooth="yes"/>
      <point x="1814" y="-230"/>
      <point x="1868" y="-176"/>
      <point x="1868" y="-106" type="curve" smooth="yes"/>
      <point x="1868" y="-38"/>
      <point x="1814" y="17"/>
    </contour>
    <contour>
      <point x="1745" y="-26" type="curve" smooth="yes"/>
      <point x="1789" y="-26"/>
      <point x="1826" y="-65"/>
      <point x="1826" y="-106" type="curve" smooth="yes"/>
      <point x="1826" y="-150"/>
      <point x="1789" y="-184"/>
      <point x="1745" y="-184" type="curve" smooth="yes"/>
      <point x="1700" y="-184"/>
      <point x="1667" y="-150"/>
      <point x="1667" y="-106" type="curve" smooth="yes"/>
      <point x="1667" y="-60"/>
      <point x="1701" y="-26"/>
    </contour>
    <contour>
      <point x="183" y="17" type="curve" smooth="yes"/>
      <point x="113" y="17"/>
      <point x="59" y="-38"/>
      <point x="59" y="-106" type="curve" smooth="yes"/>
      <point x="59" y="-176"/>
      <point x="113" y="-230"/>
      <point x="183" y="-230" type="curve" smooth="yes"/>
      <point x="251" y="-230"/>
      <point x="306" y="-176"/>
      <point x="306" y="-106" type="curve" smooth="yes"/>
      <point x="306" y="-38"/>
      <point x="251" y="17"/>
    </contour>
    <contour>
      <point x="182" y="-26" type="curve" smooth="yes"/>
      <point x="226" y="-26"/>
      <point x="260" y="-60"/>
      <point x="260" y="-106" type="curve" smooth="yes"/>
      <point x="260" y="-150"/>
      <point x="227" y="-184"/>
      <point x="182" y="-184" type="curve" smooth="yes"/>
      <point x="138" y="-184"/>
      <point x="101" y="-150"/>
      <point x="101" y="-106" type="curve" smooth="yes"/>
      <point x="101" y="-65"/>
      <point x="138" y="-26"/>
    </contour>
    <contour>
      <point x="1126" y="-336" type="line"/>
      <point x="1126" y="-595" type="line"/>
      <point x="1167" y="-563" type="line"/>
      <point x="1167" y="-317" type="line"/>
    </contour>
    <contour>
      <point x="1214" y="-293" type="line"/>
      <point x="1214" y="-525" type="line"/>
      <point x="1255" y="-490" type="line"/>
      <point x="1255" y="-263" type="line"/>
    </contour>
    <contour>
      <point x="1036" y="-359" type="line"/>
      <point x="1036" y="-663" type="line"/>
      <point x="1077" y="-635" type="line"/>
      <point x="1077" y="-352" type="line"/>
    </contour>
    <contour>
      <point x="943" y="-365" type="line"/>
      <point x="943" y="-717" type="line"/>
      <point x="985" y="-717" type="line"/>
      <point x="985" y="-364" type="line"/>
    </contour>
    <contour>
      <point x="851" y="-353" type="line"/>
      <point x="851" y="-639" type="line"/>
      <point x="892" y="-666" type="line"/>
      <point x="892" y="-360" type="line"/>
    </contour>
    <contour>
      <point x="761" y="-320" type="line"/>
      <point x="761" y="-564" type="line"/>
      <point x="802" y="-596" type="line"/>
      <point x="802" y="-338" type="line"/>
    </contour>
    <contour>
      <point x="673" y="-270" type="line"/>
      <point x="673" y="-495" type="line"/>
      <point x="714" y="-531" type="line"/>
      <point x="714" y="-297" type="line"/>
    </contour>
  </outline>
</glyph>
